<?xml version="1.0" standalone="no"?>
<!DOCTYPE svg PUBLIC "-//W3C//DTD SVG 1.1//EN" "http://www.w3.org/Graphics/SVG/1.1/DTD/svg11.dtd" >
<svg xmlns="http://www.w3.org/2000/svg" xmlns:xlink="http://www.w3.org/1999/xlink" version="1.1">
<metadata>
Created by FontForge 20161003 at Mon Feb  5 16:28:57 2018
 By www-data
Copyright (c) Alexey Kryukov, 2007-2011. All rights reserved.
</metadata>
<defs>
<font id="11514" horiz-adv-x="0" >
  <font-face 
    font-family="11514"
    font-weight="400"
    font-stretch="normal"
    units-per-em="2048"
    panose-1="0 0 0 0 0 0 0 0 0 0"
    ascent="1580"
    descent="-468"
    x-height="884"
    cap-height="1434"
    bbox="-1022 -628 2248 1962"
    underline-thickness="96"
    underline-position="-542"
    unicode-range="U+000D-FB04"
  />
<missing-glyph horiz-adv-x="1024" 
d="M928 1460v-1460h-832v1460h832zM192 1292v-1124q0 -80 78 -80h484q78 0 78 80v1124q0 80 -78 80h-484q-78 0 -78 -80zM372 980h-96q0 117 68 194q69 76 180 76q52 0 94.5 -14.5t72 -41t45.5 -64.5t16 -86q0 -104 -152 -301q-38 -49 -50 -124t-12 -183h-96q0 134 16 211
q17 82 77 160q105 136 105 235q0 26 -9.5 48t-26 38t-39 25t-47.5 9q-38 0 -65 -14t-44.5 -38t-26.5 -57.5t-10 -72.5zM496 358q18 0 33 -7t26.5 -18.5t18 -27t6.5 -31.5q0 -18 -6.5 -34.5t-18 -29t-26.5 -19.5t-33 -7t-33.5 7.5t-27.5 19.5t-18.5 28.5t-6.5 34.5
q0 36 25 60t61 24z" />
    <glyph glyph-name=".notdef" horiz-adv-x="1024" 
d="M928 1460v-1460h-832v1460h832zM192 1292v-1124q0 -80 78 -80h484q78 0 78 80v1124q0 80 -78 80h-484q-78 0 -78 -80zM372 980h-96q0 117 68 194q69 76 180 76q52 0 94.5 -14.5t72 -41t45.5 -64.5t16 -86q0 -104 -152 -301q-38 -49 -50 -124t-12 -183h-96q0 134 16 211
q17 82 77 160q105 136 105 235q0 26 -9.5 48t-26 38t-39 25t-47.5 9q-38 0 -65 -14t-44.5 -38t-26.5 -57.5t-10 -72.5zM496 358q18 0 33 -7t26.5 -18.5t18 -27t6.5 -31.5q0 -18 -6.5 -34.5t-18 -29t-26.5 -19.5t-33 -7t-33.5 7.5t-27.5 19.5t-18.5 28.5t-6.5 34.5
q0 36 25 60t61 24z" />
    <glyph glyph-name=".null" 
 />
    <glyph glyph-name="nonmarkingreturn" unicode="&#xd;" horiz-adv-x="682" 
 />
    <glyph glyph-name="NULL" 
 />
    <glyph glyph-name="NULL" 
 />
    <glyph glyph-name="space" unicode=" " horiz-adv-x="528" 
 />
    <glyph glyph-name="exclam" unicode="!" horiz-adv-x="528" 
d="M126 1343q0 36 9 67t26 53.5t43 35.5t60 13t60 -13t43 -35.5t26 -53.5t9 -67q0 -105 -24 -247q-28 -166 -43 -301l-43 -405h-56l-43 405q-15 135 -43 301q-24 142 -24 247zM173 13q-37 37 -37 91t37 91t91 37t91 -37t37 -91t-37 -91q-38 -35 -91 -35t-91 35z" />
    <glyph glyph-name="quotedbl" unicode="&#x22;" horiz-adv-x="880" 
d="M544 1412q0 46 24.5 76t69.5 30t69.5 -30t24.5 -76q0 -16 -2.5 -43.5t-7.5 -69.5l-56 -445h-56l-56 445q-5 42 -7.5 70t-2.5 43zM170 1412q0 46 24.5 76t69.5 30t69.5 -30t24.5 -76q0 -16 -2.5 -43.5t-7.5 -69.5l-56 -445h-56l-56 445q-5 42 -7.5 70t-2.5 43z" />
    <glyph glyph-name="numbersign" unicode="#" horiz-adv-x="1152" 
d="M170 0l87 430h-195v96h215l83 408h-298v96h317l87 430h88l-87 -430h334l87 430h88l-87 -430h201v-96h-220l-83 -408h303v-96h-323l-87 -430h-88l87 430h-334l-87 -430h-88zM782 934h-334l-83 -408h334z" />
    <glyph glyph-name="dollar" unicode="$" horiz-adv-x="1152" 
d="M74 280q0 39 11 72t31 56.5t48.5 36.5t64.5 13q39 0 66.5 -21.5t27.5 -58.5q0 -70 -83 -105q-31 -13 -42.5 -28.5t-11.5 -44.5q0 -49 64 -91q65 -42 162 -64v646q-73 25 -125.5 53t-95.5 70q-85 82 -85 226q0 135 83 239t223 148v117h60v-101q30 5 60 8t61 3q25 0 46 -1
t40 -3v94h60v-102q140 -25 221 -94q82 -69 82 -166q0 -68 -35 -118t-95 -50q-42 0 -68 23t-26 54q0 58 62 99q11 7 19 13.5t13.5 14.5t8.5 18.5t5 26.5q0 21 -14 40t-39 35t-59.5 28.5t-74.5 21.5v-580q183 -58 261 -142q76 -82 76 -232q0 -168 -92 -278t-245 -152v-138h-60
v126q-28 -5 -58.5 -7.5t-63.5 -2.5q-19 0 -40 1.5t-45 3.5v-121h-60v130q-64 12 -124.5 34.5t-108 57.5t-76.5 82.5t-29 109.5zM412 905v468q-88 -34 -140 -97t-52 -144t45 -133.5t147 -93.5zM679 612l-207 59v-637q43 -6 86 -6q32 0 62.5 3t58.5 10v571zM472 1391v-508
l207 -57v573q-47 6 -89 6q-30 0 -59.5 -3.5t-58.5 -10.5zM739 593v-535q108 37 175 112q68 77 68 181q0 90 -57 144t-186 98z" />
    <glyph glyph-name="percent" unicode="%" horiz-adv-x="1540" 
d="M115 977q-26 60 -32 128t7 133.5t44.5 122.5t81.5 95q68 52 146 52q80 0 146 -52t101 -133q26 -60 32.5 -128.5t-6.5 -133.5t-45 -122.5t-82 -95.5q-66 -51 -146 -51q-82 0 -146 51q-65 51 -101 134zM220 1255q-6 -51 -6.5 -105.5t6.5 -105.5q6 -52 22 -102
q15 -52 46 -83q15 -15 34.5 -23t39.5 -8t39.5 8t34.5 23t26.5 36.5t19.5 46t13 51t8 51.5q7 51 6.5 105.5t-6.5 105.5q-3 25 -8 51.5t-13.5 51.5t-19.5 46.5t-26 36.5t-34.5 23t-39.5 8t-39.5 -8t-34.5 -23t-26.5 -36.5t-19.5 -46.5t-13.5 -51.5t-8.5 -51.5zM1261 1496
l-886 -1510h-96l884 1510h98zM931 157q-26 60 -32 128t7 133.5t44.5 122.5t81.5 95q68 52 146 52q80 0 146 -52t101 -133q26 -60 32.5 -128.5t-6.5 -134t-45 -122.5t-82 -95q-67 -49 -146 -49q-81 0 -146 49q-64 50 -101 134zM1036 435q-6 -51 -6.5 -105.5t6.5 -105.5
q6 -52 22 -102q15 -52 46 -83q15 -15 34.5 -22t39.5 -7t39.5 7t34.5 22t26.5 36.5t19.5 46t13 51t8 51.5q7 51 6.5 105.5t-6.5 105.5q-3 25 -8 51.5t-13.5 51.5t-19.5 46.5t-26 36.5t-34.5 23t-39.5 8t-39.5 -8t-34.5 -23t-26.5 -36.5t-19.5 -46.5t-13.5 -51.5t-8.5 -51.5z
" />
    <glyph glyph-name="ampersand" unicode="&#x26;" horiz-adv-x="1614" 
d="M122 367q0 72 21 137.5t57 119.5t91 106q56 53 116.5 96.5t138.5 89.5q-82 154 -82 274q0 138 87 233q89 95 203 95t166 -64t52 -163q0 -91 -60.5 -175t-172.5 -156l359 -625q127 211 168 450h-248v52h564v-52h-261q-59 -293 -194 -501q71 -120 141.5 -178t149.5 -58
q66 0 130 23l20 -57q-58 -17 -112.5 -26.5t-105.5 -9.5q-240 0 -352 155q-180 -155 -409 -155q-234 0 -352 118q-54 54 -84.5 126t-30.5 145zM320 470q0 -145 70 -233q120 -155 337 -155q125 0 238 101l-390 682q-65 -40 -112.5 -82t-79.5 -90t-47.5 -103t-15.5 -120z
M616 1288q0 -72 16 -120q8 -25 21 -53.5t32 -60.5l24 -41q94 64 142.5 138t48.5 147q0 172 -138 172q-57 0 -102 -50q-44 -50 -44 -132z" />
    <glyph glyph-name="quotesingle" unicode="'" horiz-adv-x="528" 
d="M170 1412q0 46 24.5 76t69.5 30t69.5 -30t24.5 -76q0 -16 -2.5 -43.5t-7.5 -69.5l-56 -445h-56l-56 445q-5 42 -7.5 70t-2.5 43z" />
    <glyph glyph-name="parenleft" unicode="(" horiz-adv-x="660" 
d="M494 1512l40 -28q-66 -121 -111 -236.5t-73 -227.5q-54 -221 -54 -532q0 -313 54 -530q28 -112 73 -227.5t111 -236.5l-40 -28q-168 243 -259 511q-91 263 -91 511q0 247 91 513q91 268 259 511z" />
    <glyph glyph-name="parenright" unicode=")" horiz-adv-x="660" 
d="M166 -534l-40 28q66 121 110.5 236.5t72.5 227.5q27 110 41 241.5t14 288.5t-14 288.5t-41 243.5q-28 112 -72.5 227.5t-110.5 236.5l40 28q168 -243 259 -511q91 -266 91 -513q0 -248 -91 -511q-91 -268 -259 -511z" />
    <glyph glyph-name="asterisk" unicode="*" horiz-adv-x="1104" 
d="M148 882q0 85 148 104q42 5 82 19.5t82 37.5q22 12 22 24q0 6 -5.5 12t-10.5 9l-6 3q-42 21 -82 36.5t-82 20.5q-148 19 -148 104q0 31 22.5 56t59.5 25q34 0 61.5 -20.5t61.5 -65.5q23 -30 54 -56t70 -51q20 -14 31 -14q10 0 14 6.5t4 26.5q0 45 -7 87.5t-24 82.5
q-13 31 -20 54.5t-7 39.5q0 42 22.5 68.5t61.5 26.5t61.5 -26.5t22.5 -68.5q0 -16 -7 -39.5t-20 -54.5q-17 -40 -24 -82.5t-7 -87.5q0 -20 4 -26.5t14 -6.5q11 0 31 14q39 25 70 51t54 56q34 45 61.5 65.5t61.5 20.5q37 0 59.5 -25t22.5 -56q0 -85 -148 -104
q-42 -5 -82 -19.5t-82 -37.5q-22 -12 -22 -24q0 -6 5.5 -12t10.5 -9l6 -3q42 -21 82 -36.5t82 -20.5q148 -19 148 -104q0 -31 -22.5 -56t-59.5 -25q-34 0 -61.5 20.5t-61.5 65.5q-23 30 -54 56t-70 51q-20 14 -31 14q-10 0 -14 -6.5t-4 -26.5q0 -45 7 -87.5t24 -82.5
q13 -31 20 -54.5t7 -39.5q0 -42 -22.5 -68.5t-61.5 -26.5t-61.5 26.5t-22.5 68.5q0 16 7 39.5t20 54.5q17 40 24 82.5t7 87.5q0 20 -4 26.5t-14 6.5q-11 0 -31 -14q-39 -25 -70 -51t-54 -56q-34 -45 -61.5 -65.5t-61.5 -20.5q-37 0 -59.5 25t-22.5 56z" />
    <glyph glyph-name="plus" unicode="+" horiz-adv-x="1152" 
d="M522 0v466h-460v96h460v466h108v-466h460v-96h-460v-466h-108z" />
    <glyph glyph-name="comma" unicode="," horiz-adv-x="528" 
d="M133 -422l-31 34q34 30 65.5 64t58.5 68.5t47.5 68.5t34.5 65q20 44 20 97q0 51 -84 51q-45 0 -78 23.5t-33 76.5q0 27 9 49t25 37.5t36.5 24.5t44.5 9q84 0 121 -52q39 -53 39 -127q0 -108 -73 -239q-37 -66 -86.5 -128t-115.5 -122z" />
    <glyph glyph-name="hyphen" unicode="-" horiz-adv-x="900" 
d="M764 478v-132h-628v132h628z" />
    <glyph glyph-name="period" unicode="." horiz-adv-x="528" 
d="M173 13q-37 37 -37 91t37 91t91 37t91 -37t37 -91t-37 -91q-38 -35 -91 -35t-91 35z" />
    <glyph glyph-name="slash" unicode="/" horiz-adv-x="722" 
d="M642 1434l-460 -1952h-102l460 1952h102z" />
    <glyph glyph-name="zero" unicode="0" horiz-adv-x="1152" 
d="M135 244q-39 90 -39 198t39 197q39 91 104 148t153 89t183.5 32t183.5 -32t153.5 -89t104.5 -148q39 -89 39 -197t-39 -198q-39 -91 -104.5 -149t-153.5 -91q-88 -32 -183 -32t-183 32q-88 33 -153.5 91t-104.5 149zM304 442q0 -422 272 -422t272 422q0 418 -272 418
t-272 -418z" />
    <glyph glyph-name="one" unicode="1" horiz-adv-x="1152" 
d="M233 505l-21 55q101 36 175 77q75 42 145 107t122 156h52v-852h264v-48h-712v48h264v591l-8 3q-112 -78 -281 -137z" />
    <glyph glyph-name="two" unicode="2" horiz-adv-x="1152" 
d="M978 292l-36 -292h-786v48q51 21 90.5 39.5t70.5 34.5q60 31 131 82q61 44 109 90.5t80.5 97.5t49.5 107.5t17 122.5q0 43 -11 85.5t-37.5 76.5t-71.5 55t-112 21t-114 -23t-76.5 -57t-43 -74.5t-13.5 -74.5q0 -23 8 -38.5t21.5 -25.5t31 -14t35.5 -4q36 0 63 23.5
t27 61.5q0 25 -13 47l23 14q48 -59 48 -138q0 -55 -39 -95q-38 -41 -97 -41q-73 0 -118.5 47t-45.5 135q0 54 20.5 106.5t62.5 97.5q42 46 111.5 73.5t160.5 27.5q182 0 286 -89q102 -89 102 -221q0 -66 -29 -125.5t-80 -110.5q-47 -47 -123 -97q-73 -48 -150 -85.5
t-173 -76.5l3 -11h377q98 0 149 57q45 51 61 147z" />
    <glyph glyph-name="three" unicode="3" horiz-adv-x="1152" 
d="M96 314q0 68 40 114q40 48 95 48q51 0 82.5 -26t31.5 -68q0 -67 -73 -101q-57 -27 -57 -69q0 -86 88 -131t213 -45q85 0 147 38t97 101q35 64 51.5 136t16.5 153q0 78 -13.5 144.5t-43.5 124.5t-85 91.5t-133 33.5q-57 0 -93 -16q-38 -57 -69 -86.5t-66 -29.5
q-30 0 -46 15.5t-16 39.5q0 46 54 78t129 43l345 378h-379q-83 0 -128 -62q-44 -60 -56 -145h-46l36 364h737l1 -45l-447 -486l1 -3q22 3 43 3q216 0 350 -117q133 -117 133 -311q0 -147 -72 -259q-36 -57 -84 -100t-105 -71.5t-122 -43t-135 -14.5q-59 0 -111 8t-99 25
q-47 18 -86 46t-67 65t-43.5 82t-15.5 98z" />
    <glyph glyph-name="four" unicode="4" horiz-adv-x="1152" 
d="M674 -378v378h-536v26q22 100 45 189t47 173q25 85 58 188t76 232q234 700 338 700q38 0 97 -45t59 -69q0 -26 -123 -200q-122 -173 -205 -317q-84 -146 -161 -328q-92 -215 -153 -498h458v576l168 138h16v-714h238v-51h-238v-378h-184z" />
    <glyph glyph-name="five" unicode="5" horiz-adv-x="1152" 
d="M134 282q0 34 10.5 62t28.5 47.5t42.5 30t52.5 10.5q58 0 84 -32t26 -68q0 -32 -10.5 -54t-34.5 -46q-33 -33 -33 -62q0 -68 65 -103t163 -35q97 0 164 67q69 69 99.5 167.5t30.5 219.5q0 173 -76 274q-77 102 -232 102q-69 0 -118 -11q-44 -11 -94 -43
q-11 -57 -27 -87.5t-44 -30.5q-21 0 -33.5 11.5t-12.5 30.5q0 56 69 97l136 623l34 12q36 -39 108 -73q73 -33 124 -33q42 0 78.5 8.5t69 27t63 47t60.5 67.5l34 -20q-78 -140 -179 -208t-216 -68q-48 0 -92.5 4.5t-86.5 14.5l-76 -364l4 -5q94 48 243 48q203 0 337 -117
q133 -117 133 -298q0 -227 -141 -369q-137 -140 -369 -140q-94 0 -181 32q-43 17 -79.5 43t-65.5 61q-58 70 -58 160z" />
    <glyph glyph-name="six" unicode="6" horiz-adv-x="1152" 
d="M136 564q0 90 13 182t40 189t62 175.5t77 141.5q95 141 203 196q109 54 243 54q118 0 186 -71t68 -152q0 -33 -8.5 -60.5t-24 -47.5t-36.5 -31t-45 -11q-19 0 -36.5 5.5t-30.5 16t-21 24.5t-8 32q0 20 7 44t24 52q25 42 25 78q0 73 -126 73q-110 0 -198 -99
q-88 -100 -141 -257t-69 -354l10 -3q120 158 304 158q100 0 173.5 -34t115.5 -92t60.5 -126t18.5 -146q0 -138 -58 -254q-58 -118 -164 -191q-103 -70 -233 -70q-72 0 -131 18t-108 56q-100 78 -146 205.5t-46 298.5zM332 450q0 -211 56.5 -314.5t183.5 -103.5
q109 0 183 150q75 150 75 364q0 79 -12.5 136.5t-39.5 95t-70 55.5t-103 18q-72 0 -145 -55q-72 -54 -103 -149q-12 -38 -18.5 -87t-6.5 -110z" />
    <glyph glyph-name="seven" unicode="7" horiz-adv-x="1152" 
d="M230 521h-48l36 364h738v-45l-28 -143q-9 -45 -25.5 -119t-42.5 -183t-49.5 -196.5t-46.5 -159.5q-11 -33 -20.5 -61t-17.5 -51l-39 -112q-12 -34 -22 -62t-20 -51q-9 -23 -19.5 -47.5l-22.5 -52.5q-24 -55 -46 -90t-46 -67t-49 -47t-49 -15q-32 0 -72 31q-41 32 -41 65
q0 41 31 87q16 23 44 59.5t70 85.5q65 76 128 179t125 234q56 119 106 281q25 81 45 161.5t35 161.5h-472q-81 0 -128 -62q-45 -61 -54 -145z" />
    <glyph glyph-name="eight" unicode="8" horiz-adv-x="1152" 
d="M140 316q0 120 85 229q85 111 205 180v6q-244 97 -244 334q0 121 54 210q55 91 139 133t187 42q142 0 244 -81t102 -211q0 -53 -16 -99.5t-46 -88t-73 -79.5t-97 -74v-4q81 -31 136.5 -63t101.5 -76q48 -45 70 -103.5t22 -134.5q0 -116 -56 -220q-56 -103 -157 -167
q-51 -32 -106.5 -47t-118.5 -15q-119 0 -214 35q-48 18 -87 46.5t-70 66.5q-61 76 -61 181zM272 318q0 -128 85 -207q85 -78 215 -78q124 0 219 93q95 95 95 222q0 101 -49 161q-25 30 -65 57.5t-98 53.5l-202 90q-29 -25 -54.5 -49.5t-46.5 -50.5q-20 -24 -38 -56
t-31.5 -69.5t-21.5 -79.5t-8 -87zM294 1140q0 -54 14 -93t47 -68q17 -15 33 -26.5t32 -20.5t38 -19.5t50 -22.5l133 -57q155 119 155 315q0 114 -73 184t-193 70q-95 0 -166 -74q-70 -73 -70 -188z" />
    <glyph glyph-name="nine" unicode="9" horiz-adv-x="1152" 
d="M124 -384q0 33 8.5 60.5t24 47.5t36.5 31t45 11q19 0 36.5 -5.5t30.5 -16t21 -24.5t8 -32q0 -20 -7 -44t-24 -52q-25 -42 -25 -78q0 -73 126 -73q108 0 197 99q89 98 142 257t69 352l-10 3q-119 -156 -304 -156q-100 0 -173.5 33t-115.5 91t-60.5 126t-18.5 146
q0 138 58 254q58 118 163 190q106 73 234 73q140 0 238 -77q100 -78 146.5 -205t46.5 -298q0 -91 -14 -183t-40 -186q-27 -96 -61 -175t-77 -142q-94 -142 -204 -196q-108 -54 -242 -54q-119 0 -187 71q-67 70 -67 152zM322 347q0 -79 12.5 -136.5t39.5 -95t70 -55.5
t103 -18q72 0 145 55q72 54 103 149q12 38 18.5 87t6.5 110q0 211 -56.5 314.5t-183.5 103.5q-111 0 -184 -150q-74 -149 -74 -364z" />
    <glyph glyph-name="colon" unicode=":" horiz-adv-x="528" 
d="M173 13q-37 37 -37 91t37 91t91 37t91 -37t37 -91t-37 -91q-38 -35 -91 -35t-91 35zM173 681q-37 37 -37 91t37 91t91 37t91 -37t37 -91t-37 -91q-38 -35 -91 -35t-91 35z" />
    <glyph glyph-name="semicolon" unicode=";" horiz-adv-x="528" 
d="M173 681q-37 37 -37 91t37 91t91 37t91 -37t37 -91t-37 -91q-38 -35 -91 -35t-91 35zM133 -422l-31 34q34 30 65.5 64t58.5 68.5t47.5 68.5t34.5 65q20 44 20 97q0 51 -84 51q-45 0 -78 23.5t-33 76.5q0 27 9 49t25 37.5t36.5 24.5t44.5 9q84 0 121 -52q39 -53 39 -127
q0 -108 -73 -239q-37 -66 -86.5 -128t-115.5 -122z" />
    <glyph glyph-name="less" unicode="&#x3c;" horiz-adv-x="1152" 
d="M1068 64l-44 -86l-940 488v96l940 490l44 -88l-869 -450z" />
    <glyph glyph-name="equal" unicode="=" horiz-adv-x="1152" 
d="M1090 406v-96h-1028v96h1028zM1090 718v-96h-1028v96h1028z" />
    <glyph glyph-name="greater" unicode="&#x3e;" horiz-adv-x="1152" 
d="M1068 466l-940 -488l-44 86l869 450l-869 450l44 88l940 -490v-96z" />
    <glyph glyph-name="question" unicode="?" horiz-adv-x="852" 
d="M144 1309q0 90 74 146q75 57 179 57q112 0 199 -69t129.5 -171t42.5 -217q0 -97 -28 -170.5t-74 -115.5t-96 -61.5t-104 -19.5q-74 0 -122 30l-4 -4v-375h-72v497h34q20 -41 46 -62q47 -38 122 -38q150 0 150 352q0 66 -10 131.5t-35.5 118t-68 85.5t-107.5 33
q-67 0 -89 -54q-12 -29 -12 -100q0 -74 -70 -74q-40 0 -62 21.5t-22 59.5zM211 13q-37 37 -37 91t37 91t91 37t91 -37t37 -91t-37 -91q-38 -35 -91 -35t-91 35z" />
    <glyph glyph-name="at" unicode="@" horiz-adv-x="1716" 
d="M60 371q0 176 54 325q55 149 146 253q68 79 153 139t178.5 100.5t193.5 60.5t198 19q138 -1 264 -53q126 -53 216 -141q45 -44 81.5 -96.5t62 -111.5t39.5 -122t14 -128q0 -273 -129 -451q-127 -175 -319 -175q-103 0 -152 58q-49 61 -52 147l-10 3q-35 -80 -112 -145
q-75 -63 -167 -63q-118 0 -190 78q-73 79 -73 220q0 72 13 138t41 129q54 122 162 203q107 80 245 80q67 0 115 -56q48 -57 58 -130l19 4l47 170h140l-143 -502q-29 -101 -29 -162q0 -54 20 -82t75 -28q146 0 245 147q100 148 100 371q0 136 -48.5 253t-130.5 202t-192 132
t-235 47q-145 0 -277.5 -55t-241.5 -158q-107 -101 -171 -259q-64 -155 -64 -345q0 -140 38.5 -255.5t104.5 -198.5q103 -129 249 -194t312 -65q91 0 179.5 23.5t158.5 61.5q72 40 125.5 80t95.5 85l48 -63q-45 -45 -100.5 -85.5t-133.5 -83.5q-76 -42 -173.5 -66
t-203.5 -24q-121 0 -240.5 33.5t-228.5 100.5q-54 34 -102 73t-90 85q-85 91 -134 213.5t-49 263.5zM602 247q0 -38 5.5 -75.5t19.5 -67.5t37.5 -48.5t58.5 -18.5q65 0 125 54q60 52 101 133q20 40 36 81t28 84q24 87 24 156q0 214 -138 214q-74 0 -142 -65
q-66 -65 -104 -163q-14 -38 -24.5 -72t-15.5 -65q-5 -32 -8 -68.5t-3 -78.5z" />
    <glyph glyph-name="A" unicode="A" horiz-adv-x="1534" 
d="M552 52v-52h-496v52h218l462 1410h60l524 -1410h182v-52h-672v52h250l-170 460h-418l-150 -460h210zM890 564l-202 545l-180 -545h382z" />
    <glyph glyph-name="B" unicode="B" horiz-adv-x="1340" 
d="M758 0h-636v52h192v1330h-192v52h628q230 0 341.5 -91.5t111.5 -254.5q0 -119 -85 -201t-217 -107v-12q170 -21 267 -121q98 -101 98 -253q0 -185 -137 -290q-137 -104 -371 -104zM782 748h-260v-696h216q294 0 294 352q0 81 -15 144.5t-46 108t-78 68t-111 23.5z
M734 1382h-212v-582h260q107 0 159 76q54 76 54 200q0 61 -12 111.5t-40 96.5q-27 46 -80.5 72t-128.5 26z" />
    <glyph glyph-name="C" unicode="C" horiz-adv-x="1486" 
d="M146 712q0 138 38 256.5t104 209.5q49 67 111 120t132.5 90t147.5 56t155 18q76 -1 145 -12t135 -35q60 -22 94 -22q30 0 47 16.5t35 52.5h44v-471h-44q-34 145 -113 254q-23 32 -48 57t-66 51q-41 27 -99 42t-130 15q-217 0 -336 -179q-118 -178 -118 -519
q0 -340 118 -514t336 -174q72 0 130.5 15t98.5 41q41 27 66 52t48 57q79 109 113 254h44v-469h-44q-12 23 -21 34q-8 12 -24 22.5t-37 10.5q-34 0 -94 -22q-128 -45 -280 -45q-134 0 -255.5 49t-218.5 143q-98 93 -156 235q-58 140 -58 311z" />
    <glyph glyph-name="D" unicode="D" horiz-adv-x="1568" 
d="M841 0h-719v52h192v1330h-192v52h719q91 0 179.5 -28.5t170.5 -88.5q42 -31 78 -66t66 -77q63 -85 100 -203t37 -259t-37 -257.5t-100 -201.5q-47 -62 -105.5 -109.5t-122.5 -79.5t-132 -48t-134 -16zM795 1382h-273v-1330h273q100 0 178 36t127 96t81 146
q32 87 44.5 179t12.5 203t-13 204t-44 181q-23 64 -57.5 116.5t-81.5 90t-108.5 58t-138.5 20.5z" />
    <glyph glyph-name="E" unicode="E" horiz-adv-x="1426" 
d="M1334 447l-6 -447h-1206v52h192v1330h-192v52h1120l10 -376h-52q-8 39 -15 65q-3 12 -10 30.5t-16.5 39.5t-22 43t-26.5 42q-74 104 -228 104h-360v-606h186q99 0 170 108q22 34 38 95q16 58 16 89h48v-634h-48q0 31 -16 89q-16 61 -38 95q-70 106 -170 106h-186v-672
h337q223 0 321 135q48 65 67 119q10 27 18.5 61.5t16.5 79.5h52z" />
    <glyph glyph-name="F" unicode="F" horiz-adv-x="1320" 
d="M714 52v-52h-592v52h192v1330h-192v52h1120l22 -456h-52q-34 190 -109 289q-88 115 -243 115h-338v-606h172q106 0 170 106q11 19 20.5 46t17.5 62t12 60.5t4 40.5h48v-682h-48q0 15 -4 40.5t-12 60.5t-17.5 62t-20.5 46q-64 106 -170 106h-172v-672h192z" />
    <glyph glyph-name="G" unicode="G" horiz-adv-x="1560" 
d="M146 712q0 138 38 256.5t104 209.5q49 67 111 120t132.5 90t147.5 56t155 18q76 -1 145 -12t135 -35q60 -22 94 -22q30 0 47 16.5t35 52.5h44v-471h-44q-34 145 -113 254q-23 32 -48 57t-66 51q-41 27 -99 42t-130 15q-217 0 -336 -179q-118 -178 -118 -519
q0 -340 118 -514t336 -174q151 0 235 98q85 97 85 244v146h-282v52h716v-52h-214l-1 -512h-44q-14 34 -32.5 51.5t-49.5 17.5q-40 0 -117 -31q-159 -64 -296 -64q-134 0 -255.5 49t-218.5 143q-98 93 -156 235q-58 140 -58 311z" />
    <glyph glyph-name="H" unicode="H" horiz-adv-x="1580" 
d="M714 52v-52h-592v52h192v1330h-192v52h592v-52h-192v-604h576v604h-192v52h592v-52h-192v-1330h192v-52h-592v52h192v674h-576v-674h192z" />
    <glyph glyph-name="I" unicode="I" horiz-adv-x="796" 
d="M714 52v-52h-592v52h192v1330h-192v52h592v-52h-192v-1330h192z" />
    <glyph glyph-name="J" unicode="J" horiz-adv-x="930" 
d="M96 192q0 56 37 96q37 42 93 42q48 0 75 -27t27 -70q0 -38 -32 -86q-11 -17 -17.5 -33.5t-6.5 -30.5q0 -21 16.5 -35t45.5 -14q32 0 55.5 12t35.5 30q21 32 27 71t6 81v1154h-192v52h592v-52h-192v-996q0 -73 -17 -145t-57 -129t-106 -92.5t-164 -35.5q-100 0 -162 53
q-64 55 -64 155z" />
    <glyph glyph-name="K" unicode="K" horiz-adv-x="1598" 
d="M714 52v-52h-592v52h192v1330h-192v52h592v-52h-192v-625l102 47l471 578h-232v52h505v-52h-203l-383 -470l617 -860h175v-52h-681v52h240l-498 694l-113 -52v-642h192z" />
    <glyph glyph-name="L" unicode="L" horiz-adv-x="1376" 
d="M1304 540l-22 -540h-1160v52h192v1330h-192v52h592v-52h-192v-1330h298q102 0 176 31t128 107q28 40 48.5 80t33.5 82q26 85 38 188h60z" />
    <glyph glyph-name="M" unicode="M" horiz-adv-x="1814" 
d="M574 52v-52h-472v52h204v1330h-204v52h483l348 -1100l365 1100h434v-52h-192v-1330h192v-52h-592v52h192v1280h-4l-453 -1358h-60l-425 1341q-12 36 -12 67h-8v-1330h204z" />
    <glyph glyph-name="N" unicode="N" horiz-adv-x="1526" 
d="M574 52v-52h-472v52h204v1330h-204v52h498l610 -1003v951h-204v52h472v-52h-204v-1408h-60l-821 1348q-17 29 -17 60h-6v-1330h204z" />
    <glyph glyph-name="O" unicode="O" horiz-adv-x="1618" 
d="M146 712q0 138 38 256.5t104 209.5q49 67 111 120t132.5 89.5t147.5 56t155 18.5q106 -2 205.5 -33t187.5 -97t153 -154q66 -91 104 -209.5t38 -256.5q0 -166 -59 -311q-59 -143 -155 -235q-97 -94 -218.5 -143t-255.5 -49t-255.5 49t-218.5 143q-98 93 -156 235
q-58 140 -58 311zM380 712q0 -340 118 -514t336 -174t336 174t118 514t-119 519t-335 179q-217 0 -336 -179q-118 -178 -118 -519z" />
    <glyph glyph-name="P" unicode="P" horiz-adv-x="1362" 
d="M714 52v-52h-592v52h192v1330h-192v52h626q96 0 187 -28q94 -28 157 -76q190 -145 190 -364q0 -172 -120 -275q-118 -103 -304 -103h-336v-536h192zM710 1382h-188v-742h316q66 0 108.5 25.5t67.5 70.5t34.5 108t9.5 138q0 54 -8 103t-27 101q-19 54 -56 97.5t-91 70.5
q-55 28 -166 28z" />
    <glyph glyph-name="Q" unicode="Q" horiz-adv-x="1618" 
d="M146 712q0 138 38 256.5t104 209.5q49 67 111 120t132.5 89.5t147.5 56t155 18.5q106 -2 205.5 -33t187.5 -97t153 -154q66 -91 104 -209.5t38 -256.5q0 -166 -59 -311q-59 -143 -155 -235q-97 -94 -218.5 -143t-255.5 -49q-30 0 -45 4l-2 -5q30 -18 61 -49
q44 -45 134 -56q81 -10 138.5 -43.5t103.5 -101.5q36 -52 56 -75q10 -11 24 -22t31 -22q49 -30 123 -30q62 0 126 26l18 -48q-84 -32 -190 -32q-124 0 -240 25q-118 25 -180 67q-108 73 -163 203q-14 34 -27 57.5t-34 51.5q-41 54 -112 74q-103 26 -192.5 85.5t-161.5 147.5
t-114 211.5t-42 269.5zM380 712q0 -340 118 -514t336 -174t336 174t118 514t-119 519t-335 179q-217 0 -336 -179q-118 -178 -118 -519z" />
    <glyph glyph-name="R" unicode="R" horiz-adv-x="1490" 
d="M714 52v-52h-592v52h192v1330h-192v52h604q115 0 202 -30t138 -82q51 -51 75.5 -111.5t24.5 -127.5q0 -130 -76 -208.5t-208 -108.5v-12q153 -24 233 -107q81 -83 81 -193v-218q0 -105 35 -148.5t116 -43.5q55 0 119 23l12 -50q-51 -15 -103 -23t-106 -8q-49 0 -94 10.5
t-90 36.5t-71 78t-26 124v234q0 114 -61 190q-60 77 -181 77h-224v-684h192zM710 1382h-188v-594h256q54 0 90.5 21t55.5 60q19 40 26.5 86.5t7.5 109.5q0 118 -55 214q-28 48 -77.5 75.5t-115.5 27.5z" />
    <glyph glyph-name="S" unicode="S" horiz-adv-x="1272" 
d="M242 -26h-44l-10 502h44q29 -153 113 -268q63 -88 151 -136t194 -48q153 0 239 77q87 76 87 211q0 126 -87.5 208t-276.5 130q-72 18 -128 38.5t-113 53.5q-83 48 -130.5 121t-48.5 186q-2 93 27.5 167t87.5 132q115 114 317 114q90 0 164 -31q37 -16 62 -23t39 -7
q42 0 55 61h44l4 -371h-44q-17 49 -40.5 96t-54.5 92q-37 55 -106 93q-68 38 -136 38q-129 0 -205 -73q-78 -74 -78 -176q0 -51 22 -92.5t53 -68.5q15 -13 36 -26t48 -26q26 -12 49.5 -21t43.5 -16q20 -6 45.5 -13.5t56.5 -15.5q110 -30 187.5 -66.5t136.5 -90.5
q60 -54 89 -130t29 -179q0 -199 -138 -322q-135 -120 -339 -120q-117 0 -251 61q-57 27 -79 27q-23 0 -39 -4.5t-29 -15t-24 -27t-23 -41.5z" />
    <glyph glyph-name="T" unicode="T" horiz-adv-x="1564" 
d="M186 846h-52l24 588h1308l24 -588h-52q-22 244 -110 374q-110 162 -284 162h-128v-1330h192v-52h-592v52h192v1330h-128q-175 0 -284 -162q-88 -130 -110 -374z" />
    <glyph glyph-name="U" unicode="U" horiz-adv-x="1540" 
d="M280 436v946h-192v52h592v-52h-192v-1058q0 -88 24.5 -148t69.5 -92q46 -33 100 -46.5t124 -13.5q192 0 304 100q114 100 114 290v968h-204v52h472v-52h-204v-976q0 -211 -130 -323q-127 -109 -352 -109q-526 0 -526 462z" />
    <glyph glyph-name="V" unicode="V" horiz-adv-x="1534" 
d="M774 -26l-524 1408h-182v52h672v-52h-250l392 -1057l346 1057h-210v52h496v-52h-218l-462 -1408h-60z" />
    <glyph glyph-name="W" unicode="W" horiz-adv-x="2160" 
d="M706 -26l-480 1408h-158v52h596v-52h-204l363 -1068l299 868l-67 200h-169v52h596v-52h-196l348 -1042l303 1042h-219v52h422v-52h-144l-410 -1408h-60l-374 1117l-386 -1117h-60z" />
    <glyph glyph-name="X" unicode="X" horiz-adv-x="1566" 
d="M622 52v-52h-550v52h216l419 660l-424 670h-211v52h716v-52h-252l298 -470l299 470h-205v52h488v-52h-217l-332 -523l512 -807h155v-52h-720v52h312l-385 608l-387 -608h268z" />
    <glyph glyph-name="Y" unicode="Y" horiz-adv-x="1462" 
d="M688 592l-429 790h-191v52h672v-52h-240l362 -665l332 665h-212v52h460v-52h-182l-364 -734v-596h192v-52h-592v52h192v540z" />
    <glyph glyph-name="Z" unicode="Z" horiz-adv-x="1400" 
d="M212 921h-52l42 513h1022v-44l-793 -1338h391q94 0 176 43q83 43 130 113q53 79 76 138q22 54 46 167h52l-22 -513h-1106v48l793 1334h-353q-94 0 -161 -32.5t-118 -107.5q-23 -33 -41 -67.5t-32 -70.5q-14 -35 -26 -80.5t-24 -102.5z" />
    <glyph glyph-name="bracketleft" unicode="[" horiz-adv-x="780" 
d="M684 -466v-52h-452v2014h452v-52h-306v-1910h306z" />
    <glyph glyph-name="backslash" unicode="\" horiz-adv-x="722" 
d="M642 -518h-102l-460 1952h102z" />
    <glyph glyph-name="bracketright" unicode="]" horiz-adv-x="780" 
d="M548 -518h-452v52h306v1910h-306v52h452v-2014z" />
    <glyph glyph-name="asciicircum" unicode="^" horiz-adv-x="1152" 
d="M521 1361l-419 -625h-60l486 726h96l486 -726h-171z" />
    <glyph glyph-name="underscore" unicode="_" horiz-adv-x="1024" 
d="M1024 -350h-1024v96h1024v-96z" />
    <glyph glyph-name="grave" unicode="`" horiz-adv-x="880" 
d="M260 1396q0 28 18.5 47t50.5 19q65 0 103 -101l106 -289l-32 -18l-195 234q-51 61 -51 108z" />
    <glyph glyph-name="a" unicode="a" horiz-adv-x="990" 
d="M112 193q0 120 65.5 179t185.5 74q39 5 72 12t60 18q28 11 55.5 25.5t55.5 32.5v106q0 73 -35 138q-19 34 -55.5 54t-88.5 20q-59 0 -106 -26q-46 -25 -46 -67q0 -22 14 -53q7 -16 11 -31.5t4 -30.5q0 -29 -21.5 -50.5t-63.5 -21.5q-48 0 -71.5 25.5t-23.5 68.5
q0 92 91 162q91 72 221 72q174 0 254 -93q80 -92 80 -245v-403q0 -61 28.5 -89t71.5 -28q16 0 32 1.5t32 5.5l8 -49q-51 -14 -85 -14q-48 0 -86.5 7t-68.5 23q-58 31 -86 125h-8q-48 -74 -108.5 -114.5t-153.5 -40.5q-107 0 -170 54q-64 55 -64 153zM286 209
q0 -153 142 -153q52 0 98 39.5t80 102.5v289q-24 -16 -46.5 -27.5t-44.5 -19.5q-45 -16 -124 -36q-105 -27 -105 -195z" />
    <glyph glyph-name="b" unicode="b" horiz-adv-x="1150" 
d="M384 162v-162h-306v48h142v1400h-142v48h306v-774l14 -2q106 180 287 180q98 0 181 -50q91 -55 139.5 -159t48.5 -249t-48.5 -249t-139.5 -159q-40 -25 -85 -36.5t-96 -11.5q-181 0 -287 178zM630 44q84 0 139 55q57 57 79 142.5t22 200.5q0 112 -23 201q-11 43 -30.5 79
t-47 62.5t-62.5 41t-77 14.5q-96 0 -171 -112q-75 -111 -75 -286t75 -287q75 -111 171 -111z" />
    <glyph glyph-name="c" unicode="c" horiz-adv-x="944" 
d="M96 432q0 94 33.5 179t92 149t138.5 102t174 38q72 0 131 -24t94 -61q36 -38 53.5 -77t17.5 -75q0 -24 -7 -46t-20.5 -38.5t-33.5 -26.5t-45 -10q-30 0 -48.5 11.5t-27 31t-6.5 45t13 52.5q13 32 13 71q0 18 -8.5 36t-26 32t-44 22.5t-62.5 8.5q-119 0 -183 -108
q-64 -106 -64 -284q0 -193 70 -305q71 -113 206 -113q69 0 115 28.5t73.5 71.5t39 93.5t12.5 94.5h52q-1 -48 -8.5 -92t-30.5 -92q-11 -23 -25 -44t-31 -38q-34 -35 -92.5 -56.5t-134.5 -21.5q-196 0 -312 122q-118 124 -118 324z" />
    <glyph glyph-name="d" unicode="d" horiz-adv-x="1140" 
d="M284 850q83 50 181 50q180 0 287 -180l14 2v726h-206v48h370v-1448h142v-48h-306v162l-14 2q-106 -178 -287 -178q-51 0 -96 11.5t-85 36.5q-91 55 -139.5 159t-48.5 249t48.5 249t139.5 159zM520 44q96 0 171 111q75 112 75 287t-75 286q-75 112 -171 112
q-84 0 -140 -56q-55 -55 -77.5 -141t-22.5 -201q0 -119 22 -201q22 -86 78 -142q55 -55 140 -55z" />
    <glyph glyph-name="e" unicode="e" horiz-adv-x="962" 
d="M96 430q-2 97 29 183t88 150t137.5 101t178.5 36q81 -1 147 -32t108 -82t64 -109.5t22 -116.5q0 -43 -15 -61.5t-59 -18.5h-516q0 -432 276 -432q108 0 175 70t81 180h52q-8 -116 -86 -211q-39 -46 -104.5 -73.5t-147.5 -27.5q-189 0 -308 122q-61 63 -90.5 142.5
t-31.5 179.5zM281 528h350q42 0 54.5 23t12.5 74q0 92 -47 160q-46 67 -143 67q-62 0 -104.5 -29.5t-69 -76t-39 -104.5t-14.5 -114z" />
    <glyph glyph-name="f" unicode="f" horiz-adv-x="698" 
d="M230 48v788h-146v48h146v70q0 219 89 362q54 87 135 141q82 55 166 55q91 0 153 -48q61 -48 61 -132q0 -61 -28.5 -95t-70.5 -34q-76 0 -76 71q0 22 9 60q4 16 6 29t2 24q0 35 -16.5 56t-63.5 21q-86 0 -144 -105q-58 -103 -58 -303v-172h216v-48h-216v-788h142v-48h-448
v48h142z" />
    <glyph glyph-name="g" unicode="g" horiz-adv-x="1160" 
d="M128 -374q0 75 52.5 132.5t161.5 112.5v7q-18 0 -37.5 2.5t-51.5 13.5q-21 6 -40.5 18.5t-34.5 31.5t-24.5 46.5t-9.5 63.5q-1 48 11 91.5t35 80.5t55.5 66t73.5 48v4q-125 95 -125 240q0 136 105 226t253 90q85 0 156 -30t122 -84q43 61 75 87q31 27 81 27q60 0 93 -36
t33 -90q0 -32 -18.5 -56t-47.5 -24q-31 0 -45 19t-19 55q-5 32 -12.5 46.5t-26.5 14.5q-48 0 -92 -68q59 -74 59 -177q0 -136 -105 -226t-253 -90q-107 0 -196 50q-132 -56 -132 -178q0 -48 37 -74t109 -26q45 0 161 15q112 15 161 15q139 0 205.5 -75t66.5 -206
q0 -174 -129 -295q-131 -122 -329 -122q-68 0 -135.5 14.5t-121.5 45.5t-87.5 79t-33.5 115zM254 -379q0 -67 40 -112q41 -45 96.5 -61t125.5 -16q85 0 147.5 25.5t99.5 70.5q73 88 73 200q0 31 -9.5 63.5t-32 58t-60 42t-93.5 16.5q-72 0 -230 -28q-75 -49 -116 -110.5
t-41 -148.5zM412 786q-54 -74 -54 -202q0 -129 54 -201q54 -71 140 -71t140 71q54 72 54 201q0 128 -54 202t-140 74t-140 -74z" />
    <glyph glyph-name="h" unicode="h" horiz-adv-x="1166" 
d="M526 48v-48h-448v48h142v1400h-142v48h306v-822l12 -3q48 112 128.5 170.5t183.5 58.5q124 0 193 -85q63 -78 63 -207v-560h142v-48h-448v48h142v596q0 184 -164 184q-32 0 -60.5 -11.5t-53.5 -31.5t-45.5 -47.5t-36.5 -60.5q-17 -33 -28.5 -64t-16.5 -60
q-6 -31 -8.5 -66t-2.5 -75v-364h142z" />
    <glyph glyph-name="i" unicode="i" horiz-adv-x="600" 
d="M532 48v-48h-448v48h142v788h-142v48h306v-836h142zM226 1270q-36 36 -36 88t36 88t88 36t88 -36t36 -88t-36 -88t-88 -36t-88 36z" />
    <glyph glyph-name="j" unicode="j" horiz-adv-x="580" 
d="M-112 -402q0 61 28.5 93t70.5 32q32 0 53 -18.5t21 -55.5q0 -27 -9 -64q-10 -41 -10 -71q0 -43 20.5 -68.5t65.5 -25.5q63 0 86.5 64t23.5 189v1163h-142v48h306v-1041q0 -220 -79 -344q-78 -125 -212 -125q-89 0 -156 63t-67 161zM224 1270q-36 36 -36 88t36 88t88 36
t88 -36t36 -88t-36 -88t-88 -36t-88 36z" />
    <glyph glyph-name="k" unicode="k" horiz-adv-x="1156" 
d="M526 48v-48h-448v48h142v1400h-142v48h306v-1000h84l276 340h-146v48h354v-48h-144l-207 -257l377 -531h126v-48h-496v48h165l-279 400h-110v-400h142z" />
    <glyph glyph-name="l" unicode="l" horiz-adv-x="594" 
d="M526 48v-48h-448v48h142v1400h-142v48h306v-1448h142z" />
    <glyph glyph-name="m" unicode="m" horiz-adv-x="1704" 
d="M532 48v-48h-448v48h142v788h-142v48h306v-201l10 -3q99 220 288 220q58 0 103.5 -21.5t72.5 -57.5t42.5 -71.5t23.5 -74.5h13q93 225 288 225q69 0 123 -26t85 -69q31 -42 47 -90t16 -96v-571h142v-48h-448v48h142v594q0 42 -11 76t-32 58.5t-52 38t-71 13.5
q-58 0 -106 -39t-77 -100q-20 -41 -30 -91q-10 -49 -12 -85q-1 -18 -1 -43.5v-57.5v-364h142v-48h-448v48h142v578q0 202 -148 202q-120 0 -188 -134q-33 -65 -44.5 -130.5t-11.5 -151.5v-364h142z" />
    <glyph glyph-name="n" unicode="n" horiz-adv-x="1172" 
d="M532 48v-48h-448v48h142v788h-142v48h306v-210l12 -3q48 112 128.5 170.5t183.5 58.5q124 0 193 -85q63 -78 63 -207v-560h142v-48h-448v48h142v596q0 184 -164 184q-32 0 -60.5 -11.5t-53.5 -31.5t-45.5 -47.5t-36.5 -60.5q-17 -33 -28.5 -64t-16.5 -60q-6 -31 -8.5 -66
t-2.5 -75v-364h142z" />
    <glyph glyph-name="o" unicode="o" horiz-adv-x="1040" 
d="M218 114q-122 131 -122 328t122 328q123 130 302 130q180 0 301 -130q123 -131 123 -328q0 -198 -123 -328q-119 -128 -301 -128q-181 0 -302 128zM340 753q-60 -99 -60 -311t60 -311q61 -99 180 -99q117 0 179 99q61 99 61 311t-61 311q-62 99 -179 99q-119 0 -180 -99z
" />
    <glyph glyph-name="p" unicode="p" horiz-adv-x="1140" 
d="M580 -610h-512v48h142v1398h-142v48h306v-162l14 -2q106 180 287 180q98 0 181 -50q91 -55 139.5 -159t48.5 -249t-48.5 -249t-139.5 -159q-40 -25 -85 -36.5t-96 -11.5q-181 0 -287 178l-14 -2v-724h206v-48zM620 44q84 0 139 55q57 57 79 142.5t22 200.5q0 112 -23 201
q-11 43 -30.5 79t-47 62.5t-62.5 41t-77 14.5q-96 0 -171 -112q-75 -111 -75 -286t75 -287q75 -111 171 -111z" />
    <glyph glyph-name="q" unicode="q" horiz-adv-x="1140" 
d="M284 850q83 50 181 50q163 0 266 -148h9l80 132h252v-48h-142v-1398h142v-48h-512v48h206v724l-14 2q-106 -178 -287 -178q-51 0 -96 11.5t-85 36.5q-91 55 -139.5 159t-48.5 249t48.5 249t139.5 159zM520 44q96 0 171 111q75 112 75 287t-75 286q-75 112 -171 112
q-84 0 -140 -56q-55 -55 -77.5 -141t-22.5 -201q0 -119 22 -201q22 -86 78 -142q55 -55 140 -55z" />
    <glyph glyph-name="r" unicode="r" horiz-adv-x="884" 
d="M532 48v-48h-448v48h142v788h-142v48h306v-210l10 -3q51 123 110 176q62 53 152 53q36 0 65 -12t50 -33.5t32 -51t11 -63.5q0 -53 -27 -93q-27 -39 -75 -39q-25 0 -43.5 15t-18.5 41t9 67q7 29 7 57q0 56 -61 56q-54 0 -91 -37t-70 -104q-60 -119 -60 -291v-364h142z" />
    <glyph glyph-name="s" unicode="s" horiz-adv-x="840" 
d="M159 -14h-33v346h36q11 -35 21.5 -63t22 -52.5t24 -47t27.5 -45.5q62 -92 167 -92q103 0 157.5 38.5t54.5 111.5q0 72 -53 114q-53 44 -191 87q-65 20 -108 41t-81 53q-75 63 -75 187q0 107 70 171q71 65 166 65q75 0 155 -31q40 -15 56 -15q50 0 75 46h35v-281h-40
q-31 85 -72 139q-36 49 -85.5 71.5t-129.5 22.5q-29 0 -52 -10t-39.5 -26.5t-25.5 -39t-9 -46.5q0 -32 10 -56.5t27 -42.5t48 -34q17 -8 32.5 -15.5t29.5 -13.5q15 -6 36 -13.5t47 -16.5q161 -56 227 -117q67 -61 67 -169q0 -121 -81 -194q-78 -72 -247 -72q-34 0 -69 5.5
t-73 15.5q-25 8 -45.5 11t-37.5 3q-30 0 -44 -35z" />
    <glyph glyph-name="t" unicode="t" horiz-adv-x="770" 
d="M230 196v640h-174v48h174v196q60 0 84.5 8.5t32.5 32.5q11 28 21 35q11 8 47 8q-11 -73 -17 -142t-6 -138h228v-48h-228v-646q0 -69 28 -95.5t86 -26.5q61 0 96 62t40 142h48q-4 -54 -19.5 -105.5t-44.5 -91.5t-73.5 -64.5t-105.5 -24.5q-41 0 -80 10.5t-69.5 35t-49 65
t-18.5 99.5z" />
    <glyph glyph-name="u" unicode="u" horiz-adv-x="1156" 
d="M202 276v560h-142v48h306v-644q0 -184 164 -184q31 0 60 11.5t53.5 31.5t45.5 47.5t37 60.5q34 69 44 124q12 58 12 141v364h-142v48h306v-836h142v-48h-306v210l-12 3q-48 -112 -128.5 -169.5t-183.5 -57.5q-126 0 -193 83q-63 78 -63 207z" />
    <glyph glyph-name="v" unicode="v" horiz-adv-x="980" 
d="M489 -16l-332 852h-117v48h436v-48h-142l237 -610l220 610h-129v48h282v-48h-102l-309 -852h-44z" />
    <glyph glyph-name="w" unicode="w" horiz-adv-x="1498" 
d="M463 -16l-306 852h-117v48h436v-48h-142l219 -610l197 501l-39 109h-117v48h436v-48h-142l216 -596l205 596h-129v48h282v-48h-102l-295 -852h-44l-247 678l-267 -678h-44z" />
    <glyph glyph-name="x" unicode="x" horiz-adv-x="1100" 
d="M441 56v-56h-381v56h165l253 359l-268 413h-117v56h455v-56h-144l174 -271l191 271h-125v56h318v-56h-135l-221 -315l294 -457h164v-56h-527v56h174l-205 315l-221 -315h156z" />
    <glyph glyph-name="y" unicode="y" horiz-adv-x="1024" 
d="M-4 -463q0 49 27.5 80t76.5 31q35 0 55.5 -20.5t20.5 -47.5q0 -14 -8 -51q-8 -34 -8 -52q0 -49 68 -49q51 0 84.5 45.5t60.5 123.5l133 386l-348 853h-118v48h458v-48h-162l252 -620l214 620h-123v48h309v-48h-129l-432 -1242q-7 -19 -12.5 -34t-11.5 -29t-13 -27.5
t-17 -29.5q-19 -32 -43 -53q-23 -20 -59 -34.5t-81 -14.5q-85 0 -140 43q-54 41 -54 122z" />
    <glyph glyph-name="z" unicode="z" horiz-adv-x="934" 
d="M128 580h-44l22 304h660v-54l-460 -782h225q137 0 209 124q49 84 70 206h44l-14 -378h-720v56l459 780h-211q-57 0 -96.5 -16t-72.5 -58q-44 -56 -71 -182z" />
    <glyph glyph-name="braceleft" unicode="{" horiz-adv-x="780" 
d="M182 466v44q233 0 233 223q0 71 -38 225q-20 84 -30.5 146t-10.5 105q0 133 93 208q94 76 253 95l10 -54q-110 -18 -167 -56t-57 -115q0 -87 38 -236q41 -159 41 -235q0 -144 -63 -223q-64 -81 -164 -103v-4q101 -23 164 -104q63 -80 63 -223q0 -77 -41 -233
q-38 -149 -38 -236q0 -77 56.5 -114.5t167.5 -55.5l-10 -54q-159 19 -253 95q-93 75 -93 208q0 85 41 249q38 154 38 225q0 223 -233 223z" />
    <glyph glyph-name="bar" unicode="|" horiz-adv-x="512" 
d="M310 1434v-1952h-108v1952h108z" />
    <glyph glyph-name="braceright" unicode="}" horiz-adv-x="780" 
d="M98 -534l-10 54q110 18 167 56t57 115q0 87 -38 236q-41 156 -41 233q0 143 63 223q64 81 164 103v4q-100 22 -164 103q-63 81 -63 224q0 76 41 235q38 149 38 236q0 77 -56.5 114.5t-167.5 55.5l10 54q159 -20 252 -95q94 -76 94 -208q0 -43 -10.5 -105t-30.5 -146
q-38 -154 -38 -225q0 -223 233 -223v-44q-233 0 -233 -223q0 -71 38 -225q41 -164 41 -249q0 -132 -94 -208q-93 -75 -252 -95z" />
    <glyph glyph-name="asciitilde" unicode="~" horiz-adv-x="1152" 
d="M148 394l-36 28q130 208 308 208q36 0 80 -11q38 -10 65 -23q12 -6 27.5 -13.5t35.5 -18.5q18 -10 32 -17t25 -12q21 -10 54 -19.5t63 -9.5q69 0 112 31q22 16 44.5 40.5t45.5 56.5l36 -28q-130 -208 -308 -208q-29 0 -54 4.5t-49.5 12.5t-50 20.5t-54.5 28.5
q-106 58 -174 58t-112 -32t-90 -96z" />
    <glyph glyph-name="nonbreakingspace" unicode="&#xa0;" horiz-adv-x="528" 
 />
    <glyph glyph-name="exclamdown" unicode="&#xa1;" horiz-adv-x="528" 
d="M126 -457q0 104 24 247q14 85 25 158.5t18 140.5l43 405h56l43 -405q7 -67 18 -140.5t25 -158.5q24 -143 24 -247q0 -36 -9 -67t-26 -53.5t-43 -35.5t-60 -13t-60 13t-43 35.5t-26 53.5t-9 67zM173 689q-37 37 -37 91t37 91t91 37t91 -37t37 -91t-37 -91t-91 -37t-91 37z
" />
    <glyph glyph-name="cent" unicode="&#xa2;" horiz-adv-x="1152" 
d="M456 16l-198 -564h-62l207 590q-97 55 -150 155.5t-53 234.5q0 94 33.5 179t92 149t138.5 102t174 38q16 0 31.5 -1.5t31.5 -3.5l189 539h62l-194 -554q84 -30 130 -94q46 -61 46 -123q0 -24 -7 -46t-20.5 -38.5t-33.5 -26.5t-45 -10q-30 0 -48.5 11.5t-27 31t-6.5 45
t13 52.5q13 32 13 71t-35 68l-248 -711q68 -68 171 -68q69 0 115 28.5t73.5 71.5t39 93.5t12.5 94.5h52q-1 -48 -8.5 -92t-30.5 -92q-11 -23 -25 -44t-31 -38q-34 -35 -92.5 -56.5t-134.5 -21.5q-92 0 -174 30zM384 460q0 -187 63 -293l237 679q-23 6 -53 6
q-119 0 -183 -108q-64 -106 -64 -284z" />
    <glyph glyph-name="sterling" unicode="&#xa3;" horiz-adv-x="1420" 
d="M68 138q0 75 57 122q55 46 139 46q72 0 134 -15q32 -8 70 -19t86 -27q20 51 20 103q0 164 -53 318h-309v64h294q-10 48 -14.5 93.5t-5.5 90.5q-2 115 41.5 213.5t120 170.5t179 112.5t219.5 39.5q123 -2 201 -69q81 -69 81 -174q0 -92 -56 -151q-55 -58 -125 -58
q-57 0 -100 30q-44 32 -44 86q0 22 8 40t20.5 30.5t29 19t34.5 6.5q42 0 70 -31q24 -25 46 -25q18 0 33.5 21.5t15.5 66.5q0 60 -56 110t-162 50q-138 0 -205 -103q-68 -102 -91 -293q-5 -48 -9.5 -115.5t-7.5 -160.5h313v-64h-316q-9 -167 -27 -258q-9 -46 -25 -93.5
t-39 -96.5q180 -54 338 -54q70 0 114 38q45 37 45 93q0 69 -43 111l40 31q30 -30 50.5 -75t20.5 -94q0 -126 -67 -205q-64 -77 -198 -77q-60 0 -110.5 8.5t-99.5 31.5q-24 11 -43.5 21.5t-34.5 18.5q-15 9 -36 22.5t-47 30.5q-127 -133 -306 -133q-79 0 -135 38
q-55 40 -55 114zM132 139q0 -29 10 -49t27 -33t39.5 -19t47.5 -6q79 0 143 34t107 91q-40 26 -73.5 45.5t-61.5 31.5q-56 24 -115 24q-27 0 -50 -9t-39.5 -25t-25.5 -38t-9 -47z" />
    <glyph glyph-name="currency" unicode="&#xa4;" horiz-adv-x="1152" 
d="M323 191l-120 -121l-69 69l121 120q-83 110 -83 253q0 145 84 253l-122 122l68 69l122 -123q107 83 252 83q143 0 253 -83l121 123l68 -70l-121 -121q83 -107 83 -253q0 -145 -83 -252l121 -121l-68 -69l-121 122q-108 -84 -253 -84q-146 0 -253 83zM349 739
q-89 -89 -89 -227t89 -227t227 -89t227 89t89 227t-89 227t-227 89t-227 -89z" />
    <glyph glyph-name="yen" unicode="&#xa5;" horiz-adv-x="1152" 
d="M443 792l-307 594h-112v48h436v-48h-142l301 -581l303 581h-136v48h318v-48h-127l-308 -594h321v-64h-332v-188h332v-64h-332v-428h142v-48h-448v48h142v428h-334v64h334v154l-18 34h-316v64h283z" />
    <glyph glyph-name="brokenbar" unicode="&#xa6;" horiz-adv-x="512" 
d="M310 -518h-108v766h108v-766zM310 1434v-768h-108v768h108z" />
    <glyph glyph-name="section" unicode="&#xa7;" horiz-adv-x="1042" 
d="M158 -254q0 76 49 125q50 50 108 50q48 0 76.5 -25.5t28.5 -70.5q0 -36 -18 -58.5t-48 -42.5q-13 -9 -23.5 -16.5t-17.5 -16.5t-11.5 -21.5t-5.5 -30.5q-2 -29 12.5 -51.5t41.5 -39.5q55 -34 138 -34q74 0 124 26t80 65.5t43 85.5t13 86q0 46 -14 89t-34 77
q-19 34 -57 70q-19 20 -34.5 36t-32.5 30l-81 67q-35 29 -63.5 53t-50.5 44q-22 21 -45 47t-48 57q-98 125 -98 289q0 149 104 265q-81 112 -81 229q0 93 49 167q51 75 125.5 114t162.5 39q153 0 242 -77q88 -76 88 -194q0 -62 -44 -109q-44 -45 -103 -45q-45 0 -74.5 25
t-29.5 67q0 59 68 98q43 25 43 67q0 51 -48.5 85.5t-139.5 34.5q-32 0 -70.5 -10t-72 -33.5t-56 -61.5t-22.5 -95q0 -42 14 -80.5t32 -68.5q19 -30 54 -66q18 -18 33.5 -33t29.5 -26l73 -60q28 -23 49.5 -41t38.5 -32t35.5 -33.5t40.5 -43.5q42 -47 67 -92q24 -43 41 -104
t17 -130q0 -39 -5.5 -74t-17 -67t-29.5 -63.5t-43 -64.5q91 -115 91 -255q0 -52 -12.5 -104.5t-38.5 -107.5q-19 -39 -47.5 -73.5t-67.5 -60.5t-87.5 -41t-108.5 -15q-143 0 -238 80q-94 79 -94 200zM246 694q0 -66 80 -161q78 -92 200 -189q73 -58 124 -104.5t82 -81.5
q68 86 68 173q0 68 -73 156q-37 45 -83.5 89.5t-104.5 91.5q-152 122 -218 199q-75 -80 -75 -173z" />
    <glyph glyph-name="dieresis" unicode="&#xa8;" horiz-adv-x="880" 
d="M169 1139q-27 27 -27 69t27 69t69 27t69 -27t27 -69t-27 -69t-69 -27t-69 27zM573 1139q-27 27 -27 69t27 69t69 27t69 -27t27 -69t-27 -69t-69 -27t-69 27z" />
    <glyph glyph-name="copyright" unicode="&#xa9;" horiz-adv-x="1672" 
d="M125 444q-61 143 -61 300t61 300q123 288 411 411q143 61 300 61t300 -61q288 -123 411 -411q61 -143 61 -300t-61 -300q-123 -290 -411 -411q-144 -59 -300 -59t-300 59q-288 121 -411 411zM184 1019q-57 -133 -57 -275t57 -275q113 -264 377 -377q133 -57 275 -57
t275 57q264 113 377 377q57 133 57 275t-57 275q-113 264 -377 377q-133 57 -275 57t-275 -57q-264 -113 -377 -377zM842 1214q79 0 168 -33q55 -20 72 -20q37 0 48 53h28v-324h-36q-25 103 -73 171q-74 105 -207 105q-132 0 -199 -105.5t-67 -316.5t67 -316.5t199 -105.5
q133 0 207 105q48 68 73 171h36v-324h-28q-11 53 -48 53q-17 0 -72 -20q-89 -33 -168 -33q-85 0 -165.5 32.5t-144.5 92.5q-63 60 -101.5 149.5t-38.5 195.5t38.5 195.5t101.5 149.5q64 60 144.5 92.5t165.5 32.5z" />
    <glyph glyph-name="ordfeminine" unicode="&#xaa;" horiz-adv-x="780" 
d="M164 1035q0 72 41.5 107t119.5 44q82 10 147 51v58q0 115 -109 115q-36 0 -63.5 -14.5t-27.5 -37.5q0 -7 2.5 -14.5t6.5 -15.5q6 -13 8 -26.5t-3 -24t-17.5 -17.5t-34.5 -7q-62 0 -62 55q0 54 56 96q55 42 137 42q110 0 162.5 -53.5t52.5 -140.5v-231q0 -35 17 -51
t43 -16q19 0 39 5l7 -39q-27 -10 -56 -10q-61 0 -98.5 21t-54.5 81h-5q-30 -48 -68.5 -75t-96.5 -27q-66 0 -104.5 33.5t-38.5 91.5zM280 1048q0 -84 84 -84q61 0 108 80v165q-45 -29 -130 -51q-62 -15 -62 -110z" />
    <glyph glyph-name="guillemotleft" unicode="&#xab;" horiz-adv-x="942" 
d="M399 718l25 -39q-118 -73 -118 -237t118 -237l-25 -39q-99 48 -154 113t-55 163t55 163t154 113zM695 718l25 -39q-118 -73 -118 -237t118 -237l-25 -39q-99 48 -154 113t-55 163t55 163t154 113z" />
    <glyph glyph-name="logicalnot" unicode="&#xac;" horiz-adv-x="1152" 
d="M978 274v376h-916v96h1028v-472h-112z" />
    <glyph glyph-name="uni00AD" unicode="&#xad;" horiz-adv-x="900" 
d="M764 478v-132h-628v132h628z" />
    <glyph glyph-name="registered" unicode="&#xae;" horiz-adv-x="1672" 
d="M125 444q-61 143 -61 300t61 300q123 288 411 411q143 61 300 61t300 -61q288 -123 411 -411q61 -143 61 -300t-61 -300q-123 -290 -411 -411q-144 -59 -300 -59t-300 59q-288 121 -411 411zM184 1019q-57 -133 -57 -275t57 -275q113 -264 377 -377q133 -57 275 -57
t275 57q264 113 377 377q57 133 57 275t-57 275q-113 264 -377 377q-133 57 -275 57t-275 -57q-264 -113 -377 -377zM862 350v-48h-448v48h142v788h-142v48h456q148 0 221 -64q73 -63 73 -152t-59.5 -135.5t-172.5 -60.5v-11q57 -7 100 -23.5t72.5 -40t44.5 -52.5t15 -62
v-129q0 -63 20 -88t71 -25q37 0 69 16l14 -42q-68 -30 -147 -30q-30 0 -63.5 6.5t-62 23.5t-47 46.5t-18.5 76.5v143q0 34 -9 64t-27.5 52t-45.5 34.5t-63 12.5h-135v-396h142zM855 1138h-135v-344h149q31 0 55.5 12t41 33.5t25.5 51t9 64.5q0 75 -36 129q-35 54 -109 54z
" />
    <glyph glyph-name="macron" unicode="&#xaf;" horiz-adv-x="880" 
d="M728 1222v-88h-576v88h576z" />
    <glyph glyph-name="degree" unicode="&#xb0;" horiz-adv-x="1152" 
d="M307 850q-107 107 -107 268t107 268q106 106 269 106t269 -106q107 -107 107 -268t-107 -268q-106 -106 -269 -106t-269 106zM365 1328q-85 -84 -85 -210t85 -210t211 -84q125 0 211 84q85 84 85 210t-85 210q-86 84 -211 84q-126 0 -211 -84z" />
    <glyph glyph-name="plusminus" unicode="&#xb1;" horiz-adv-x="1152" 
d="M522 96v466h-460v96h460v466h108v-466h460v-96h-460v-466h-108zM1090 3v-96h-1028v96h1028z" />
    <glyph glyph-name="twosuperior" unicode="&#xb2;" horiz-adv-x="660" 
d="M60 1222q0 98 65 169q66 71 180 71q123 0 194 -68q69 -68 69 -165q0 -76 -41 -145.5t-123 -145.5q-90 -84 -190 -159l2 -7h235q62 0 91 62q8 18 14.5 38t11.5 42h30l-20 -254h-492v46q25 20 45 35.5t34 27.5q29 25 71 66.5t84 90.5q108 127 108 276q0 196 -180 196
q-67 0 -109 -48q-41 -47 -41 -113q0 -48 27 -75.5t76 -27.5q39 0 58 21.5t19 50.5q0 24 -9 41l19 12q24 -35 24 -86q0 -48 -28 -85q-29 -38 -84 -38q-67 0 -103.5 45t-36.5 127z" />
    <glyph glyph-name="threesuperior" unicode="&#xb3;" horiz-adv-x="660" 
d="M84 809q0 42 24 70.5t64 28.5q23 0 37.5 -14t14.5 -35q0 -32 -38 -61q-23 -17 -23 -41q0 -35 41 -58q40 -21 96 -21q81 0 120 61q40 61 40 153q0 42 -8 77.5t-25.5 61t-44 39.5t-62.5 14q-55 0 -97 -39l-21 21l263 267l-3 5h-205q-40 0 -66 -10t-42 -41q-28 -54 -35 -117
h-24l7 272h433q38 0 73 29l19 -23l-325 -328l2 -3q13 3 39 3q103 0 183 -60q79 -60 79 -168q0 -115 -89 -183q-88 -67 -209 -67q-89 0 -154 44q-64 43 -64 123z" />
    <glyph glyph-name="acute" unicode="&#xb4;" horiz-adv-x="880" 
d="M569 1288l-195 -234l-32 18l106 289q38 101 103 101q32 0 50.5 -19t18.5 -47q0 -47 -51 -108z" />
    <glyph glyph-name="mu" unicode="&#xb5;" horiz-adv-x="1220" 
d="M126 -350q0 88 11.5 250t34.5 406q-18 139 -18 335q0 255 130 255q39 0 58.5 -30.5t19.5 -84.5q0 -72 -23 -172q-11 -48 -24 -91t-29 -81q-35 -86 -54 -193q43 -72 101.5 -102.5t140.5 -30.5q61 0 108 38.5t73 98.5q13 29 24 64.5t19 78.5q17 84 22.5 159t5.5 159
q0 75 29 131q30 56 87 56q52 0 77 -43t25 -101q0 -56 -42 -222q-38 -150 -51 -233q45 -128 177 -128q42 0 72.5 23.5t44.5 62.5q43 -42 43 -104q0 -65 -34 -114q-32 -47 -90 -47q-150 0 -226 246l-9 2q-37 -109 -107 -181q-67 -67 -158 -67q-55 0 -101.5 10.5t-86.5 33.5
q-79 46 -151 156l-7 -2q-10 -54 -15 -100t-5 -84q0 -218 87 -389q47 -92 47 -141q0 -101 -80 -101q-66 0 -96 66.5t-30 210.5z" />
    <glyph glyph-name="paragraph" unicode="&#xb6;" horiz-adv-x="1188" 
d="M142 1054q0 48 11.5 93.5t36.5 89.5q48 86 135 142q85 55 189 55h586v-64h-228v-1888h-88v1888h-238v-1888h-88v1192q-140 18 -228 126q-88 106 -88 254z" />
    <glyph glyph-name="periodcentered" unicode="&#xb7;" horiz-adv-x="352" 
d="M89 505q-37 37 -37 91t37 91t91 37t91 -37t37 -91t-37 -91q-38 -35 -91 -35t-91 35z" />
    <glyph glyph-name="cedilla" unicode="&#xb8;" horiz-adv-x="1006" 
d="M228 -335q0 43 24.5 70t59.5 27q26 0 40 -14t14 -34q0 -31 -26 -54q-24 -21 -24 -48q0 -44 80 -44q52 0 84 53q30 51 30 109q0 57 -76 79q-54 16 -54 47q0 17 25 66l49 -14q-14 -26 -14 -38q0 -11 8 -16t32 -12q26 -8 49 -21.5t40 -32.5t27 -43t10 -53q0 -73 -40 -116
q-50 -56 -148 -56q-80 0 -136 38q-54 37 -54 107z" />
    <glyph glyph-name="onesuperior" unicode="&#xb9;" horiz-adv-x="660" 
d="M146 1064l-26 24q144 144 214 354h86v-746h126v-36h-380v36h126v541l-9 2q-32 -51 -66 -94t-71 -81z" />
    <glyph glyph-name="ordmasculine" unicode="&#xba;" horiz-adv-x="780" 
d="M201 986q-77 77 -77 192t77 192q76 76 189 76t189 -76q77 -77 77 -192t-77 -192q-76 -76 -189 -76t-189 76zM390 1413q-146 0 -146 -235t146 -235t146 235t-146 235z" />
    <glyph glyph-name="guillemotright" unicode="&#xbb;" horiz-adv-x="942" 
d="M543 166l-25 39q118 73 118 237t-118 237l25 39q99 -48 154 -113t55 -163t-55 -163t-154 -113zM247 166l-25 39q118 73 118 237t-118 237l25 39q99 -48 154 -113t55 -163t-55 -163t-154 -113z" />
    <glyph glyph-name="onequarter" unicode="&#xbc;" horiz-adv-x="1540" 
d="M1258 1462l-892 -1476h-82l890 1476h84zM1212 8v206h-268v19q23 31 41 59t32 54t26.5 56t22.5 64q36 121 36 296q0 22 2 36.5t9 31.5q13 36 69 36q31 0 46.5 -21.5t15.5 -55.5q0 -103 -127 -335q-64 -120 -125 -204l2 -6h218v173l99 121h29v-294h40q21 0 33 15t24 42
q8 20 14 39.5t9 39.5h16l-28 -166h-108v-206h-128zM146 1064l-26 24q144 144 214 354h86v-746h126v-36h-380v36h126v541l-9 2q-32 -51 -66 -94t-71 -81z" />
    <glyph glyph-name="onehalf" unicode="&#xbd;" horiz-adv-x="1540" 
d="M1258 1462l-892 -1476h-82l890 1476h84zM940 570q0 98 65 169q66 71 180 71q123 0 194 -68q69 -68 69 -165q0 -76 -41 -145.5t-123 -145.5q-90 -84 -190 -159l2 -7h235q62 0 91 62q8 18 14.5 38t11.5 42h30l-20 -254h-492v46q25 20 45 35.5t34 27.5q29 25 71 66.5
t84 90.5q108 127 108 276q0 196 -180 196q-67 0 -109 -48q-41 -47 -41 -113q0 -48 27 -75.5t76 -27.5q39 0 58 21.5t19 50.5q0 24 -9 41l19 12q24 -35 24 -86q0 -48 -28 -85q-29 -38 -84 -38q-67 0 -103.5 45t-36.5 127zM146 1064l-26 24q144 144 214 354h86v-746h126v-36
h-380v36h126v541l-9 2q-32 -51 -66 -94t-71 -81z" />
    <glyph glyph-name="threequarters" unicode="&#xbe;" horiz-adv-x="1540" 
d="M1258 1462l-892 -1476h-82l890 1476h84zM1212 8v206h-268v19q23 31 41 59t32 54t26.5 56t22.5 64q36 121 36 296q0 22 2 36.5t9 31.5q13 36 69 36q31 0 46.5 -21.5t15.5 -55.5q0 -103 -127 -335q-64 -120 -125 -204l2 -6h218v173l99 121h29v-294h40q21 0 33 15t24 42
q8 20 14 39.5t9 39.5h16l-28 -166h-108v-206h-128zM84 809q0 42 24 70.5t64 28.5q23 0 37.5 -14t14.5 -35q0 -32 -38 -61q-23 -17 -23 -41q0 -35 41 -58q40 -21 96 -21q81 0 120 61q40 61 40 153q0 42 -8 77.5t-25.5 61t-44 39.5t-62.5 14q-55 0 -97 -39l-21 21l263 267
l-3 5h-205q-40 0 -66 -10t-42 -41q-28 -54 -35 -117h-24l7 272h433q38 0 73 29l19 -23l-325 -328l2 -3q13 3 39 3q103 0 183 -60q79 -60 79 -168q0 -115 -89 -183q-88 -67 -209 -67q-89 0 -154 44q-64 43 -64 123z" />
    <glyph glyph-name="questiondown" unicode="&#xbf;" horiz-adv-x="852" 
d="M84 -169q0 97 28 169t74 114t96 62t104 20q74 0 122 -30l4 4v375h72v-497h-34q-20 41 -46 62q-47 38 -122 38q-150 0 -150 -350q0 -66 10 -131.5t35.5 -118t68 -85.5t107.5 -33q66 0 89 54q12 28 12 100q0 74 70 74q40 0 62 -21.5t22 -59.5q0 -89 -75 -146t-178 -57
q-113 0 -200 69t-129 171t-42 217zM459 689q-37 37 -37 91t37 91t91 37t91 -37t37 -91t-37 -91t-91 -37t-91 37z" />
    <glyph glyph-name="Agrave" unicode="&#xc0;" horiz-adv-x="1534" 
d="M466 1818q0 26 17.5 48t44.5 22q61 0 130 -64l256 -239l-22 -29l-314 148q-112 52 -112 114zM552 52v-52h-496v52h218l462 1410h60l524 -1410h182v-52h-672v52h250l-170 460h-418l-150 -460h210zM890 564l-202 545l-180 -545h382z" />
    <glyph glyph-name="Aacute" unicode="&#xc1;" horiz-adv-x="1534" 
d="M950 1704l-314 -148l-22 29l256 239q69 64 130 64q27 0 44.5 -22t17.5 -48q0 -62 -112 -114zM552 52v-52h-496v52h218l462 1410h60l524 -1410h182v-52h-672v52h250l-170 460h-418l-150 -460h210zM890 564l-202 545l-180 -545h382z" />
    <glyph glyph-name="Acircumflex" unicode="&#xc2;" horiz-adv-x="1534" 
d="M730 1815l-230 -251h-54l297 324h100l301 -324h-181zM552 52v-52h-496v52h218l462 1410h60l524 -1410h182v-52h-672v52h250l-170 460h-418l-150 -460h210zM890 564l-202 545l-180 -545h382z" />
    <glyph glyph-name="Atilde" unicode="&#xc3;" horiz-adv-x="1534" 
d="M438 1617l-46 18q73 183 224 183q34 0 74 -8q19 -4 32.5 -8t23.5 -8q19 -8 54 -24q16 -8 29 -13.5t24 -10.5q21 -8 57 -16t73 -8q44 0 70 32q13 17 20 30t17 35l46 -18q-74 -183 -224 -183q-32 0 -75 8q-18 4 -32 8t-24 8t-23 10t-30 14q-33 16 -54 24q-20 8 -56 16
t-73 8q-45 0 -70 -33q-12 -16 -19.5 -29t-17.5 -35zM552 52v-52h-496v52h218l462 1410h60l524 -1410h182v-52h-672v52h250l-170 460h-418l-150 -460h210zM890 564l-202 545l-180 -545h382z" />
    <glyph glyph-name="Adieresis" unicode="&#xc4;" horiz-adv-x="1534" 
d="M453 1659q-13 13 -19.5 29.5t-6 33.5t7 32.5t18.5 27.5q13 12 29 18t33 6t33 -6t28 -18q26 -25 26 -60t-26 -63q-26 -27 -61 -27.5t-62 27.5zM951 1659q-13 13 -19.5 29.5t-6 33.5t7 32.5t18.5 27.5q13 12 29 18t33 6t33 -6t28 -18q26 -25 26 -60t-26 -63
q-26 -27 -61 -27.5t-62 27.5zM552 52v-52h-496v52h218l462 1410h60l524 -1410h182v-52h-672v52h250l-170 460h-418l-150 -460h210zM890 564l-202 545l-180 -545h382z" />
    <glyph glyph-name="Aring" unicode="&#xc5;" horiz-adv-x="1534" 
d="M573 1592q-75 55 -75 146q0 90 75 146q77 56 191 56t191 -56q75 -56 75 -146q0 -91 -75 -146q-77 -56 -191 -56t-191 56zM616 1837q-54 -38 -54 -99q0 -63 54 -100q54 -38 148 -38t148 38q54 37 54 100q0 61 -54 99q-54 39 -148 39t-148 -39zM552 52v-52h-496v52h218
l462 1410h60l524 -1410h182v-52h-672v52h250l-170 460h-418l-150 -460h210zM890 564l-202 545l-180 -545h382z" />
    <glyph glyph-name="AE" unicode="&#xc6;" horiz-adv-x="2236" 
d="M598 52v-52h-550v52h221l792 1330h-207v52h1224l10 -376h-52q-8 39 -15 65q-3 12 -10 30.5t-16.5 39.5t-22 43t-26.5 42q-74 104 -228 104h-360v-606h186q99 0 170 108q22 34 38 95q16 58 16 89h48v-634h-48q0 31 -16 89q-16 61 -38 95q-70 106 -170 106h-186v-672h337
q223 0 321 135q48 65 67 119q10 27 18.5 61.5t16.5 79.5h52l-6 -447h-1206v52h192v672h-402l-401 -672h251zM1150 1382h-11l-361 -606h372v606z" />
    <glyph glyph-name="Ccedilla" unicode="&#xc7;" horiz-adv-x="1486" 
d="M576 -418q0 27 8 49t22.5 37.5t33.5 24.5t40 9q31 0 49 -18t18 -43q0 -41 -34 -69q-31 -28 -31 -62q0 -56 97 -56q32 0 62 19t48 50q33 55 33 141q0 40 -22.5 64.5t-70.5 38.5q-65 20 -65 56q0 25 32 87l60 -19q-20 -45 -20 -55q0 -13 10.5 -19.5t41.5 -16.5
q63 -20 108 -66q46 -46 46 -119q0 -85 -50 -144q-59 -69 -186 -69q-96 0 -164 47q-66 46 -66 133zM146 712q0 138 38 256.5t104 209.5q49 67 111 120t132.5 90t147.5 56t155 18q76 -1 145 -12t135 -35q60 -22 94 -22q30 0 47 16.5t35 52.5h44v-471h-44q-34 145 -113 254
q-23 32 -48 57t-66 51q-41 27 -99 42t-130 15q-217 0 -336 -179q-118 -178 -118 -519q0 -340 118 -514t336 -174q72 0 130.5 15t98.5 41q41 27 66 52t48 57q79 109 113 254h44v-469h-44q-12 23 -21 34q-8 12 -24 22.5t-37 10.5q-34 0 -94 -22q-128 -45 -280 -45
q-134 0 -255.5 49t-218.5 143q-98 93 -156 235q-58 140 -58 311z" />
    <glyph glyph-name="Egrave" unicode="&#xc8;" horiz-adv-x="1426" 
d="M436 1818q0 26 17.5 48t44.5 22q61 0 130 -64l256 -239l-22 -29l-314 148q-112 52 -112 114zM1334 447l-6 -447h-1206v52h192v1330h-192v52h1120l10 -376h-52q-8 39 -15 65q-3 12 -10 30.5t-16.5 39.5t-22 43t-26.5 42q-74 104 -228 104h-360v-606h186q99 0 170 108
q22 34 38 95q16 58 16 89h48v-634h-48q0 31 -16 89q-16 61 -38 95q-70 106 -170 106h-186v-672h337q223 0 321 135q48 65 67 119q10 27 18.5 61.5t16.5 79.5h52z" />
    <glyph glyph-name="Eacute" unicode="&#xc9;" horiz-adv-x="1426" 
d="M920 1704l-314 -148l-22 29l256 239q69 64 130 64q27 0 44.5 -22t17.5 -48q0 -62 -112 -114zM1334 447l-6 -447h-1206v52h192v1330h-192v52h1120l10 -376h-52q-8 39 -15 65q-3 12 -10 30.5t-16.5 39.5t-22 43t-26.5 42q-74 104 -228 104h-360v-606h186q99 0 170 108
q22 34 38 95q16 58 16 89h48v-634h-48q0 31 -16 89q-16 61 -38 95q-70 106 -170 106h-186v-672h337q223 0 321 135q48 65 67 119q10 27 18.5 61.5t16.5 79.5h52z" />
    <glyph glyph-name="Ecircumflex" unicode="&#xca;" horiz-adv-x="1426" 
d="M700 1815l-230 -251h-54l297 324h100l301 -324h-181zM1334 447l-6 -447h-1206v52h192v1330h-192v52h1120l10 -376h-52q-8 39 -15 65q-3 12 -10 30.5t-16.5 39.5t-22 43t-26.5 42q-74 104 -228 104h-360v-606h186q99 0 170 108q22 34 38 95q16 58 16 89h48v-634h-48
q0 31 -16 89q-16 61 -38 95q-70 106 -170 106h-186v-672h337q223 0 321 135q48 65 67 119q10 27 18.5 61.5t16.5 79.5h52z" />
    <glyph glyph-name="Edieresis" unicode="&#xcb;" horiz-adv-x="1426" 
d="M423 1659q-13 13 -19.5 29.5t-6 33.5t7 32.5t18.5 27.5q13 12 29 18t33 6t33 -6t28 -18q26 -25 26 -60t-26 -63q-26 -27 -61 -27.5t-62 27.5zM921 1659q-13 13 -19.5 29.5t-6 33.5t7 32.5t18.5 27.5q13 12 29 18t33 6t33 -6t28 -18q26 -25 26 -60t-26 -63
q-26 -27 -61 -27.5t-62 27.5zM1334 447l-6 -447h-1206v52h192v1330h-192v52h1120l10 -376h-52q-8 39 -15 65q-3 12 -10 30.5t-16.5 39.5t-22 43t-26.5 42q-74 104 -228 104h-360v-606h186q99 0 170 108q22 34 38 95q16 58 16 89h48v-634h-48q0 31 -16 89q-16 61 -38 95
q-70 106 -170 106h-186v-672h337q223 0 321 135q48 65 67 119q10 27 18.5 61.5t16.5 79.5h52z" />
    <glyph glyph-name="Igrave" unicode="&#xcc;" horiz-adv-x="796" 
d="M124 1818q0 26 17.5 48t44.5 22q61 0 130 -64l256 -239l-22 -29l-314 148q-112 52 -112 114zM714 52v-52h-592v52h192v1330h-192v52h592v-52h-192v-1330h192z" />
    <glyph glyph-name="Iacute" unicode="&#xcd;" horiz-adv-x="796" 
d="M608 1704l-314 -148l-22 29l256 239q69 64 130 64q27 0 44.5 -22t17.5 -48q0 -62 -112 -114zM714 52v-52h-592v52h192v1330h-192v52h592v-52h-192v-1330h192z" />
    <glyph glyph-name="Icircumflex" unicode="&#xce;" horiz-adv-x="796" 
d="M388 1815l-230 -251h-54l297 324h100l301 -324h-181zM714 52v-52h-592v52h192v1330h-192v52h592v-52h-192v-1330h192z" />
    <glyph glyph-name="Idieresis" unicode="&#xcf;" horiz-adv-x="796" 
d="M111 1659q-13 13 -19.5 29.5t-6 33.5t7 32.5t18.5 27.5q13 12 29 18t33 6t33 -6t28 -18q26 -25 26 -60t-26 -63q-26 -27 -61 -27.5t-62 27.5zM609 1659q-13 13 -19.5 29.5t-6 33.5t7 32.5t18.5 27.5q13 12 29 18t33 6t33 -6t28 -18q26 -25 26 -60t-26 -63
q-26 -27 -61 -27.5t-62 27.5zM714 52v-52h-592v52h192v1330h-192v52h592v-52h-192v-1330h192z" />
    <glyph glyph-name="Eth" unicode="&#xd0;" horiz-adv-x="1568" 
d="M314 52v662h-210v64h210v604h-192v52h719q91 0 179.5 -28.5t170.5 -88.5q42 -31 78 -66t66 -77q63 -85 100 -203t37 -259t-37 -257.5t-100 -201.5q-47 -62 -105.5 -109.5t-122.5 -79.5t-132 -48t-134 -16h-719v52h192zM809 714h-287v-662h273q100 0 178 36t127 96t81 146
q32 87 44.5 179t12.5 203t-13 204t-44 181q-23 64 -57.5 116.5t-81.5 90t-108.5 58t-138.5 20.5h-273v-604h287v-64z" />
    <glyph glyph-name="Ntilde" unicode="&#xd1;" horiz-adv-x="1526" 
d="M494 1617l-46 18q73 183 224 183q34 0 74 -8q19 -4 32.5 -8t23.5 -8q19 -8 54 -24q16 -8 29 -13.5t24 -10.5q21 -8 57 -16t73 -8q44 0 70 32q13 17 20 30t17 35l46 -18q-74 -183 -224 -183q-32 0 -75 8q-18 4 -32 8t-24 8t-23 10t-30 14q-33 16 -54 24q-20 8 -56 16
t-73 8q-45 0 -70 -33q-12 -16 -19.5 -29t-17.5 -35zM574 52v-52h-472v52h204v1330h-204v52h498l610 -1003v951h-204v52h472v-52h-204v-1408h-60l-821 1348q-17 29 -17 60h-6v-1330h204z" />
    <glyph glyph-name="Ograve" unicode="&#xd2;" horiz-adv-x="1618" 
d="M536 1818q0 26 17.5 48t44.5 22q61 0 130 -64l256 -239l-22 -29l-314 148q-112 52 -112 114zM146 712q0 138 38 256.5t104 209.5q49 67 111 120t132.5 89.5t147.5 56t155 18.5q106 -2 205.5 -33t187.5 -97t153 -154q66 -91 104 -209.5t38 -256.5q0 -166 -59 -311
q-59 -143 -155 -235q-97 -94 -218.5 -143t-255.5 -49t-255.5 49t-218.5 143q-98 93 -156 235q-58 140 -58 311zM380 712q0 -340 118 -514t336 -174t336 174t118 514t-119 519t-335 179q-217 0 -336 -179q-118 -178 -118 -519z" />
    <glyph glyph-name="Oacute" unicode="&#xd3;" horiz-adv-x="1618" 
d="M1020 1704l-314 -148l-22 29l256 239q69 64 130 64q27 0 44.5 -22t17.5 -48q0 -62 -112 -114zM146 712q0 138 38 256.5t104 209.5q49 67 111 120t132.5 89.5t147.5 56t155 18.5q106 -2 205.5 -33t187.5 -97t153 -154q66 -91 104 -209.5t38 -256.5q0 -166 -59 -311
q-59 -143 -155 -235q-97 -94 -218.5 -143t-255.5 -49t-255.5 49t-218.5 143q-98 93 -156 235q-58 140 -58 311zM380 712q0 -340 118 -514t336 -174t336 174t118 514t-119 519t-335 179q-217 0 -336 -179q-118 -178 -118 -519z" />
    <glyph glyph-name="Ocircumflex" unicode="&#xd4;" horiz-adv-x="1618" 
d="M800 1815l-230 -251h-54l297 324h100l301 -324h-181zM146 712q0 138 38 256.5t104 209.5q49 67 111 120t132.5 89.5t147.5 56t155 18.5q106 -2 205.5 -33t187.5 -97t153 -154q66 -91 104 -209.5t38 -256.5q0 -166 -59 -311q-59 -143 -155 -235q-97 -94 -218.5 -143
t-255.5 -49t-255.5 49t-218.5 143q-98 93 -156 235q-58 140 -58 311zM380 712q0 -340 118 -514t336 -174t336 174t118 514t-119 519t-335 179q-217 0 -336 -179q-118 -178 -118 -519z" />
    <glyph glyph-name="Otilde" unicode="&#xd5;" horiz-adv-x="1618" 
d="M508 1617l-46 18q73 183 224 183q34 0 74 -8q19 -4 32.5 -8t23.5 -8q19 -8 54 -24q16 -8 29 -13.5t24 -10.5q21 -8 57 -16t73 -8q44 0 70 32q13 17 20 30t17 35l46 -18q-74 -183 -224 -183q-32 0 -75 8q-18 4 -32 8t-24 8t-23 10t-30 14q-33 16 -54 24q-20 8 -56 16
t-73 8q-45 0 -70 -33q-12 -16 -19.5 -29t-17.5 -35zM146 712q0 138 38 256.5t104 209.5q49 67 111 120t132.5 89.5t147.5 56t155 18.5q106 -2 205.5 -33t187.5 -97t153 -154q66 -91 104 -209.5t38 -256.5q0 -166 -59 -311q-59 -143 -155 -235q-97 -94 -218.5 -143
t-255.5 -49t-255.5 49t-218.5 143q-98 93 -156 235q-58 140 -58 311zM380 712q0 -340 118 -514t336 -174t336 174t118 514t-119 519t-335 179q-217 0 -336 -179q-118 -178 -118 -519z" />
    <glyph glyph-name="Odieresis" unicode="&#xd6;" horiz-adv-x="1618" 
d="M523 1659q-13 13 -19.5 29.5t-6 33.5t7 32.5t18.5 27.5q13 12 29 18t33 6t33 -6t28 -18q26 -25 26 -60t-26 -63q-26 -27 -61 -27.5t-62 27.5zM1021 1659q-13 13 -19.5 29.5t-6 33.5t7 32.5t18.5 27.5q13 12 29 18t33 6t33 -6t28 -18q26 -25 26 -60t-26 -63
q-26 -27 -61 -27.5t-62 27.5zM146 712q0 138 38 256.5t104 209.5q49 67 111 120t132.5 89.5t147.5 56t155 18.5q106 -2 205.5 -33t187.5 -97t153 -154q66 -91 104 -209.5t38 -256.5q0 -166 -59 -311q-59 -143 -155 -235q-97 -94 -218.5 -143t-255.5 -49t-255.5 49
t-218.5 143q-98 93 -156 235q-58 140 -58 311zM380 712q0 -340 118 -514t336 -174t336 174t118 514t-119 519t-335 179q-217 0 -336 -179q-118 -178 -118 -519z" />
    <glyph glyph-name="multiply" unicode="&#xd7;" horiz-adv-x="1152" 
d="M576 445l-330 -329l-67 67l329 330l-329 330l67 67l330 -329l330 329l67 -67l-329 -330l329 -330l-67 -67z" />
    <glyph glyph-name="Oslash" unicode="&#xd8;" horiz-adv-x="1618" 
d="M372 155l-168 -181l-58 48l173 189q-173 203 -173 501q0 138 38 256.5t104 209.5q49 67 111 120t132.5 89.5t147.5 56t155 18.5q128 -2 245.5 -48.5t214.5 -137.5l170 186l58 -50l-175 -192q175 -208 175 -508q0 -166 -59 -311q-59 -143 -155 -235q-97 -94 -218.5 -143
t-255.5 -49q-129 0 -247 45t-215 136zM380 712q0 -225 52 -377l770 840q-115 235 -368 235q-217 0 -336 -179q-118 -178 -118 -519zM1234 1097l-770 -840q116 -233 370 -233q218 0 336 174t118 514q0 226 -54 385z" />
    <glyph glyph-name="Ugrave" unicode="&#xd9;" horiz-adv-x="1540" 
d="M534 1818q0 26 17.5 48t44.5 22q61 0 130 -64l256 -239l-22 -29l-314 148q-112 52 -112 114zM280 436v946h-192v52h592v-52h-192v-1058q0 -88 24.5 -148t69.5 -92q46 -33 100 -46.5t124 -13.5q192 0 304 100q114 100 114 290v968h-204v52h472v-52h-204v-976
q0 -211 -130 -323q-127 -109 -352 -109q-526 0 -526 462z" />
    <glyph glyph-name="Uacute" unicode="&#xda;" horiz-adv-x="1540" 
d="M1018 1704l-314 -148l-22 29l256 239q69 64 130 64q27 0 44.5 -22t17.5 -48q0 -62 -112 -114zM280 436v946h-192v52h592v-52h-192v-1058q0 -88 24.5 -148t69.5 -92q46 -33 100 -46.5t124 -13.5q192 0 304 100q114 100 114 290v968h-204v52h472v-52h-204v-976
q0 -211 -130 -323q-127 -109 -352 -109q-526 0 -526 462z" />
    <glyph glyph-name="Ucircumflex" unicode="&#xdb;" horiz-adv-x="1540" 
d="M798 1815l-230 -251h-54l297 324h100l301 -324h-181zM280 436v946h-192v52h592v-52h-192v-1058q0 -88 24.5 -148t69.5 -92q46 -33 100 -46.5t124 -13.5q192 0 304 100q114 100 114 290v968h-204v52h472v-52h-204v-976q0 -211 -130 -323q-127 -109 -352 -109
q-526 0 -526 462z" />
    <glyph glyph-name="Udieresis" unicode="&#xdc;" horiz-adv-x="1540" 
d="M521 1659q-13 13 -19.5 29.5t-6 33.5t7 32.5t18.5 27.5q13 12 29 18t33 6t33 -6t28 -18q26 -25 26 -60t-26 -63q-26 -27 -61 -27.5t-62 27.5zM1019 1659q-13 13 -19.5 29.5t-6 33.5t7 32.5t18.5 27.5q13 12 29 18t33 6t33 -6t28 -18q26 -25 26 -60t-26 -63
q-26 -27 -61 -27.5t-62 27.5zM280 436v946h-192v52h592v-52h-192v-1058q0 -88 24.5 -148t69.5 -92q46 -33 100 -46.5t124 -13.5q192 0 304 100q114 100 114 290v968h-204v52h472v-52h-204v-976q0 -211 -130 -323q-127 -109 -352 -109q-526 0 -526 462z" />
    <glyph glyph-name="Yacute" unicode="&#xdd;" horiz-adv-x="1462" 
d="M1042 1704l-314 -148l-22 29l256 239q69 64 130 64q27 0 44.5 -22t17.5 -48q0 -62 -112 -114zM688 592l-429 790h-191v52h672v-52h-240l362 -665l332 665h-212v52h460v-52h-182l-364 -734v-596h192v-52h-592v52h192v540z" />
    <glyph glyph-name="Thorn" unicode="&#xde;" horiz-adv-x="1362" 
d="M714 -518h-592v52h192v1442h-192v52h192v354h-192v52h592v-52h-192v-354h226q96 0 187 -28q94 -28 157 -76q190 -145 190 -364q0 -172 -120 -275q-118 -103 -304 -103h-336v-648h192v-52zM710 976h-188v-742h316q66 0 108.5 25.5t67.5 70.5t34.5 108t9.5 138q0 54 -8 103
t-27 101q-19 54 -56 97.5t-91 70.5q-55 28 -166 28z" />
    <glyph glyph-name="germandbls" unicode="&#xdf;" horiz-adv-x="1126" 
d="M384 1056v-1056h-306v48h142v906q0 219 89 362q57 91 139.5 143.5t185.5 52.5q147 0 233 -83t86 -197q0 -137 -97 -231q-96 -95 -244 -123v-8q187 -41 303 -177q115 -136 115 -303q0 -182 -104 -295q-102 -111 -268 -111q-91 0 -152 49q-62 51 -62 137q0 66 37.5 107
t98.5 41q38 0 61 -20.5t23 -56.5q0 -47 -56 -89q-25 -19 -34.5 -33t-9.5 -37q0 -25 28 -38.5t66 -13.5q46 0 81.5 20t59 63t35.5 110.5t12 163.5q0 51 -7.5 105t-24.5 104.5t-43.5 96t-64 79t-86.5 53.5t-112 20h-50v48h50q55 0 102 17.5t89 55.5t66 107t24 163
q0 109 -45 168.5t-130 59.5q-108 0 -169 -101.5t-61 -306.5z" />
    <glyph glyph-name="agrave" unicode="&#xe0;" horiz-adv-x="990" 
d="M264 1396q0 28 18.5 47t50.5 19q65 0 103 -101l106 -289l-32 -18l-195 234q-51 61 -51 108zM112 193q0 120 65.5 179t185.5 74q39 5 72 12t60 18q28 11 55.5 25.5t55.5 32.5v106q0 73 -35 138q-19 34 -55.5 54t-88.5 20q-59 0 -106 -26q-46 -25 -46 -67q0 -22 14 -53
q7 -16 11 -31.5t4 -30.5q0 -29 -21.5 -50.5t-63.5 -21.5q-48 0 -71.5 25.5t-23.5 68.5q0 92 91 162q91 72 221 72q174 0 254 -93q80 -92 80 -245v-403q0 -61 28.5 -89t71.5 -28q16 0 32 1.5t32 5.5l8 -49q-51 -14 -85 -14q-48 0 -86.5 7t-68.5 23q-58 31 -86 125h-8
q-48 -74 -108.5 -114.5t-153.5 -40.5q-107 0 -170 54q-64 55 -64 153zM286 209q0 -153 142 -153q52 0 98 39.5t80 102.5v289q-24 -16 -46.5 -27.5t-44.5 -19.5q-45 -16 -124 -36q-105 -27 -105 -195z" />
    <glyph glyph-name="aacute" unicode="&#xe1;" horiz-adv-x="990" 
d="M573 1288l-195 -234l-32 18l106 289q38 101 103 101q32 0 50.5 -19t18.5 -47q0 -47 -51 -108zM112 193q0 120 65.5 179t185.5 74q39 5 72 12t60 18q28 11 55.5 25.5t55.5 32.5v106q0 73 -35 138q-19 34 -55.5 54t-88.5 20q-59 0 -106 -26q-46 -25 -46 -67q0 -22 14 -53
q7 -16 11 -31.5t4 -30.5q0 -29 -21.5 -50.5t-63.5 -21.5q-48 0 -71.5 25.5t-23.5 68.5q0 92 91 162q91 72 221 72q174 0 254 -93q80 -92 80 -245v-403q0 -61 28.5 -89t71.5 -28q16 0 32 1.5t32 5.5l8 -49q-51 -14 -85 -14q-48 0 -86.5 7t-68.5 23q-58 31 -86 125h-8
q-48 -74 -108.5 -114.5t-153.5 -40.5q-107 0 -170 54q-64 55 -64 153zM286 209q0 -153 142 -153q52 0 98 39.5t80 102.5v289q-24 -16 -46.5 -27.5t-44.5 -19.5q-45 -16 -124 -36q-105 -27 -105 -195z" />
    <glyph glyph-name="acircumflex" unicode="&#xe2;" horiz-adv-x="990" 
d="M408 1351l-182 -291h-44l233 374h100l237 -374h-160zM112 193q0 120 65.5 179t185.5 74q39 5 72 12t60 18q28 11 55.5 25.5t55.5 32.5v106q0 73 -35 138q-19 34 -55.5 54t-88.5 20q-59 0 -106 -26q-46 -25 -46 -67q0 -22 14 -53q7 -16 11 -31.5t4 -30.5
q0 -29 -21.5 -50.5t-63.5 -21.5q-48 0 -71.5 25.5t-23.5 68.5q0 92 91 162q91 72 221 72q174 0 254 -93q80 -92 80 -245v-403q0 -61 28.5 -89t71.5 -28q16 0 32 1.5t32 5.5l8 -49q-51 -14 -85 -14q-48 0 -86.5 7t-68.5 23q-58 31 -86 125h-8q-48 -74 -108.5 -114.5
t-153.5 -40.5q-107 0 -170 54q-64 55 -64 153zM286 209q0 -153 142 -153q52 0 98 39.5t80 102.5v289q-24 -16 -46.5 -27.5t-44.5 -19.5q-45 -16 -124 -36q-105 -27 -105 -195z" />
    <glyph glyph-name="atilde" unicode="&#xe3;" horiz-adv-x="990" 
d="M176 1068l-44 8q30 208 176 208q63 0 170 -49q100 -45 156 -45q38 0 55 33q9 17 13.5 31.5t9.5 39.5l44 -8q-30 -208 -176 -208q-63 0 -170 49q-101 45 -156 45q-40 0 -56 -33q-8 -17 -12.5 -31.5t-9.5 -39.5zM112 193q0 120 65.5 179t185.5 74q39 5 72 12t60 18
q28 11 55.5 25.5t55.5 32.5v106q0 73 -35 138q-19 34 -55.5 54t-88.5 20q-59 0 -106 -26q-46 -25 -46 -67q0 -22 14 -53q7 -16 11 -31.5t4 -30.5q0 -29 -21.5 -50.5t-63.5 -21.5q-48 0 -71.5 25.5t-23.5 68.5q0 92 91 162q91 72 221 72q174 0 254 -93q80 -92 80 -245v-403
q0 -61 28.5 -89t71.5 -28q16 0 32 1.5t32 5.5l8 -49q-51 -14 -85 -14q-48 0 -86.5 7t-68.5 23q-58 31 -86 125h-8q-48 -74 -108.5 -114.5t-153.5 -40.5q-107 0 -170 54q-64 55 -64 153zM286 209q0 -153 142 -153q52 0 98 39.5t80 102.5v289q-24 -16 -46.5 -27.5t-44.5 -19.5
q-45 -16 -124 -36q-105 -27 -105 -195z" />
    <glyph glyph-name="adieresis" unicode="&#xe4;" horiz-adv-x="990" 
d="M173 1139q-27 27 -27 69t27 69t69 27t69 -27t27 -69t-27 -69t-69 -27t-69 27zM577 1139q-27 27 -27 69t27 69t69 27t69 -27t27 -69t-27 -69t-69 -27t-69 27zM112 193q0 120 65.5 179t185.5 74q39 5 72 12t60 18q28 11 55.5 25.5t55.5 32.5v106q0 73 -35 138
q-19 34 -55.5 54t-88.5 20q-59 0 -106 -26q-46 -25 -46 -67q0 -22 14 -53q7 -16 11 -31.5t4 -30.5q0 -29 -21.5 -50.5t-63.5 -21.5q-48 0 -71.5 25.5t-23.5 68.5q0 92 91 162q91 72 221 72q174 0 254 -93q80 -92 80 -245v-403q0 -61 28.5 -89t71.5 -28q16 0 32 1.5t32 5.5
l8 -49q-51 -14 -85 -14q-48 0 -86.5 7t-68.5 23q-58 31 -86 125h-8q-48 -74 -108.5 -114.5t-153.5 -40.5q-107 0 -170 54q-64 55 -64 153zM286 209q0 -153 142 -153q52 0 98 39.5t80 102.5v289q-24 -16 -46.5 -27.5t-44.5 -19.5q-45 -16 -124 -36q-105 -27 -105 -195z" />
    <glyph glyph-name="aring" unicode="&#xe5;" horiz-adv-x="990" 
d="M279 1093q-65 65 -65 165q0 99 65 164q66 66 165 66q98 0 164 -66t66 -164q0 -99 -66 -165q-65 -65 -164 -65q-100 0 -165 65zM270 1258q0 -74 50 -124t124 -50t124 50t50 124t-50 124t-124 50q-72 0 -123 -51q-51 -50 -51 -123zM112 193q0 120 65.5 179t185.5 74
q39 5 72 12t60 18q28 11 55.5 25.5t55.5 32.5v106q0 73 -35 138q-19 34 -55.5 54t-88.5 20q-59 0 -106 -26q-46 -25 -46 -67q0 -22 14 -53q7 -16 11 -31.5t4 -30.5q0 -29 -21.5 -50.5t-63.5 -21.5q-48 0 -71.5 25.5t-23.5 68.5q0 92 91 162q91 72 221 72q174 0 254 -93
q80 -92 80 -245v-403q0 -61 28.5 -89t71.5 -28q16 0 32 1.5t32 5.5l8 -49q-51 -14 -85 -14q-48 0 -86.5 7t-68.5 23q-58 31 -86 125h-8q-48 -74 -108.5 -114.5t-153.5 -40.5q-107 0 -170 54q-64 55 -64 153zM286 209q0 -153 142 -153q52 0 98 39.5t80 102.5v289
q-24 -16 -46.5 -27.5t-44.5 -19.5q-45 -16 -124 -36q-105 -27 -105 -195z" />
    <glyph glyph-name="ae" unicode="&#xe6;" horiz-adv-x="1452" 
d="M112 199q0 121 69 174q70 53 196 70q177 23 259 77v138q0 33 -8 67.5t-29 62.5t-56.5 46t-89.5 18q-62 0 -105 -28q-43 -27 -43 -69q0 -22 14 -53q7 -16 11 -30.5t4 -27.5q0 -29 -21.5 -50.5t-63.5 -21.5q-48 0 -71.5 25.5t-23.5 68.5q0 92 91 162q91 72 221 72
q175 0 264 -122h8q105 122 287 122q81 0 146 -31.5t104 -82.5t60 -109.5t21 -116.5q0 -43 -15 -61.5t-59 -18.5h-482q0 -80 6 -141t23 -118q25 -81 77 -127t146 -46q108 0 175 70t81 180h52q-8 -116 -86 -211q-39 -46 -104.5 -73.5t-147.5 -27.5q-120 0 -203 37.5
t-141 124.5h-14q-38 -61 -123 -113q-80 -49 -199 -49q-106 0 -168 55.5t-62 157.5zM286 221q0 -48 9 -80t27 -50.5t44.5 -26.5t61.5 -8q27 0 56 10t60 32q60 42 92 100v277q-53 -31 -99 -44q-48 -15 -127 -27q-124 -19 -124 -183zM801 528h316q41 0 54 22.5t13 64.5
q0 40 -9 82.5t-30 76.5t-55.5 56t-85.5 22q-48 0 -84 -20t-57 -50q-11 -16 -19.5 -35t-15.5 -41q-14 -45 -19.5 -86t-7.5 -92z" />
    <glyph glyph-name="ccedilla" unicode="&#xe7;" horiz-adv-x="944" 
d="M314 -335q0 43 24.5 70t59.5 27q26 0 40 -14t14 -34q0 -31 -26 -54q-24 -21 -24 -48q0 -44 80 -44q52 0 84 53q30 51 30 109q0 57 -76 79q-54 16 -54 47q0 17 25 66l49 -14q-14 -26 -14 -38q0 -11 8 -16t32 -12q26 -8 49 -21.5t40 -32.5t27 -43t10 -53q0 -73 -40 -116
q-50 -56 -148 -56q-80 0 -136 38q-54 37 -54 107zM96 432q0 94 33.5 179t92 149t138.5 102t174 38q72 0 131 -24t94 -61q36 -38 53.5 -77t17.5 -75q0 -24 -7 -46t-20.5 -38.5t-33.5 -26.5t-45 -10q-30 0 -48.5 11.5t-27 31t-6.5 45t13 52.5q13 32 13 71q0 18 -8.5 36t-26 32
t-44 22.5t-62.5 8.5q-119 0 -183 -108q-64 -106 -64 -284q0 -193 70 -305q71 -113 206 -113q69 0 115 28.5t73.5 71.5t39 93.5t12.5 94.5h52q-1 -48 -8.5 -92t-30.5 -92q-11 -23 -25 -44t-31 -38q-34 -35 -92.5 -56.5t-134.5 -21.5q-196 0 -312 122q-118 124 -118 324z" />
    <glyph glyph-name="egrave" unicode="&#xe8;" horiz-adv-x="962" 
d="M322 1396q0 28 18.5 47t50.5 19q65 0 103 -101l106 -289l-32 -18l-195 234q-51 61 -51 108zM96 430q-2 97 29 183t88 150t137.5 101t178.5 36q81 -1 147 -32t108 -82t64 -109.5t22 -116.5q0 -43 -15 -61.5t-59 -18.5h-516q0 -432 276 -432q108 0 175 70t81 180h52
q-8 -116 -86 -211q-39 -46 -104.5 -73.5t-147.5 -27.5q-189 0 -308 122q-61 63 -90.5 142.5t-31.5 179.5zM281 528h350q42 0 54.5 23t12.5 74q0 92 -47 160q-46 67 -143 67q-62 0 -104.5 -29.5t-69 -76t-39 -104.5t-14.5 -114z" />
    <glyph glyph-name="eacute" unicode="&#xe9;" horiz-adv-x="962" 
d="M631 1288l-195 -234l-32 18l106 289q38 101 103 101q32 0 50.5 -19t18.5 -47q0 -47 -51 -108zM96 430q-2 97 29 183t88 150t137.5 101t178.5 36q81 -1 147 -32t108 -82t64 -109.5t22 -116.5q0 -43 -15 -61.5t-59 -18.5h-516q0 -432 276 -432q108 0 175 70t81 180h52
q-8 -116 -86 -211q-39 -46 -104.5 -73.5t-147.5 -27.5q-189 0 -308 122q-61 63 -90.5 142.5t-31.5 179.5zM281 528h350q42 0 54.5 23t12.5 74q0 92 -47 160q-46 67 -143 67q-62 0 -104.5 -29.5t-69 -76t-39 -104.5t-14.5 -114z" />
    <glyph glyph-name="ecircumflex" unicode="&#xea;" horiz-adv-x="962" 
d="M466 1351l-182 -291h-44l233 374h100l237 -374h-160zM96 430q-2 97 29 183t88 150t137.5 101t178.5 36q81 -1 147 -32t108 -82t64 -109.5t22 -116.5q0 -43 -15 -61.5t-59 -18.5h-516q0 -432 276 -432q108 0 175 70t81 180h52q-8 -116 -86 -211q-39 -46 -104.5 -73.5
t-147.5 -27.5q-189 0 -308 122q-61 63 -90.5 142.5t-31.5 179.5zM281 528h350q42 0 54.5 23t12.5 74q0 92 -47 160q-46 67 -143 67q-62 0 -104.5 -29.5t-69 -76t-39 -104.5t-14.5 -114z" />
    <glyph glyph-name="edieresis" unicode="&#xeb;" horiz-adv-x="962" 
d="M231 1139q-27 27 -27 69t27 69t69 27t69 -27t27 -69t-27 -69t-69 -27t-69 27zM635 1139q-27 27 -27 69t27 69t69 27t69 -27t27 -69t-27 -69t-69 -27t-69 27zM96 430q-2 97 29 183t88 150t137.5 101t178.5 36q81 -1 147 -32t108 -82t64 -109.5t22 -116.5q0 -43 -15 -61.5
t-59 -18.5h-516q0 -432 276 -432q108 0 175 70t81 180h52q-8 -116 -86 -211q-39 -46 -104.5 -73.5t-147.5 -27.5q-189 0 -308 122q-61 63 -90.5 142.5t-31.5 179.5zM281 528h350q42 0 54.5 23t12.5 74q0 92 -47 160q-46 67 -143 67q-62 0 -104.5 -29.5t-69 -76t-39 -104.5
t-14.5 -114z" />
    <glyph glyph-name="igrave" unicode="&#xec;" horiz-adv-x="600" 
d="M110 1396q0 28 18.5 47t50.5 19q65 0 103 -101l106 -289l-32 -18l-195 234q-51 61 -51 108zM532 48v-48h-448v48h142v788h-142v48h306v-836h142z" />
    <glyph glyph-name="iacute" unicode="&#xed;" horiz-adv-x="600" 
d="M419 1288l-195 -234l-32 18l106 289q38 101 103 101q32 0 50.5 -19t18.5 -47q0 -47 -51 -108zM532 48v-48h-448v48h142v788h-142v48h306v-836h142z" />
    <glyph glyph-name="icircumflex" unicode="&#xee;" horiz-adv-x="600" 
d="M244 1348l-164 -288h-44l213 374h100l217 -374h-156zM532 48v-48h-448v48h142v788h-142v48h306v-836h142z" />
    <glyph glyph-name="idieresis" unicode="&#xef;" horiz-adv-x="600" 
d="M33 1139q-27 27 -27 69t27 69t69 27t69 -27t27 -69t-27 -69t-69 -27t-69 27zM409 1139q-27 27 -27 69t27 69t69 27t69 -27t27 -69t-27 -69t-69 -27t-69 27zM532 48v-48h-448v48h142v788h-142v48h306v-836h142z" />
    <glyph glyph-name="eth" unicode="&#xf0;" horiz-adv-x="1030" 
d="M520 900q92 0 153 -34l9 8q-35 76 -85.5 153t-116.5 158l-215 -134l-31 47l210 131q-32 39 -72 81t-89 90q-28 27 -28 41q0 9 4.5 13t18.5 4h165q29 -27 62.5 -62.5t72.5 -80.5l213 131l31 -47l-204 -128q47 -53 104 -135q112 -164 161 -300q51 -140 51 -299
q0 -256 -116 -405q-113 -146 -298 -146q-181 0 -302 128q-122 131 -122 328t122 328q123 130 302 130zM340 753q-60 -99 -60 -311t60 -311q61 -99 180 -99q117 0 179 99q61 99 61 311t-61 311q-62 99 -179 99q-119 0 -180 -99z" />
    <glyph glyph-name="ntilde" unicode="&#xf1;" horiz-adv-x="1172" 
d="M308 1068l-44 8q30 208 176 208q63 0 170 -49q100 -45 156 -45q38 0 55 33q9 17 13.5 31.5t9.5 39.5l44 -8q-30 -208 -176 -208q-63 0 -170 49q-101 45 -156 45q-40 0 -56 -33q-8 -17 -12.5 -31.5t-9.5 -39.5zM532 48v-48h-448v48h142v788h-142v48h306v-210l12 -3
q48 112 128.5 170.5t183.5 58.5q124 0 193 -85q63 -78 63 -207v-560h142v-48h-448v48h142v596q0 184 -164 184q-32 0 -60.5 -11.5t-53.5 -31.5t-45.5 -47.5t-36.5 -60.5q-17 -33 -28.5 -64t-16.5 -60q-6 -31 -8.5 -66t-2.5 -75v-364h142z" />
    <glyph glyph-name="ograve" unicode="&#xf2;" horiz-adv-x="1040" 
d="M340 1396q0 28 18.5 47t50.5 19q65 0 103 -101l106 -289l-32 -18l-195 234q-51 61 -51 108zM218 114q-122 131 -122 328t122 328q123 130 302 130q180 0 301 -130q123 -131 123 -328q0 -198 -123 -328q-119 -128 -301 -128q-181 0 -302 128zM340 753q-60 -99 -60 -311
t60 -311q61 -99 180 -99q117 0 179 99q61 99 61 311t-61 311q-62 99 -179 99q-119 0 -180 -99z" />
    <glyph glyph-name="oacute" unicode="&#xf3;" horiz-adv-x="1040" 
d="M649 1288l-195 -234l-32 18l106 289q38 101 103 101q32 0 50.5 -19t18.5 -47q0 -47 -51 -108zM218 114q-122 131 -122 328t122 328q123 130 302 130q180 0 301 -130q123 -131 123 -328q0 -198 -123 -328q-119 -128 -301 -128q-181 0 -302 128zM340 753q-60 -99 -60 -311
t60 -311q61 -99 180 -99q117 0 179 99q61 99 61 311t-61 311q-62 99 -179 99q-119 0 -180 -99z" />
    <glyph glyph-name="ocircumflex" unicode="&#xf4;" horiz-adv-x="1040" 
d="M484 1351l-182 -291h-44l233 374h100l237 -374h-160zM218 114q-122 131 -122 328t122 328q123 130 302 130q180 0 301 -130q123 -131 123 -328q0 -198 -123 -328q-119 -128 -301 -128q-181 0 -302 128zM340 753q-60 -99 -60 -311t60 -311q61 -99 180 -99q117 0 179 99
q61 99 61 311t-61 311q-62 99 -179 99q-119 0 -180 -99z" />
    <glyph glyph-name="otilde" unicode="&#xf5;" horiz-adv-x="1040" 
d="M252 1068l-44 8q30 208 176 208q63 0 170 -49q100 -45 156 -45q38 0 55 33q9 17 13.5 31.5t9.5 39.5l44 -8q-30 -208 -176 -208q-63 0 -170 49q-101 45 -156 45q-40 0 -56 -33q-8 -17 -12.5 -31.5t-9.5 -39.5zM218 114q-122 131 -122 328t122 328q123 130 302 130
q180 0 301 -130q123 -131 123 -328q0 -198 -123 -328q-119 -128 -301 -128q-181 0 -302 128zM340 753q-60 -99 -60 -311t60 -311q61 -99 180 -99q117 0 179 99q61 99 61 311t-61 311q-62 99 -179 99q-119 0 -180 -99z" />
    <glyph glyph-name="odieresis" unicode="&#xf6;" horiz-adv-x="1040" 
d="M249 1139q-27 27 -27 69t27 69t69 27t69 -27t27 -69t-27 -69t-69 -27t-69 27zM653 1139q-27 27 -27 69t27 69t69 27t69 -27t27 -69t-27 -69t-69 -27t-69 27zM218 114q-122 131 -122 328t122 328q123 130 302 130q180 0 301 -130q123 -131 123 -328q0 -198 -123 -328
q-119 -128 -301 -128q-181 0 -302 128zM340 753q-60 -99 -60 -311t60 -311q61 -99 180 -99q117 0 179 99q61 99 61 311t-61 311q-62 99 -179 99q-119 0 -180 -99z" />
    <glyph glyph-name="divide" unicode="&#xf7;" horiz-adv-x="1152" 
d="M485 737q-37 37 -37 91t37 91t91 37t91 -37t37 -91t-37 -91q-38 -35 -91 -35t-91 35zM1090 562v-96h-1028v96h1028zM485 109q-37 37 -37 91t37 91t91 37t91 -37t37 -91t-37 -91q-38 -35 -91 -35t-91 35z" />
    <glyph glyph-name="oslash" unicode="&#xf8;" horiz-adv-x="1040" 
d="M238 95l-110 -117l-40 36l112 121q-104 128 -104 307q0 197 122 328q123 130 302 130q165 0 282 -111l110 119l40 -38l-112 -121q104 -128 104 -307q0 -198 -123 -328q-119 -128 -301 -128q-167 0 -282 109zM280 442q0 -118 18 -200l426 462q-58 148 -204 148
q-119 0 -179.5 -99t-60.5 -311zM742 642l-426 -462q58 -148 204 -148q119 0 179.5 99t60.5 311q0 117 -18 200z" />
    <glyph glyph-name="ugrave" unicode="&#xf9;" horiz-adv-x="1156" 
d="M358 1396q0 28 18.5 47t50.5 19q65 0 103 -101l106 -289l-32 -18l-195 234q-51 61 -51 108zM202 276v560h-142v48h306v-644q0 -184 164 -184q31 0 60 11.5t53.5 31.5t45.5 47.5t37 60.5q34 69 44 124q12 58 12 141v364h-142v48h306v-836h142v-48h-306v210l-12 3
q-48 -112 -128.5 -169.5t-183.5 -57.5q-126 0 -193 83q-63 78 -63 207z" />
    <glyph glyph-name="uacute" unicode="&#xfa;" horiz-adv-x="1156" 
d="M667 1288l-195 -234l-32 18l106 289q38 101 103 101q32 0 50.5 -19t18.5 -47q0 -47 -51 -108zM202 276v560h-142v48h306v-644q0 -184 164 -184q31 0 60 11.5t53.5 31.5t45.5 47.5t37 60.5q34 69 44 124q12 58 12 141v364h-142v48h306v-836h142v-48h-306v210l-12 3
q-48 -112 -128.5 -169.5t-183.5 -57.5q-126 0 -193 83q-63 78 -63 207z" />
    <glyph glyph-name="ucircumflex" unicode="&#xfb;" horiz-adv-x="1156" 
d="M502 1351l-182 -291h-44l233 374h100l237 -374h-160zM202 276v560h-142v48h306v-644q0 -184 164 -184q31 0 60 11.5t53.5 31.5t45.5 47.5t37 60.5q34 69 44 124q12 58 12 141v364h-142v48h306v-836h142v-48h-306v210l-12 3q-48 -112 -128.5 -169.5t-183.5 -57.5
q-126 0 -193 83q-63 78 -63 207z" />
    <glyph glyph-name="udieresis" unicode="&#xfc;" horiz-adv-x="1156" 
d="M267 1139q-27 27 -27 69t27 69t69 27t69 -27t27 -69t-27 -69t-69 -27t-69 27zM671 1139q-27 27 -27 69t27 69t69 27t69 -27t27 -69t-27 -69t-69 -27t-69 27zM202 276v560h-142v48h306v-644q0 -184 164 -184q31 0 60 11.5t53.5 31.5t45.5 47.5t37 60.5q34 69 44 124
q12 58 12 141v364h-142v48h306v-836h142v-48h-306v210l-12 3q-48 -112 -128.5 -169.5t-183.5 -57.5q-126 0 -193 83q-63 78 -63 207z" />
    <glyph glyph-name="yacute" unicode="&#xfd;" horiz-adv-x="1024" 
d="M685 1288l-195 -234l-32 18l106 289q38 101 103 101q32 0 50.5 -19t18.5 -47q0 -47 -51 -108zM-4 -463q0 49 27.5 80t76.5 31q35 0 55.5 -20.5t20.5 -47.5q0 -14 -8 -51q-8 -34 -8 -52q0 -49 68 -49q51 0 84.5 45.5t60.5 123.5l133 386l-348 853h-118v48h458v-48h-162
l252 -620l214 620h-123v48h309v-48h-129l-432 -1242q-7 -19 -12.5 -34t-11.5 -29t-13 -27.5t-17 -29.5q-19 -32 -43 -53q-23 -20 -59 -34.5t-81 -14.5q-85 0 -140 43q-54 41 -54 122z" />
    <glyph glyph-name="thorn" unicode="&#xfe;" horiz-adv-x="1150" 
d="M590 -610h-512v48h142v2010h-142v48h512v-48h-206v-652l10 -6q116 110 267 110q179 0 286 -120q107 -122 107 -338t-107 -338q-106 -118 -286 -118q-153 0 -267 108l-10 -6v-650h206v-48zM444 128q32 -43 81 -64.5t102 -21.5t102 21t81 65q37 50 48.5 126.5t11.5 187.5
t-11.5 187.5t-48.5 126.5q-32 43 -81 64.5t-102 21.5t-102 -21.5t-81 -64.5q-38 -51 -49 -127t-11 -187q0 -110 11 -187.5t49 -126.5z" />
    <glyph glyph-name="ydieresis" unicode="&#xff;" horiz-adv-x="1024" 
d="M285 1139q-27 27 -27 69t27 69t69 27t69 -27t27 -69t-27 -69t-69 -27t-69 27zM689 1139q-27 27 -27 69t27 69t69 27t69 -27t27 -69t-27 -69t-69 -27t-69 27zM-4 -463q0 49 27.5 80t76.5 31q35 0 55.5 -20.5t20.5 -47.5q0 -14 -8 -51q-8 -34 -8 -52q0 -49 68 -49
q51 0 84.5 45.5t60.5 123.5l133 386l-348 853h-118v48h458v-48h-162l252 -620l214 620h-123v48h309v-48h-129l-432 -1242q-7 -19 -12.5 -34t-11.5 -29t-13 -27.5t-17 -29.5q-19 -32 -43 -53q-23 -20 -59 -34.5t-81 -14.5q-85 0 -140 43q-54 41 -54 122z" />
    <glyph glyph-name="Amacron" unicode="&#x100;" horiz-adv-x="1534" 
d="M1066 1766v-88h-604v88h604zM552 52v-52h-496v52h218l462 1410h60l524 -1410h182v-52h-672v52h250l-170 460h-418l-150 -460h210zM890 564l-202 545l-180 -545h382z" />
    <glyph glyph-name="amacron" unicode="&#x101;" horiz-adv-x="990" 
d="M732 1222v-88h-576v88h576zM112 193q0 120 65.5 179t185.5 74q39 5 72 12t60 18q28 11 55.5 25.5t55.5 32.5v106q0 73 -35 138q-19 34 -55.5 54t-88.5 20q-59 0 -106 -26q-46 -25 -46 -67q0 -22 14 -53q7 -16 11 -31.5t4 -30.5q0 -29 -21.5 -50.5t-63.5 -21.5
q-48 0 -71.5 25.5t-23.5 68.5q0 92 91 162q91 72 221 72q174 0 254 -93q80 -92 80 -245v-403q0 -61 28.5 -89t71.5 -28q16 0 32 1.5t32 5.5l8 -49q-51 -14 -85 -14q-48 0 -86.5 7t-68.5 23q-58 31 -86 125h-8q-48 -74 -108.5 -114.5t-153.5 -40.5q-107 0 -170 54
q-64 55 -64 153zM286 209q0 -153 142 -153q52 0 98 39.5t80 102.5v289q-24 -16 -46.5 -27.5t-44.5 -19.5q-45 -16 -124 -36q-105 -27 -105 -195z" />
    <glyph glyph-name="Abreve" unicode="&#x102;" horiz-adv-x="1534" 
d="M426 1886h48q33 -109 102.5 -163.5t187.5 -54.5q224 0 292 218h48q-32 -157 -119.5 -235.5t-220.5 -78.5q-134 0 -219.5 77.5t-118.5 236.5zM552 52v-52h-496v52h218l462 1410h60l524 -1410h182v-52h-672v52h250l-170 460h-418l-150 -460h210zM890 564l-202 545
l-180 -545h382z" />
    <glyph glyph-name="abreve" unicode="&#x103;" horiz-adv-x="990" 
d="M148 1394h48q20 -104 78.5 -157t169.5 -53t169.5 53t78.5 157h48q-15 -142 -95 -225q-80 -81 -201 -81q-123 0 -202 81q-79 82 -94 225zM112 193q0 120 65.5 179t185.5 74q39 5 72 12t60 18q28 11 55.5 25.5t55.5 32.5v106q0 73 -35 138q-19 34 -55.5 54t-88.5 20
q-59 0 -106 -26q-46 -25 -46 -67q0 -22 14 -53q7 -16 11 -31.5t4 -30.5q0 -29 -21.5 -50.5t-63.5 -21.5q-48 0 -71.5 25.5t-23.5 68.5q0 92 91 162q91 72 221 72q174 0 254 -93q80 -92 80 -245v-403q0 -61 28.5 -89t71.5 -28q16 0 32 1.5t32 5.5l8 -49q-51 -14 -85 -14
q-48 0 -86.5 7t-68.5 23q-58 31 -86 125h-8q-48 -74 -108.5 -114.5t-153.5 -40.5q-107 0 -170 54q-64 55 -64 153zM286 209q0 -153 142 -153q52 0 98 39.5t80 102.5v289q-24 -16 -46.5 -27.5t-44.5 -19.5q-45 -16 -124 -36q-105 -27 -105 -195z" />
    <glyph glyph-name="Aogonek" unicode="&#x104;" horiz-adv-x="1534" 
d="M552 52v-52h-496v52h218l462 1410h60l524 -1410h182v-52h-200q-103 -63 -152.5 -127.5t-49.5 -144.5q0 -36 10 -60.5t27 -40t40 -22.5t49 -7q54 0 87 38.5t45 102.5l36 -8q-36 -255 -222 -255q-45 0 -90 17q-42 16 -73 58t-31 105q0 109 70 194q35 42 73.5 76t90.5 71
l-3 3h-379v52h250l-170 460h-418l-150 -460h210zM890 564l-202 545l-180 -545h382z" />
    <glyph glyph-name="aogonek" unicode="&#x105;" horiz-adv-x="990" 
d="M112 193q0 120 65.5 179t185.5 74q39 5 72 12t60 18q28 11 55.5 25.5t55.5 32.5v106q0 73 -35 138q-19 34 -55.5 54t-88.5 20q-59 0 -106 -26q-46 -25 -46 -67q0 -22 14 -53q7 -16 11 -31.5t4 -30.5q0 -29 -21.5 -50.5t-63.5 -21.5q-48 0 -71.5 25.5t-23.5 68.5
q0 92 91 162q91 72 221 72q174 0 254 -93q80 -92 80 -245v-403q0 -61 28.5 -89t71.5 -28q16 0 32 1.5t32 5.5l8 -49q-51 -14 -85 -14q-30 0 -89 -53q-51 -45 -81.5 -91t-30.5 -103q0 -54 26 -84.5t77 -30.5q83 0 143 110l26 -12q-15 -39 -30 -69.5t-40 -64.5t-59.5 -53
t-76.5 -19q-70 0 -122 40t-52 119q0 93 56 166t165 148v5q-57 11 -94.5 44t-58.5 103h-8q-48 -74 -108.5 -114.5t-153.5 -40.5q-107 0 -170 54q-64 55 -64 153zM286 209q0 -153 142 -153q52 0 98 39.5t80 102.5v289q-24 -16 -46.5 -27.5t-44.5 -19.5q-45 -16 -124 -36
q-105 -27 -105 -195z" />
    <glyph glyph-name="Cacute" unicode="&#x106;" horiz-adv-x="1486" 
d="M1010 1704l-314 -148l-22 29l256 239q69 64 130 64q27 0 44.5 -22t17.5 -48q0 -62 -112 -114zM146 712q0 138 38 256.5t104 209.5q49 67 111 120t132.5 90t147.5 56t155 18q76 -1 145 -12t135 -35q60 -22 94 -22q30 0 47 16.5t35 52.5h44v-471h-44q-34 145 -113 254
q-23 32 -48 57t-66 51q-41 27 -99 42t-130 15q-217 0 -336 -179q-118 -178 -118 -519q0 -340 118 -514t336 -174q72 0 130.5 15t98.5 41q41 27 66 52t48 57q79 109 113 254h44v-469h-44q-12 23 -21 34q-8 12 -24 22.5t-37 10.5q-34 0 -94 -22q-128 -45 -280 -45
q-134 0 -255.5 49t-218.5 143q-98 93 -156 235q-58 140 -58 311z" />
    <glyph glyph-name="cacute" unicode="&#x107;" horiz-adv-x="944" 
d="M651 1288l-195 -234l-32 18l106 289q38 101 103 101q32 0 50.5 -19t18.5 -47q0 -47 -51 -108zM96 432q0 94 33.5 179t92 149t138.5 102t174 38q72 0 131 -24t94 -61q36 -38 53.5 -77t17.5 -75q0 -24 -7 -46t-20.5 -38.5t-33.5 -26.5t-45 -10q-30 0 -48.5 11.5t-27 31
t-6.5 45t13 52.5q13 32 13 71q0 18 -8.5 36t-26 32t-44 22.5t-62.5 8.5q-119 0 -183 -108q-64 -106 -64 -284q0 -193 70 -305q71 -113 206 -113q69 0 115 28.5t73.5 71.5t39 93.5t12.5 94.5h52q-1 -48 -8.5 -92t-30.5 -92q-11 -23 -25 -44t-31 -38q-34 -35 -92.5 -56.5
t-134.5 -21.5q-196 0 -312 122q-118 124 -118 324z" />
    <glyph glyph-name="Ccircumflex" unicode="&#x108;" horiz-adv-x="1486" 
d="M790 1815l-230 -251h-54l297 324h100l301 -324h-181zM146 712q0 138 38 256.5t104 209.5q49 67 111 120t132.5 90t147.5 56t155 18q76 -1 145 -12t135 -35q60 -22 94 -22q30 0 47 16.5t35 52.5h44v-471h-44q-34 145 -113 254q-23 32 -48 57t-66 51q-41 27 -99 42t-130 15
q-217 0 -336 -179q-118 -178 -118 -519q0 -340 118 -514t336 -174q72 0 130.5 15t98.5 41q41 27 66 52t48 57q79 109 113 254h44v-469h-44q-12 23 -21 34q-8 12 -24 22.5t-37 10.5q-34 0 -94 -22q-128 -45 -280 -45q-134 0 -255.5 49t-218.5 143q-98 93 -156 235
q-58 140 -58 311z" />
    <glyph glyph-name="ccircumflex" unicode="&#x109;" horiz-adv-x="944" 
d="M486 1351l-182 -291h-44l233 374h100l237 -374h-160zM96 432q0 94 33.5 179t92 149t138.5 102t174 38q72 0 131 -24t94 -61q36 -38 53.5 -77t17.5 -75q0 -24 -7 -46t-20.5 -38.5t-33.5 -26.5t-45 -10q-30 0 -48.5 11.5t-27 31t-6.5 45t13 52.5q13 32 13 71q0 18 -8.5 36
t-26 32t-44 22.5t-62.5 8.5q-119 0 -183 -108q-64 -106 -64 -284q0 -193 70 -305q71 -113 206 -113q69 0 115 28.5t73.5 71.5t39 93.5t12.5 94.5h52q-1 -48 -8.5 -92t-30.5 -92q-11 -23 -25 -44t-31 -38q-34 -35 -92.5 -56.5t-134.5 -21.5q-196 0 -312 122
q-118 124 -118 324z" />
    <glyph glyph-name="Cdotaccent" unicode="&#x10a;" horiz-adv-x="1486" 
d="M755 1653q-27 27 -27 69t27 69t69 27t69 -27t27 -69t-27 -69t-69 -27t-69 27zM146 712q0 138 38 256.5t104 209.5q49 67 111 120t132.5 90t147.5 56t155 18q76 -1 145 -12t135 -35q60 -22 94 -22q30 0 47 16.5t35 52.5h44v-471h-44q-34 145 -113 254q-23 32 -48 57
t-66 51q-41 27 -99 42t-130 15q-217 0 -336 -179q-118 -178 -118 -519q0 -340 118 -514t336 -174q72 0 130.5 15t98.5 41q41 27 66 52t48 57q79 109 113 254h44v-469h-44q-12 23 -21 34q-8 12 -24 22.5t-37 10.5q-34 0 -94 -22q-128 -45 -280 -45q-134 0 -255.5 49
t-218.5 143q-98 93 -156 235q-58 140 -58 311z" />
    <glyph glyph-name="cdotaccent" unicode="&#x10b;" horiz-adv-x="944" 
d="M434 1118q-36 36 -36 88t36 88t88 36t88 -36t36 -88t-36 -88t-88 -36t-88 36zM96 432q0 94 33.5 179t92 149t138.5 102t174 38q72 0 131 -24t94 -61q36 -38 53.5 -77t17.5 -75q0 -24 -7 -46t-20.5 -38.5t-33.5 -26.5t-45 -10q-30 0 -48.5 11.5t-27 31t-6.5 45t13 52.5
q13 32 13 71q0 18 -8.5 36t-26 32t-44 22.5t-62.5 8.5q-119 0 -183 -108q-64 -106 -64 -284q0 -193 70 -305q71 -113 206 -113q69 0 115 28.5t73.5 71.5t39 93.5t12.5 94.5h52q-1 -48 -8.5 -92t-30.5 -92q-11 -23 -25 -44t-31 -38q-34 -35 -92.5 -56.5t-134.5 -21.5
q-196 0 -312 122q-118 124 -118 324z" />
    <glyph glyph-name="Ccaron" unicode="&#x10c;" horiz-adv-x="1486" 
d="M875 1564h-100l-301 324h181l233 -251l230 251h54zM146 712q0 138 38 256.5t104 209.5q49 67 111 120t132.5 90t147.5 56t155 18q76 -1 145 -12t135 -35q60 -22 94 -22q30 0 47 16.5t35 52.5h44v-471h-44q-34 145 -113 254q-23 32 -48 57t-66 51q-41 27 -99 42t-130 15
q-217 0 -336 -179q-118 -178 -118 -519q0 -340 118 -514t336 -174q72 0 130.5 15t98.5 41q41 27 66 52t48 57q79 109 113 254h44v-469h-44q-12 23 -21 34q-8 12 -24 22.5t-37 10.5q-34 0 -94 -22q-128 -45 -280 -45q-134 0 -255.5 49t-218.5 143q-98 93 -156 235
q-58 140 -58 311z" />
    <glyph glyph-name="ccaron" unicode="&#x10d;" horiz-adv-x="944" 
d="M573 1060h-100l-237 374h160l184 -291l182 291h44zM96 432q0 94 33.5 179t92 149t138.5 102t174 38q72 0 131 -24t94 -61q36 -38 53.5 -77t17.5 -75q0 -24 -7 -46t-20.5 -38.5t-33.5 -26.5t-45 -10q-30 0 -48.5 11.5t-27 31t-6.5 45t13 52.5q13 32 13 71q0 18 -8.5 36
t-26 32t-44 22.5t-62.5 8.5q-119 0 -183 -108q-64 -106 -64 -284q0 -193 70 -305q71 -113 206 -113q69 0 115 28.5t73.5 71.5t39 93.5t12.5 94.5h52q-1 -48 -8.5 -92t-30.5 -92q-11 -23 -25 -44t-31 -38q-34 -35 -92.5 -56.5t-134.5 -21.5q-196 0 -312 122
q-118 124 -118 324z" />
    <glyph glyph-name="Dcaron" unicode="&#x10e;" horiz-adv-x="1568" 
d="M703 1564h-100l-301 324h181l233 -251l230 251h54zM841 0h-719v52h192v1330h-192v52h719q91 0 179.5 -28.5t170.5 -88.5q42 -31 78 -66t66 -77q63 -85 100 -203t37 -259t-37 -257.5t-100 -201.5q-47 -62 -105.5 -109.5t-122.5 -79.5t-132 -48t-134 -16zM795 1382h-273
v-1330h273q100 0 178 36t127 96t81 146q32 87 44.5 179t12.5 203t-13 204t-44 181q-23 64 -57.5 116.5t-81.5 90t-108.5 58t-138.5 20.5z" />
    <glyph glyph-name="dcaron" unicode="&#x10f;" horiz-adv-x="1266" 
d="M1029 971l-27 35q194 137 194 286q0 44 -26 44q-6 0 -24 -8q-14 -8 -28 -8q-40 0 -68 24t-28 67q0 45 27 73t69 28q64 0 99 -47t35 -115q0 -46 -8 -85.5t-30 -89.5q-21 -49 -68 -101t-117 -103zM284 850q83 50 181 50q180 0 287 -180l14 2v726h-206v48h370v-1448h142v-48
h-306v162l-14 2q-106 -178 -287 -178q-51 0 -96 11.5t-85 36.5q-91 55 -139.5 159t-48.5 249t48.5 249t139.5 159zM520 44q96 0 171 111q75 112 75 287t-75 286q-75 112 -171 112q-84 0 -140 -56q-55 -55 -77.5 -141t-22.5 -201q0 -119 22 -201q22 -86 78 -142
q55 -55 140 -55z" />
    <glyph glyph-name="Dcroat" unicode="&#x110;" horiz-adv-x="1568" 
d="M314 52v662h-210v64h210v604h-192v52h719q91 0 179.5 -28.5t170.5 -88.5q42 -31 78 -66t66 -77q63 -85 100 -203t37 -259t-37 -257.5t-100 -201.5q-47 -62 -105.5 -109.5t-122.5 -79.5t-132 -48t-134 -16h-719v52h192zM809 714h-287v-662h273q100 0 178 36t127 96t81 146
q32 87 44.5 179t12.5 203t-13 204t-44 181q-23 64 -57.5 116.5t-81.5 90t-108.5 58t-138.5 20.5h-273v-604h287v-64z" />
    <glyph glyph-name="dcroat" unicode="&#x111;" horiz-adv-x="1166" 
d="M284 850q83 50 181 50q180 0 287 -180l14 2v382h-466v56h466v288h-206v48h370v-336h168v-56h-168v-1056h142v-48h-306v162l-14 2q-106 -178 -287 -178q-51 0 -96 11.5t-85 36.5q-91 55 -139.5 159t-48.5 249t48.5 249t139.5 159zM520 44q96 0 171 111q75 112 75 287
t-75 286q-75 112 -171 112q-84 0 -140 -56q-55 -55 -77.5 -141t-22.5 -201q0 -119 22 -201q22 -86 78 -142q55 -55 140 -55z" />
    <glyph glyph-name="Emacron" unicode="&#x112;" horiz-adv-x="1426" 
d="M1036 1766v-88h-604v88h604zM1334 447l-6 -447h-1206v52h192v1330h-192v52h1120l10 -376h-52q-8 39 -15 65q-3 12 -10 30.5t-16.5 39.5t-22 43t-26.5 42q-74 104 -228 104h-360v-606h186q99 0 170 108q22 34 38 95q16 58 16 89h48v-634h-48q0 31 -16 89q-16 61 -38 95
q-70 106 -170 106h-186v-672h337q223 0 321 135q48 65 67 119q10 27 18.5 61.5t16.5 79.5h52z" />
    <glyph glyph-name="emacron" unicode="&#x113;" horiz-adv-x="962" 
d="M790 1222v-88h-576v88h576zM96 430q-2 97 29 183t88 150t137.5 101t178.5 36q81 -1 147 -32t108 -82t64 -109.5t22 -116.5q0 -43 -15 -61.5t-59 -18.5h-516q0 -432 276 -432q108 0 175 70t81 180h52q-8 -116 -86 -211q-39 -46 -104.5 -73.5t-147.5 -27.5q-189 0 -308 122
q-61 63 -90.5 142.5t-31.5 179.5zM281 528h350q42 0 54.5 23t12.5 74q0 92 -47 160q-46 67 -143 67q-62 0 -104.5 -29.5t-69 -76t-39 -104.5t-14.5 -114z" />
    <glyph glyph-name="Ebreve" unicode="&#x114;" horiz-adv-x="1426" 
d="M396 1886h48q33 -109 102.5 -163.5t187.5 -54.5q224 0 292 218h48q-32 -157 -119.5 -235.5t-220.5 -78.5q-134 0 -219.5 77.5t-118.5 236.5zM1334 447l-6 -447h-1206v52h192v1330h-192v52h1120l10 -376h-52q-8 39 -15 65q-3 12 -10 30.5t-16.5 39.5t-22 43t-26.5 42
q-74 104 -228 104h-360v-606h186q99 0 170 108q22 34 38 95q16 58 16 89h48v-634h-48q0 31 -16 89q-16 61 -38 95q-70 106 -170 106h-186v-672h337q223 0 321 135q48 65 67 119q10 27 18.5 61.5t16.5 79.5h52z" />
    <glyph glyph-name="ebreve" unicode="&#x115;" horiz-adv-x="962" 
d="M206 1394h48q20 -104 78.5 -157t169.5 -53t169.5 53t78.5 157h48q-15 -142 -95 -225q-80 -81 -201 -81q-123 0 -202 81q-79 82 -94 225zM96 430q-2 97 29 183t88 150t137.5 101t178.5 36q81 -1 147 -32t108 -82t64 -109.5t22 -116.5q0 -43 -15 -61.5t-59 -18.5h-516
q0 -432 276 -432q108 0 175 70t81 180h52q-8 -116 -86 -211q-39 -46 -104.5 -73.5t-147.5 -27.5q-189 0 -308 122q-61 63 -90.5 142.5t-31.5 179.5zM281 528h350q42 0 54.5 23t12.5 74q0 92 -47 160q-46 67 -143 67q-62 0 -104.5 -29.5t-69 -76t-39 -104.5t-14.5 -114z" />
    <glyph glyph-name="Edotaccent" unicode="&#x116;" horiz-adv-x="1426" 
d="M665 1653q-27 27 -27 69t27 69t69 27t69 -27t27 -69t-27 -69t-69 -27t-69 27zM1334 447l-6 -447h-1206v52h192v1330h-192v52h1120l10 -376h-52q-8 39 -15 65q-3 12 -10 30.5t-16.5 39.5t-22 43t-26.5 42q-74 104 -228 104h-360v-606h186q99 0 170 108q22 34 38 95
q16 58 16 89h48v-634h-48q0 31 -16 89q-16 61 -38 95q-70 106 -170 106h-186v-672h337q223 0 321 135q48 65 67 119q10 27 18.5 61.5t16.5 79.5h52z" />
    <glyph glyph-name="edotaccent" unicode="&#x117;" horiz-adv-x="962" 
d="M414 1118q-36 36 -36 88t36 88t88 36t88 -36t36 -88t-36 -88t-88 -36t-88 36zM96 430q-2 97 29 183t88 150t137.5 101t178.5 36q81 -1 147 -32t108 -82t64 -109.5t22 -116.5q0 -43 -15 -61.5t-59 -18.5h-516q0 -432 276 -432q108 0 175 70t81 180h52q-8 -116 -86 -211
q-39 -46 -104.5 -73.5t-147.5 -27.5q-189 0 -308 122q-61 63 -90.5 142.5t-31.5 179.5zM281 528h350q42 0 54.5 23t12.5 74q0 92 -47 160q-46 67 -143 67q-62 0 -104.5 -29.5t-69 -76t-39 -104.5t-14.5 -114z" />
    <glyph glyph-name="Eogonek" unicode="&#x118;" horiz-adv-x="1534" 
d="M1036 -3l-3 3h-911v52h192v1330h-192v52h1120l10 -376h-52q-8 39 -15 65q-3 12 -10 30.5t-16.5 39.5t-22 43t-26.5 42q-74 104 -228 104h-360v-608h186q96 0 170 110q22 34 38 95q16 58 16 89h48v-634h-48q0 31 -16 89q-16 61 -38 95q-71 108 -170 108h-186v-674h337
q223 0 321 135q48 65 67 119q10 27 18.5 61.5t16.5 79.5h52l-6 -447h-202q-202 -115 -202 -272q0 -36 10 -60.5t27 -40t40 -22.5t49 -7q54 0 87 38.5t45 102.5l36 -8q-36 -255 -222 -255q-45 0 -90 17q-42 16 -73 58t-31 105q0 109 70 194q35 42 73.5 76t90.5 71z" />
    <glyph glyph-name="eogonek" unicode="&#x119;" horiz-adv-x="962" 
d="M96 430q-2 97 29 183t88 150t137.5 101t178.5 36q81 -1 147 -32t108 -82t64 -109.5t22 -116.5q0 -43 -15 -61.5t-59 -18.5h-516q0 -432 276 -432q107 0 173 72t79 178h56q-4 -57 -20.5 -104t-51.5 -92q-17 -22 -31 -39t-27 -30q-12 -13 -29 -28t-40 -37l-75 -72
q-12 -12 -24.5 -29t-24.5 -40q-23 -42 -23 -88q0 -54 26 -84.5t77 -30.5q83 0 143 110l26 -12q-15 -39 -30 -69.5t-40 -64.5t-59.5 -53t-76.5 -19q-70 0 -122 40t-52 119q0 94 55 164q28 35 70 74.5t100 82.5v4q-50 -14 -109 -14q-189 0 -308 122q-61 63 -90.5 142.5
t-31.5 179.5zM281 528h350q42 0 54.5 23t12.5 74q0 92 -47 160q-46 67 -143 67q-62 0 -104.5 -29.5t-69 -76t-39 -104.5t-14.5 -114z" />
    <glyph glyph-name="Ecaron" unicode="&#x11a;" horiz-adv-x="1426" 
d="M785 1564h-100l-301 324h181l233 -251l230 251h54zM1334 447l-6 -447h-1206v52h192v1330h-192v52h1120l10 -376h-52q-8 39 -15 65q-3 12 -10 30.5t-16.5 39.5t-22 43t-26.5 42q-74 104 -228 104h-360v-606h186q99 0 170 108q22 34 38 95q16 58 16 89h48v-634h-48
q0 31 -16 89q-16 61 -38 95q-70 106 -170 106h-186v-672h337q223 0 321 135q48 65 67 119q10 27 18.5 61.5t16.5 79.5h52z" />
    <glyph glyph-name="ecaron" unicode="&#x11b;" horiz-adv-x="962" 
d="M553 1060h-100l-237 374h160l184 -291l182 291h44zM96 430q-2 97 29 183t88 150t137.5 101t178.5 36q81 -1 147 -32t108 -82t64 -109.5t22 -116.5q0 -43 -15 -61.5t-59 -18.5h-516q0 -432 276 -432q108 0 175 70t81 180h52q-8 -116 -86 -211q-39 -46 -104.5 -73.5
t-147.5 -27.5q-189 0 -308 122q-61 63 -90.5 142.5t-31.5 179.5zM281 528h350q42 0 54.5 23t12.5 74q0 92 -47 160q-46 67 -143 67q-62 0 -104.5 -29.5t-69 -76t-39 -104.5t-14.5 -114z" />
    <glyph glyph-name="Gcircumflex" unicode="&#x11c;" horiz-adv-x="1560" 
d="M790 1815l-230 -251h-54l297 324h100l301 -324h-181zM146 712q0 138 38 256.5t104 209.5q49 67 111 120t132.5 90t147.5 56t155 18q76 -1 145 -12t135 -35q60 -22 94 -22q30 0 47 16.5t35 52.5h44v-471h-44q-34 145 -113 254q-23 32 -48 57t-66 51q-41 27 -99 42t-130 15
q-217 0 -336 -179q-118 -178 -118 -519q0 -340 118 -514t336 -174q151 0 235 98q85 97 85 244v146h-282v52h716v-52h-214l-1 -512h-44q-14 34 -32.5 51.5t-49.5 17.5q-40 0 -117 -31q-159 -64 -296 -64q-134 0 -255.5 49t-218.5 143q-98 93 -156 235q-58 140 -58 311z" />
    <glyph glyph-name="gcircumflex" unicode="&#x11d;" horiz-adv-x="1160" 
d="M530 1351l-182 -291h-44l233 374h100l237 -374h-160zM128 -374q0 75 52.5 132.5t161.5 112.5v7q-18 0 -37.5 2.5t-51.5 13.5q-21 6 -40.5 18.5t-34.5 31.5t-24.5 46.5t-9.5 63.5q-1 48 11 91.5t35 80.5t55.5 66t73.5 48v4q-125 95 -125 240q0 136 105 226t253 90
q85 0 156 -30t122 -84q43 61 75 87q31 27 81 27q60 0 93 -36t33 -90q0 -32 -18.5 -56t-47.5 -24q-31 0 -45 19t-19 55q-5 32 -12.5 46.5t-26.5 14.5q-48 0 -92 -68q59 -74 59 -177q0 -136 -105 -226t-253 -90q-107 0 -196 50q-132 -56 -132 -178q0 -48 37 -74t109 -26
q45 0 161 15q112 15 161 15q139 0 205.5 -75t66.5 -206q0 -174 -129 -295q-131 -122 -329 -122q-68 0 -135.5 14.5t-121.5 45.5t-87.5 79t-33.5 115zM254 -379q0 -67 40 -112q41 -45 96.5 -61t125.5 -16q85 0 147.5 25.5t99.5 70.5q73 88 73 200q0 31 -9.5 63.5t-32 58
t-60 42t-93.5 16.5q-72 0 -230 -28q-75 -49 -116 -110.5t-41 -148.5zM412 786q-54 -74 -54 -202q0 -129 54 -201q54 -71 140 -71t140 71q54 72 54 201q0 128 -54 202t-140 74t-140 -74z" />
    <glyph glyph-name="Gbreve" unicode="&#x11e;" horiz-adv-x="1560" 
d="M486 1886h48q33 -109 102.5 -163.5t187.5 -54.5q224 0 292 218h48q-32 -157 -119.5 -235.5t-220.5 -78.5q-134 0 -219.5 77.5t-118.5 236.5zM146 712q0 138 38 256.5t104 209.5q49 67 111 120t132.5 90t147.5 56t155 18q76 -1 145 -12t135 -35q60 -22 94 -22
q30 0 47 16.5t35 52.5h44v-471h-44q-34 145 -113 254q-23 32 -48 57t-66 51q-41 27 -99 42t-130 15q-217 0 -336 -179q-118 -178 -118 -519q0 -340 118 -514t336 -174q151 0 235 98q85 97 85 244v146h-282v52h716v-52h-214l-1 -512h-44q-14 34 -32.5 51.5t-49.5 17.5
q-40 0 -117 -31q-159 -64 -296 -64q-134 0 -255.5 49t-218.5 143q-98 93 -156 235q-58 140 -58 311z" />
    <glyph glyph-name="gbreve" unicode="&#x11f;" horiz-adv-x="1160" 
d="M270 1394h48q20 -104 78.5 -157t169.5 -53t169.5 53t78.5 157h48q-15 -142 -95 -225q-80 -81 -201 -81q-123 0 -202 81q-79 82 -94 225zM128 -374q0 75 52.5 132.5t161.5 112.5v7q-18 0 -37.5 2.5t-51.5 13.5q-21 6 -40.5 18.5t-34.5 31.5t-24.5 46.5t-9.5 63.5
q-1 48 11 91.5t35 80.5t55.5 66t73.5 48v4q-125 95 -125 240q0 136 105 226t253 90q85 0 156 -30t122 -84q43 61 75 87q31 27 81 27q60 0 93 -36t33 -90q0 -32 -18.5 -56t-47.5 -24q-31 0 -45 19t-19 55q-5 32 -12.5 46.5t-26.5 14.5q-48 0 -92 -68q59 -74 59 -177
q0 -136 -105 -226t-253 -90q-107 0 -196 50q-132 -56 -132 -178q0 -48 37 -74t109 -26q45 0 161 15q112 15 161 15q139 0 205.5 -75t66.5 -206q0 -174 -129 -295q-131 -122 -329 -122q-68 0 -135.5 14.5t-121.5 45.5t-87.5 79t-33.5 115zM254 -379q0 -67 40 -112
q41 -45 96.5 -61t125.5 -16q85 0 147.5 25.5t99.5 70.5q73 88 73 200q0 31 -9.5 63.5t-32 58t-60 42t-93.5 16.5q-72 0 -230 -28q-75 -49 -116 -110.5t-41 -148.5zM412 786q-54 -74 -54 -202q0 -129 54 -201q54 -71 140 -71t140 71q54 72 54 201q0 128 -54 202t-140 74
t-140 -74z" />
    <glyph glyph-name="Gdotaccent" unicode="&#x120;" horiz-adv-x="1560" 
d="M755 1653q-27 27 -27 69t27 69t69 27t69 -27t27 -69t-27 -69t-69 -27t-69 27zM146 712q0 138 38 256.5t104 209.5q49 67 111 120t132.5 90t147.5 56t155 18q76 -1 145 -12t135 -35q60 -22 94 -22q30 0 47 16.5t35 52.5h44v-471h-44q-34 145 -113 254q-23 32 -48 57
t-66 51q-41 27 -99 42t-130 15q-217 0 -336 -179q-118 -178 -118 -519q0 -340 118 -514t336 -174q151 0 235 98q85 97 85 244v146h-282v52h716v-52h-214l-1 -512h-44q-14 34 -32.5 51.5t-49.5 17.5q-40 0 -117 -31q-159 -64 -296 -64q-134 0 -255.5 49t-218.5 143
q-98 93 -156 235q-58 140 -58 311z" />
    <glyph glyph-name="gdotaccent" unicode="&#x121;" horiz-adv-x="1160" 
d="M478 1118q-36 36 -36 88t36 88t88 36t88 -36t36 -88t-36 -88t-88 -36t-88 36zM128 -374q0 75 52.5 132.5t161.5 112.5v7q-18 0 -37.5 2.5t-51.5 13.5q-21 6 -40.5 18.5t-34.5 31.5t-24.5 46.5t-9.5 63.5q-1 48 11 91.5t35 80.5t55.5 66t73.5 48v4q-125 95 -125 240
q0 136 105 226t253 90q85 0 156 -30t122 -84q43 61 75 87q31 27 81 27q60 0 93 -36t33 -90q0 -32 -18.5 -56t-47.5 -24q-31 0 -45 19t-19 55q-5 32 -12.5 46.5t-26.5 14.5q-48 0 -92 -68q59 -74 59 -177q0 -136 -105 -226t-253 -90q-107 0 -196 50q-132 -56 -132 -178
q0 -48 37 -74t109 -26q45 0 161 15q112 15 161 15q139 0 205.5 -75t66.5 -206q0 -174 -129 -295q-131 -122 -329 -122q-68 0 -135.5 14.5t-121.5 45.5t-87.5 79t-33.5 115zM254 -379q0 -67 40 -112q41 -45 96.5 -61t125.5 -16q85 0 147.5 25.5t99.5 70.5q73 88 73 200
q0 31 -9.5 63.5t-32 58t-60 42t-93.5 16.5q-72 0 -230 -28q-75 -49 -116 -110.5t-41 -148.5zM412 786q-54 -74 -54 -202q0 -129 54 -201q54 -71 140 -71t140 71q54 72 54 201q0 128 -54 202t-140 74t-140 -74z" />
    <glyph glyph-name="Gcommaaccent" unicode="&#x122;" horiz-adv-x="1560" 
d="M704 -222q0 48 31 78t77 30q71 0 112 -54q40 -54 40 -123q0 -99 -45 -174q-44 -75 -137 -155l-30 32q79 70 117 129q37 55 37 131q0 16 -11 25t-25 9q-11 0 -27 -10q-23 -12 -45 -12q-40 0 -67 24.5t-27 69.5zM146 712q0 138 38 256.5t104 209.5q49 67 111 120t132.5 90
t147.5 56t155 18q76 -1 145 -12t135 -35q60 -22 94 -22q30 0 47 16.5t35 52.5h44v-471h-44q-34 145 -113 254q-23 32 -48 57t-66 51q-41 27 -99 42t-130 15q-217 0 -336 -179q-118 -178 -118 -519q0 -340 118 -514t336 -174q151 0 235 98q85 97 85 244v146h-282v52h716v-52
h-214l-1 -512h-44q-14 34 -32.5 51.5t-49.5 17.5q-40 0 -117 -31q-159 -64 -296 -64q-134 0 -255.5 49t-218.5 143q-98 93 -156 235q-58 140 -58 311z" />
    <glyph glyph-name="gcommaaccent" unicode="&#x123;" horiz-adv-x="1160" 
d="M416 1165q0 192 182 347l30 -32q-73 -65 -113.5 -128.5t-40.5 -144.5q0 -15 9 -23t23 -8q15 0 33 9q25 11 43 11q40 0 68 -25.5t28 -70.5q0 -24 -8.5 -44.5t-23.5 -35.5t-35 -23.5t-43 -8.5q-73 0 -113 54q-39 54 -39 123zM128 -374q0 75 52.5 132.5t161.5 112.5v7
q-18 0 -37.5 2.5t-51.5 13.5q-21 6 -40.5 18.5t-34.5 31.5t-24.5 46.5t-9.5 63.5q-1 48 11 91.5t35 80.5t55.5 66t73.5 48v4q-125 95 -125 240q0 136 105 226t253 90q85 0 156 -30t122 -84q43 61 75 87q31 27 81 27q60 0 93 -36t33 -90q0 -32 -18.5 -56t-47.5 -24
q-31 0 -45 19t-19 55q-5 32 -12.5 46.5t-26.5 14.5q-48 0 -92 -68q59 -74 59 -177q0 -136 -105 -226t-253 -90q-107 0 -196 50q-132 -56 -132 -178q0 -48 37 -74t109 -26q45 0 161 15q112 15 161 15q139 0 205.5 -75t66.5 -206q0 -174 -129 -295q-131 -122 -329 -122
q-68 0 -135.5 14.5t-121.5 45.5t-87.5 79t-33.5 115zM254 -379q0 -67 40 -112q41 -45 96.5 -61t125.5 -16q85 0 147.5 25.5t99.5 70.5q73 88 73 200q0 31 -9.5 63.5t-32 58t-60 42t-93.5 16.5q-72 0 -230 -28q-75 -49 -116 -110.5t-41 -148.5zM412 786q-54 -74 -54 -202
q0 -129 54 -201q54 -71 140 -71t140 71q54 72 54 201q0 128 -54 202t-140 74t-140 -74z" />
    <glyph glyph-name="Hcircumflex" unicode="&#x124;" horiz-adv-x="1580" 
d="M776 1815l-230 -251h-54l297 324h100l301 -324h-181zM714 52v-52h-592v52h192v1330h-192v52h592v-52h-192v-604h576v604h-192v52h592v-52h-192v-1330h192v-52h-592v52h192v674h-576v-674h192z" />
    <glyph glyph-name="hcircumflex" unicode="&#x125;" horiz-adv-x="1166" 
d="M530 1879l-182 -291h-44l233 374h100l237 -374h-160zM526 48v-48h-448v48h142v1400h-142v48h306v-822l12 -3q48 112 128.5 170.5t183.5 58.5q124 0 193 -85q63 -78 63 -207v-560h142v-48h-448v48h142v596q0 184 -164 184q-32 0 -60.5 -11.5t-53.5 -31.5t-45.5 -47.5
t-36.5 -60.5q-17 -33 -28.5 -64t-16.5 -60q-6 -31 -8.5 -66t-2.5 -75v-364h142z" />
    <glyph glyph-name="Hbar" unicode="&#x126;" horiz-adv-x="1580" 
d="M314 52v980h-218v64h218v286h-192v52h592v-52h-192v-286h576v286h-192v52h592v-52h-192v-286h218v-64h-218v-980h192v-52h-592v52h192v674h-576v-674h192v-52h-592v52h192zM1098 1032h-576v-254h576v254z" />
    <glyph glyph-name="hbar" unicode="&#x127;" horiz-adv-x="1168" 
d="M222 48v1056h-168v56h168v288h-142v48h306v-336h466v-56h-466v-430l12 -3q48 112 128.5 170.5t183.5 58.5q124 0 193 -85q63 -78 63 -207v-560h142v-48h-448v48h142v596q0 184 -164 184q-32 0 -60.5 -11.5t-53.5 -31.5t-45.5 -47.5t-36.5 -60.5q-17 -33 -28.5 -64
t-16.5 -60q-6 -31 -8.5 -66t-2.5 -75v-364h142v-48h-448v48h142z" />
    <glyph glyph-name="Itilde" unicode="&#x128;" horiz-adv-x="796" 
d="M96 1617l-46 18q73 183 224 183q34 0 74 -8q19 -4 32.5 -8t23.5 -8q19 -8 54 -24q16 -8 29 -13.5t24 -10.5q21 -8 57 -16t73 -8q44 0 70 32q13 17 20 30t17 35l46 -18q-74 -183 -224 -183q-32 0 -75 8q-18 4 -32 8t-24 8t-23 10t-30 14q-33 16 -54 24q-20 8 -56 16t-73 8
q-45 0 -70 -33q-12 -16 -19.5 -29t-17.5 -35zM714 52v-52h-592v52h192v1330h-192v52h592v-52h-192v-1330h192z" />
    <glyph glyph-name="itilde" unicode="&#x129;" horiz-adv-x="600" 
d="M40 1094l-36 10q16 81 58.5 125.5t105.5 44.5q64 0 150 -42q85 -42 144 -42q32 0 50 20.5t28 63.5l36 -10q-16 -81 -58.5 -125.5t-105.5 -44.5q-65 0 -150 42q-86 42 -144 42q-32 0 -50 -20.5t-28 -63.5zM532 48v-48h-448v48h142v788h-142v48h306v-836h142z" />
    <glyph glyph-name="Imacron" unicode="&#x12a;" horiz-adv-x="796" 
d="M720 1766v-88h-604v88h604zM714 52v-52h-592v52h192v1330h-192v52h592v-52h-192v-1330h192z" />
    <glyph glyph-name="imacron" unicode="&#x12b;" horiz-adv-x="600" 
d="M546 1222v-88h-512v88h512zM532 48v-48h-448v48h142v788h-142v48h306v-836h142z" />
    <glyph glyph-name="Ibreve" unicode="&#x12c;" horiz-adv-x="796" 
d="M80 1886h48q33 -109 102.5 -163.5t187.5 -54.5q224 0 292 218h48q-32 -157 -119.5 -235.5t-220.5 -78.5q-134 0 -219.5 77.5t-118.5 236.5zM714 52v-52h-592v52h192v1330h-192v52h592v-52h-192v-1330h192z" />
    <glyph glyph-name="ibreve" unicode="&#x12d;" horiz-adv-x="600" 
d="M14 1387h44q48 -197 232 -197t232 197h44q-18 -142 -89.5 -217.5t-186.5 -75.5t-186.5 75.5t-89.5 217.5zM532 48v-48h-448v48h142v788h-142v48h306v-836h142z" />
    <glyph glyph-name="Iogonek" unicode="&#x12e;" horiz-adv-x="796" 
d="M516 -3l-3 3h-391v52h192v1330h-192v52h592v-52h-192v-1330h192v-52h-108q-202 -115 -202 -272q0 -36 10 -60.5t27 -40t40 -22.5t49 -7q54 0 87 38.5t45 102.5l36 -8q-36 -255 -222 -255q-45 0 -90 17q-42 16 -73 58t-31 105q0 109 70 194q35 42 73.5 76t90.5 71z" />
    <glyph glyph-name="iogonek" unicode="&#x12f;" horiz-adv-x="600" 
d="M226 1270q-36 36 -36 88t36 88t88 36t88 -36t36 -88t-36 -88t-88 -36t-88 36zM364 -3l-2 3h-278v48h142v788h-142v48h306v-836h142v-48h-39h-35q-14 -2 -38 -13.5t-49 -33.5q-66 -57 -100.5 -105.5t-34.5 -108.5q0 -54 26 -84.5t77 -30.5q83 0 143 110l26 -12
q-15 -39 -30 -69.5t-40 -64.5t-59.5 -53t-76.5 -19q-70 0 -122 40t-52 119q0 47 15.5 88.5t45.5 80.5t74 76.5t101 76.5z" />
    <glyph glyph-name="Idotaccent" unicode="&#x130;" horiz-adv-x="796" 
d="M349 1653q-27 27 -27 69t27 69t69 27t69 -27t27 -69t-27 -69t-69 -27t-69 27zM714 52v-52h-592v52h192v1330h-192v52h592v-52h-192v-1330h192z" />
    <glyph glyph-name="dotlessi" unicode="&#x131;" horiz-adv-x="600" 
d="M532 48v-48h-448v48h142v788h-142v48h306v-836h142z" />
    <glyph glyph-name="IJ" unicode="&#x132;" horiz-adv-x="1716" 
d="M882 192q0 56 37 96q37 42 93 42q48 0 75 -27t27 -70q0 -38 -32 -86q-11 -17 -17.5 -33.5t-6.5 -30.5q0 -21 16.5 -35t45.5 -14q32 0 55.5 12t35.5 30q21 32 27 71t6 81v1154h-192v52h592v-52h-192v-996q0 -73 -17 -145t-57 -129t-106 -92.5t-164 -35.5q-100 0 -162 53
q-64 55 -64 155zM714 52v-52h-592v52h192v1330h-192v52h592v-52h-192v-1330h192z" />
    <glyph glyph-name="ij" unicode="&#x133;" horiz-adv-x="1180" 
d="M532 48v-48h-448v48h142v788h-142v48h306v-836h142zM226 1270q-36 36 -36 88t36 88t88 36t88 -36t36 -88t-36 -88t-88 -36t-88 36zM488 -402q0 61 28.5 93t70.5 32q32 0 53 -18.5t21 -55.5q0 -27 -9 -64q-10 -41 -10 -71q0 -43 20.5 -68.5t65.5 -25.5q63 0 86.5 64
t23.5 189v1163h-142v48h306v-1041q0 -220 -79 -344q-78 -125 -212 -125q-89 0 -156 63t-67 161zM820 1270q-36 36 -36 88t36 88t88 36t88 -36t36 -88t-36 -88t-88 -36t-88 36z" />
    <glyph glyph-name="Jcircumflex" unicode="&#x134;" horiz-adv-x="930" 
d="M516 1815l-230 -251h-54l297 324h100l301 -324h-181zM96 192q0 56 37 96q37 42 93 42q48 0 75 -27t27 -70q0 -38 -32 -86q-11 -17 -17.5 -33.5t-6.5 -30.5q0 -21 16.5 -35t45.5 -14q32 0 55.5 12t35.5 30q21 32 27 71t6 81v1154h-192v52h592v-52h-192v-996
q0 -73 -17 -145t-57 -129t-106 -92.5t-164 -35.5q-100 0 -162 53q-64 55 -64 155z" />
    <glyph glyph-name="jcircumflex" unicode="&#x135;" horiz-adv-x="580" 
d="M266 1348l-164 -288h-44l213 374h100l217 -374h-156zM-112 -402q0 61 28.5 93t70.5 32q32 0 53 -18.5t21 -55.5q0 -27 -9 -64q-10 -41 -10 -71q0 -43 20.5 -68.5t65.5 -25.5q63 0 86.5 64t23.5 189v1163h-142v48h306v-1041q0 -220 -79 -344q-78 -125 -212 -125
q-89 0 -156 63t-67 161z" />
    <glyph glyph-name="Kcommaaccent" unicode="&#x136;" horiz-adv-x="1598" 
d="M698 -222q0 48 31 78t77 30q71 0 112 -54q40 -54 40 -123q0 -99 -45 -174q-44 -75 -137 -155l-30 32q79 70 117 129q37 55 37 131q0 16 -11 25t-25 9q-11 0 -27 -10q-23 -12 -45 -12q-40 0 -67 24.5t-27 69.5zM714 52v-52h-592v52h192v1330h-192v52h592v-52h-192v-625
l102 47l471 578h-232v52h505v-52h-203l-383 -470l617 -860h175v-52h-681v52h240l-498 694l-113 -52v-642h192z" />
    <glyph glyph-name="kcommaaccent" unicode="&#x137;" horiz-adv-x="1156" 
d="M440 -222q0 48 31 78t77 30q71 0 112 -54q40 -54 40 -123q0 -99 -45 -174q-44 -75 -137 -155l-30 32q79 70 117 129q37 55 37 131q0 16 -11 25t-25 9q-11 0 -27 -10q-23 -12 -45 -12q-40 0 -67 24.5t-27 69.5zM526 48v-48h-448v48h142v1400h-142v48h306v-1000h84l276 340
h-146v48h354v-48h-144l-207 -257l377 -531h126v-48h-496v48h165l-279 400h-110v-400h142z" />
    <glyph glyph-name="kgreenlandic" unicode="&#x138;" horiz-adv-x="1162" 
d="M532 48v-48h-448v48h142v788h-142v48h306v-388h84l276 340h-146v48h354v-48h-144l-207 -257l377 -531h126v-48h-496v48h165l-279 400h-110v-400h142z" />
    <glyph glyph-name="Lacute" unicode="&#x139;" horiz-adv-x="1376" 
d="M694 1704l-314 -148l-22 29l256 239q69 64 130 64q27 0 44.5 -22t17.5 -48q0 -62 -112 -114zM1304 540l-22 -540h-1160v52h192v1330h-192v52h592v-52h-192v-1330h298q102 0 176 31t128 107q28 40 48.5 80t33.5 82q26 85 38 188h60z" />
    <glyph glyph-name="lacute" unicode="&#x13a;" horiz-adv-x="594" 
d="M413 1788l-195 -234l-32 18l106 289q38 101 103 101q32 0 50.5 -19t18.5 -47q0 -47 -51 -108zM526 48v-48h-448v48h142v1400h-142v48h306v-1448h142z" />
    <glyph glyph-name="Lcommaaccent" unicode="&#x13b;" horiz-adv-x="1376" 
d="M614 -222q0 48 31 78t77 30q71 0 112 -54q40 -54 40 -123q0 -99 -45 -174q-44 -75 -137 -155l-30 32q79 70 117 129q37 55 37 131q0 16 -11 25t-25 9q-11 0 -27 -10q-23 -12 -45 -12q-40 0 -67 24.5t-27 69.5zM1304 540l-22 -540h-1160v52h192v1330h-192v52h592v-52h-192
v-1330h298q102 0 176 31t128 107q28 40 48.5 80t33.5 82q26 85 38 188h60z" />
    <glyph glyph-name="lcommaaccent" unicode="&#x13c;" horiz-adv-x="594" 
d="M176 -222q0 48 31 78t77 30q71 0 112 -54q40 -54 40 -123q0 -99 -45 -174q-44 -75 -137 -155l-30 32q79 70 117 129q37 55 37 131q0 16 -11 25t-25 9q-11 0 -27 -10q-23 -12 -45 -12q-40 0 -67 24.5t-27 69.5zM526 48v-48h-448v48h142v1400h-142v48h306v-1448h142z" />
    <glyph glyph-name="Lcaron" unicode="&#x13d;" horiz-adv-x="1376" 
d="M1016 1400q0 24 8.5 44.5t23.5 35.5t35 23.5t43 8.5q71 0 112 -54q40 -54 40 -123q0 -192 -182 -347l-30 32q73 65 113.5 128.5t40.5 144.5q0 15 -9 23t-23 8q-15 0 -33 -9q-25 -11 -43 -11q-40 0 -68 25.5t-28 70.5zM1304 540l-22 -540h-1160v52h192v1330h-192v52h592
v-52h-192v-1330h298q102 0 176 31t128 107q28 40 48.5 80t33.5 82q26 85 38 188h60z" />
    <glyph glyph-name="lcaron" unicode="&#x13e;" horiz-adv-x="716" 
d="M479 971l-27 35q194 137 194 286q0 44 -26 44q-6 0 -24 -8q-14 -8 -28 -8q-40 0 -68 24t-28 67q0 45 27 73t69 28q64 0 99 -47t35 -115q0 -46 -8 -85.5t-30 -89.5q-21 -49 -68 -101t-117 -103zM526 48v-48h-448v48h142v1400h-142v48h306v-1448h142z" />
    <glyph glyph-name="Ldot" unicode="&#x13f;" horiz-adv-x="1376" 
d="M1027 733q-37 37 -37 91t37 91t91 37t91 -37t37 -91t-37 -91q-38 -35 -91 -35t-91 35zM1304 540l-22 -540h-1160v52h192v1330h-192v52h592v-52h-192v-1330h298q102 0 176 31t128 107q28 40 48.5 80t33.5 82q26 85 38 188h60z" />
    <glyph glyph-name="ldot" unicode="&#x140;" horiz-adv-x="938" 
d="M674 632q-36 36 -36 88t36 88t88 36t88 -36t36 -88t-36 -88t-88 -36t-88 36zM526 48v-48h-448v48h142v1400h-142v48h306v-1448h142z" />
    <glyph glyph-name="Lslash" unicode="&#x141;" horiz-adv-x="1376" 
d="M314 571l-206 -150l-38 53l244 177v731h-192v52h592v-52h-192v-580l395 287l38 -53l-433 -314v-670h298q102 0 176 31t128 107q28 40 48.5 80t33.5 82q26 85 38 188h60l-22 -540h-1160v52h192v519z" />
    <glyph glyph-name="lslash" unicode="&#x142;" horiz-adv-x="596" 
d="M222 662l-206 -118l-28 52l234 136v716h-142v48h306v-670l226 130l30 -52l-256 -147v-709h142v-48h-448v48h142v614z" />
    <glyph glyph-name="Nacute" unicode="&#x143;" horiz-adv-x="1526" 
d="M1006 1704l-314 -148l-22 29l256 239q69 64 130 64q27 0 44.5 -22t17.5 -48q0 -62 -112 -114zM574 52v-52h-472v52h204v1330h-204v52h498l610 -1003v951h-204v52h472v-52h-204v-1408h-60l-821 1348q-17 29 -17 60h-6v-1330h204z" />
    <glyph glyph-name="nacute" unicode="&#x144;" horiz-adv-x="1172" 
d="M705 1288l-195 -234l-32 18l106 289q38 101 103 101q32 0 50.5 -19t18.5 -47q0 -47 -51 -108zM532 48v-48h-448v48h142v788h-142v48h306v-210l12 -3q48 112 128.5 170.5t183.5 58.5q124 0 193 -85q63 -78 63 -207v-560h142v-48h-448v48h142v596q0 184 -164 184
q-32 0 -60.5 -11.5t-53.5 -31.5t-45.5 -47.5t-36.5 -60.5q-17 -33 -28.5 -64t-16.5 -60q-6 -31 -8.5 -66t-2.5 -75v-364h142z" />
    <glyph glyph-name="Ncommaaccent" unicode="&#x145;" horiz-adv-x="1526" 
d="M692 -222q0 48 31 78t77 30q71 0 112 -54q40 -54 40 -123q0 -99 -45 -174q-44 -75 -137 -155l-30 32q79 70 117 129q37 55 37 131q0 16 -11 25t-25 9q-11 0 -27 -10q-23 -12 -45 -12q-40 0 -67 24.5t-27 69.5zM574 52v-52h-472v52h204v1330h-204v52h498l610 -1003v951
h-204v52h472v-52h-204v-1408h-60l-821 1348q-17 29 -17 60h-6v-1330h204z" />
    <glyph glyph-name="ncommaaccent" unicode="&#x146;" horiz-adv-x="1172" 
d="M468 -222q0 48 31 78t77 30q71 0 112 -54q40 -54 40 -123q0 -99 -45 -174q-44 -75 -137 -155l-30 32q79 70 117 129q37 55 37 131q0 16 -11 25t-25 9q-11 0 -27 -10q-23 -12 -45 -12q-40 0 -67 24.5t-27 69.5zM532 48v-48h-448v48h142v788h-142v48h306v-210l12 -3
q48 112 128.5 170.5t183.5 58.5q124 0 193 -85q63 -78 63 -207v-560h142v-48h-448v48h142v596q0 184 -164 184q-32 0 -60.5 -11.5t-53.5 -31.5t-45.5 -47.5t-36.5 -60.5q-17 -33 -28.5 -64t-16.5 -60q-6 -31 -8.5 -66t-2.5 -75v-364h142z" />
    <glyph glyph-name="Ncaron" unicode="&#x147;" horiz-adv-x="1526" 
d="M871 1564h-100l-301 324h181l233 -251l230 251h54zM574 52v-52h-472v52h204v1330h-204v52h498l610 -1003v951h-204v52h472v-52h-204v-1408h-60l-821 1348q-17 29 -17 60h-6v-1330h204z" />
    <glyph glyph-name="ncaron" unicode="&#x148;" horiz-adv-x="1172" 
d="M627 1060h-100l-237 374h160l184 -291l182 291h44zM532 48v-48h-448v48h142v788h-142v48h306v-210l12 -3q48 112 128.5 170.5t183.5 58.5q124 0 193 -85q63 -78 63 -207v-560h142v-48h-448v48h142v596q0 184 -164 184q-32 0 -60.5 -11.5t-53.5 -31.5t-45.5 -47.5
t-36.5 -60.5q-17 -33 -28.5 -64t-16.5 -60q-6 -31 -8.5 -66t-2.5 -75v-364h142z" />
    <glyph glyph-name="napostrophe" unicode="&#x149;" horiz-adv-x="1596" 
d="M952 48v-48h-448v48h142v788h-142v48h306v-210l12 -3q48 112 128.5 170.5t183.5 58.5q124 0 193 -85q63 -78 63 -207v-560h142v-48h-448v48h142v596q0 184 -164 184q-32 0 -60.5 -11.5t-53.5 -31.5t-45.5 -47.5t-36.5 -60.5q-17 -33 -28.5 -64t-16.5 -60q-6 -31 -8.5 -66
t-2.5 -75v-364h142zM82 1400q0 24 8.5 44.5t23.5 35.5t35 23.5t43 8.5q71 0 112 -54q40 -54 40 -123q0 -192 -182 -347l-30 32q73 65 113.5 128.5t40.5 144.5q0 15 -9 23t-23 8q-15 0 -33 -9q-25 -11 -43 -11q-40 0 -68 25.5t-28 70.5z" />
    <glyph glyph-name="Eng" unicode="&#x14a;" horiz-adv-x="1526" 
d="M574 52v-52h-472v52h204v1330h-204v52h498l610 -1003v951h-204v52h472v-52h-204v-1604q0 -51 -4.5 -91t-20.5 -82q-11 -30 -29.5 -55t-46.5 -42.5t-66 -27.5t-89 -10q-108 0 -175 52q-68 51 -68 151q0 54 29 89.5t77 35.5q45 0 64 -26t19 -62q0 -20 -16 -64
q-16 -45 -16 -66q0 -54 96 -54q117 0 153 73q17 36 23 72t6 89v218l-817 1344q-17 29 -17 60h-6v-1330h204z" />
    <glyph glyph-name="eng" unicode="&#x14b;" horiz-adv-x="1094" 
d="M532 48v-48h-448v48h142v788h-142v48h306v-210l12 -3q48 112 128.5 170.5t183.5 58.5q124 0 193 -85q63 -78 63 -207v-804q0 -216 -82.5 -324t-229.5 -108q-98 0 -170 57q-72 55 -72 153q0 61 28.5 94t70.5 33q34 0 55 -18.5t21 -55.5q0 -29 -9 -66q-5 -22 -7.5 -40.5
t-2.5 -32.5q0 -78 103 -78q69 0 100 52t31 164v1010q0 184 -164 184q-32 0 -60.5 -11.5t-53.5 -31.5t-45.5 -47.5t-36.5 -60.5q-17 -33 -28.5 -64t-16.5 -60q-6 -31 -8.5 -66t-2.5 -75v-364h142z" />
    <glyph glyph-name="Omacron" unicode="&#x14c;" horiz-adv-x="1618" 
d="M1136 1766v-88h-604v88h604zM146 712q0 138 38 256.5t104 209.5q49 67 111 120t132.5 89.5t147.5 56t155 18.5q106 -2 205.5 -33t187.5 -97t153 -154q66 -91 104 -209.5t38 -256.5q0 -166 -59 -311q-59 -143 -155 -235q-97 -94 -218.5 -143t-255.5 -49t-255.5 49
t-218.5 143q-98 93 -156 235q-58 140 -58 311zM380 712q0 -340 118 -514t336 -174t336 174t118 514t-119 519t-335 179q-217 0 -336 -179q-118 -178 -118 -519z" />
    <glyph glyph-name="omacron" unicode="&#x14d;" horiz-adv-x="1040" 
d="M808 1222v-88h-576v88h576zM218 114q-122 131 -122 328t122 328q123 130 302 130q180 0 301 -130q123 -131 123 -328q0 -198 -123 -328q-119 -128 -301 -128q-181 0 -302 128zM340 753q-60 -99 -60 -311t60 -311q61 -99 180 -99q117 0 179 99q61 99 61 311t-61 311
q-62 99 -179 99q-119 0 -180 -99z" />
    <glyph glyph-name="Obreve" unicode="&#x14e;" horiz-adv-x="1618" 
d="M496 1886h48q33 -109 102.5 -163.5t187.5 -54.5q224 0 292 218h48q-32 -157 -119.5 -235.5t-220.5 -78.5q-134 0 -219.5 77.5t-118.5 236.5zM146 712q0 138 38 256.5t104 209.5q49 67 111 120t132.5 89.5t147.5 56t155 18.5q106 -2 205.5 -33t187.5 -97t153 -154
q66 -91 104 -209.5t38 -256.5q0 -166 -59 -311q-59 -143 -155 -235q-97 -94 -218.5 -143t-255.5 -49t-255.5 49t-218.5 143q-98 93 -156 235q-58 140 -58 311zM380 712q0 -340 118 -514t336 -174t336 174t118 514t-119 519t-335 179q-217 0 -336 -179q-118 -178 -118 -519z
" />
    <glyph glyph-name="obreve" unicode="&#x14f;" horiz-adv-x="1040" 
d="M224 1394h48q20 -104 78.5 -157t169.5 -53t169.5 53t78.5 157h48q-15 -142 -95 -225q-80 -81 -201 -81q-123 0 -202 81q-79 82 -94 225zM218 114q-122 131 -122 328t122 328q123 130 302 130q180 0 301 -130q123 -131 123 -328q0 -198 -123 -328q-119 -128 -301 -128
q-181 0 -302 128zM340 753q-60 -99 -60 -311t60 -311q61 -99 180 -99q117 0 179 99q61 99 61 311t-61 311q-62 99 -179 99q-119 0 -180 -99z" />
    <glyph glyph-name="Ohungarumlaut" unicode="&#x150;" horiz-adv-x="1618" 
d="M908 1736l-237 -180l-27 27l181 241q27 35 47.5 49.5t52.5 14.5q25 0 39 -18.5t14 -39.5q0 -42 -70 -94zM1198 1736l-237 -180l-27 27l181 241q27 35 47.5 49.5t52.5 14.5q25 0 39 -18.5t14 -39.5q0 -42 -70 -94zM146 712q0 138 38 256.5t104 209.5q49 67 111 120
t132.5 89.5t147.5 56t155 18.5q106 -2 205.5 -33t187.5 -97t153 -154q66 -91 104 -209.5t38 -256.5q0 -166 -59 -311q-59 -143 -155 -235q-97 -94 -218.5 -143t-255.5 -49t-255.5 49t-218.5 143q-98 93 -156 235q-58 140 -58 311zM380 712q0 -340 118 -514t336 -174t336 174
t118 514t-119 519t-335 179q-217 0 -336 -179q-118 -178 -118 -519z" />
    <glyph glyph-name="ohungarumlaut" unicode="&#x151;" horiz-adv-x="1040" 
d="M575 1286l-191 -230l-36 20l120 281q45 105 106 105q31 0 47.5 -19t16.5 -45q0 -36 -63 -112zM849 1286l-191 -230l-36 20l120 281q45 105 106 105q31 0 47.5 -19t16.5 -45q0 -36 -63 -112zM218 114q-122 131 -122 328t122 328q123 130 302 130q180 0 301 -130
q123 -131 123 -328q0 -198 -123 -328q-119 -128 -301 -128q-181 0 -302 128zM340 753q-60 -99 -60 -311t60 -311q61 -99 180 -99q117 0 179 99q61 99 61 311t-61 311q-62 99 -179 99q-119 0 -180 -99z" />
    <glyph glyph-name="OE" unicode="&#x152;" horiz-adv-x="2094" 
d="M146 712q0 138 38 256.5t104 209.5q49 67 111 120t132.5 90t147.5 56t155 18q32 -1 69.5 -5t80.5 -12q28 -5 61 -8t72 -3h793l10 -376h-52q-8 39 -15 65q-3 12 -10 30.5t-16.5 39.5t-22 43t-26.5 42q-74 104 -228 104h-360v-608h186q96 0 170 110q22 34 38 95
q16 58 16 89h48v-634h-48q0 31 -16 89q-16 61 -38 95q-71 108 -170 108h-186v-674h337q223 0 321 135q48 65 67 119q10 27 18.5 61.5t16.5 79.5h52l-6 -447h-879q-40 0 -73.5 -2t-59.5 -7q-91 -17 -150 -17q-134 0 -255.5 49t-218.5 143q-98 93 -156 235q-58 140 -58 311z
M380 712q0 -340 118 -514t336 -174q49 0 79.5 9.5t44.5 31.5q15 22 19.5 46t4.5 63v1086q0 39 -4.5 63t-19.5 46q-14 22 -44.5 31.5t-79.5 9.5q-217 0 -336 -179q-118 -178 -118 -519z" />
    <glyph glyph-name="oe" unicode="&#x153;" horiz-adv-x="1556" 
d="M501 900q94 0 174.5 -41.5t134.5 -116.5h4q111 158 319 158q78 0 141 -32t105 -83t63.5 -109.5t21.5 -116.5q0 -43 -14 -61t-56 -18h-488q0 -432 259 -432q101 0 164 71q64 70 77 178h52q-6 -116 -83 -211q-38 -46 -101 -73t-142 -27q-100 0 -181.5 39.5t-136.5 117.5h-4
q-57 -76 -136 -116.5t-173 -40.5q-173 0 -288 128q-117 130 -117 328q0 197 117 328q117 130 288 130zM335 753q-55 -97 -55 -311t55 -311q55 -99 166 -99q109 0 165 99q56 101 56 311t-56 311q-56 99 -165 99q-111 0 -166 -99zM907 528h323q39 0 50.5 23t11.5 74
q0 41 -10 81.5t-32 73t-56 52.5t-82 20q-57 0 -96 -29t-63.5 -75.5t-35 -104t-10.5 -115.5z" />
    <glyph glyph-name="Racute" unicode="&#x154;" horiz-adv-x="1490" 
d="M842 1704l-314 -148l-22 29l256 239q69 64 130 64q27 0 44.5 -22t17.5 -48q0 -62 -112 -114zM714 52v-52h-592v52h192v1330h-192v52h604q115 0 202 -30t138 -82q51 -51 75.5 -111.5t24.5 -127.5q0 -130 -76 -208.5t-208 -108.5v-12q153 -24 233 -107q81 -83 81 -193v-218
q0 -105 35 -148.5t116 -43.5q55 0 119 23l12 -50q-51 -15 -103 -23t-106 -8q-49 0 -94 10.5t-90 36.5t-71 78t-26 124v234q0 114 -61 190q-60 77 -181 77h-224v-684h192zM710 1382h-188v-594h256q54 0 90.5 21t55.5 60q19 40 26.5 86.5t7.5 109.5q0 118 -55 214
q-28 48 -77.5 75.5t-115.5 27.5z" />
    <glyph glyph-name="racute" unicode="&#x155;" horiz-adv-x="884" 
d="M613 1288l-195 -234l-32 18l106 289q38 101 103 101q32 0 50.5 -19t18.5 -47q0 -47 -51 -108zM532 48v-48h-448v48h142v788h-142v48h306v-210l10 -3q51 123 110 176q62 53 152 53q36 0 65 -12t50 -33.5t32 -51t11 -63.5q0 -53 -27 -93q-27 -39 -75 -39q-25 0 -43.5 15
t-18.5 41t9 67q7 29 7 57q0 56 -61 56q-54 0 -91 -37t-70 -104q-60 -119 -60 -291v-364h142z" />
    <glyph glyph-name="Rcommaaccent" unicode="&#x156;" horiz-adv-x="1490" 
d="M702 -222q0 48 31 78t77 30q71 0 112 -54q40 -54 40 -123q0 -99 -45 -174q-44 -75 -137 -155l-30 32q79 70 117 129q37 55 37 131q0 16 -11 25t-25 9q-11 0 -27 -10q-23 -12 -45 -12q-40 0 -67 24.5t-27 69.5zM714 52v-52h-592v52h192v1330h-192v52h604q115 0 202 -30
t138 -82q51 -51 75.5 -111.5t24.5 -127.5q0 -130 -76 -208.5t-208 -108.5v-12q153 -24 233 -107q81 -83 81 -193v-218q0 -105 35 -148.5t116 -43.5q55 0 119 23l12 -50q-51 -15 -103 -23t-106 -8q-49 0 -94 10.5t-90 36.5t-71 78t-26 124v234q0 114 -61 190q-60 77 -181 77
h-224v-684h192zM710 1382h-188v-594h256q54 0 90.5 21t55.5 60q19 40 26.5 86.5t7.5 109.5q0 118 -55 214q-28 48 -77.5 75.5t-115.5 27.5z" />
    <glyph glyph-name="rcommaaccent" unicode="&#x157;" horiz-adv-x="884" 
d="M182 -222q0 48 31 78t77 30q71 0 112 -54q40 -54 40 -123q0 -99 -45 -174q-44 -75 -137 -155l-30 32q79 70 117 129q37 55 37 131q0 16 -11 25t-25 9q-11 0 -27 -10q-23 -12 -45 -12q-40 0 -67 24.5t-27 69.5zM532 48v-48h-448v48h142v788h-142v48h306v-210l10 -3
q51 123 110 176q62 53 152 53q36 0 65 -12t50 -33.5t32 -51t11 -63.5q0 -53 -27 -93q-27 -39 -75 -39q-25 0 -43.5 15t-18.5 41t9 67q7 29 7 57q0 56 -61 56q-54 0 -91 -37t-70 -104q-60 -119 -60 -291v-364h142z" />
    <glyph glyph-name="Rcaron" unicode="&#x158;" horiz-adv-x="1490" 
d="M707 1564h-100l-301 324h181l233 -251l230 251h54zM714 52v-52h-592v52h192v1330h-192v52h604q115 0 202 -30t138 -82q51 -51 75.5 -111.5t24.5 -127.5q0 -130 -76 -208.5t-208 -108.5v-12q153 -24 233 -107q81 -83 81 -193v-218q0 -105 35 -148.5t116 -43.5q55 0 119 23
l12 -50q-51 -15 -103 -23t-106 -8q-49 0 -94 10.5t-90 36.5t-71 78t-26 124v234q0 114 -61 190q-60 77 -181 77h-224v-684h192zM710 1382h-188v-594h256q54 0 90.5 21t55.5 60q19 40 26.5 86.5t7.5 109.5q0 118 -55 214q-28 48 -77.5 75.5t-115.5 27.5z" />
    <glyph glyph-name="rcaron" unicode="&#x159;" horiz-adv-x="884" 
d="M535 1060h-100l-237 374h160l184 -291l182 291h44zM532 48v-48h-448v48h142v788h-142v48h306v-210l10 -3q51 123 110 176q62 53 152 53q36 0 65 -12t50 -33.5t32 -51t11 -63.5q0 -53 -27 -93q-27 -39 -75 -39q-25 0 -43.5 15t-18.5 41t9 67q7 29 7 57q0 56 -61 56
q-54 0 -91 -37t-70 -104q-60 -119 -60 -291v-364h142z" />
    <glyph glyph-name="Sacute" unicode="&#x15a;" horiz-adv-x="1272" 
d="M862 1704l-314 -148l-22 29l256 239q69 64 130 64q27 0 44.5 -22t17.5 -48q0 -62 -112 -114zM242 -26h-44l-10 502h44q29 -153 113 -268q63 -88 151 -136t194 -48q153 0 239 77q87 76 87 211q0 126 -87.5 208t-276.5 130q-72 18 -128 38.5t-113 53.5q-83 48 -130.5 121
t-48.5 186q-2 93 27.5 167t87.5 132q115 114 317 114q90 0 164 -31q37 -16 62 -23t39 -7q42 0 55 61h44l4 -371h-44q-17 49 -40.5 96t-54.5 92q-37 55 -106 93q-68 38 -136 38q-129 0 -205 -73q-78 -74 -78 -176q0 -51 22 -92.5t53 -68.5q15 -13 36 -26t48 -26
q26 -12 49.5 -21t43.5 -16q20 -6 45.5 -13.5t56.5 -15.5q110 -30 187.5 -66.5t136.5 -90.5q60 -54 89 -130t29 -179q0 -199 -138 -322q-135 -120 -339 -120q-117 0 -251 61q-57 27 -79 27q-23 0 -39 -4.5t-29 -15t-24 -27t-23 -41.5z" />
    <glyph glyph-name="sacute" unicode="&#x15b;" horiz-adv-x="840" 
d="M561 1288l-195 -234l-32 18l106 289q38 101 103 101q32 0 50.5 -19t18.5 -47q0 -47 -51 -108zM159 -14h-33v346h36q11 -35 21.5 -63t22 -52.5t24 -47t27.5 -45.5q62 -92 167 -92q103 0 157.5 38.5t54.5 111.5q0 72 -53 114q-53 44 -191 87q-65 20 -108 41t-81 53
q-75 63 -75 187q0 107 70 171q71 65 166 65q75 0 155 -31q40 -15 56 -15q50 0 75 46h35v-281h-40q-31 85 -72 139q-36 49 -85.5 71.5t-129.5 22.5q-29 0 -52 -10t-39.5 -26.5t-25.5 -39t-9 -46.5q0 -32 10 -56.5t27 -42.5t48 -34q17 -8 32.5 -15.5t29.5 -13.5
q15 -6 36 -13.5t47 -16.5q161 -56 227 -117q67 -61 67 -169q0 -121 -81 -194q-78 -72 -247 -72q-34 0 -69 5.5t-73 15.5q-25 8 -45.5 11t-37.5 3q-30 0 -44 -35z" />
    <glyph glyph-name="Scircumflex" unicode="&#x15c;" horiz-adv-x="1272" 
d="M642 1815l-230 -251h-54l297 324h100l301 -324h-181zM242 -26h-44l-10 502h44q29 -153 113 -268q63 -88 151 -136t194 -48q153 0 239 77q87 76 87 211q0 126 -87.5 208t-276.5 130q-72 18 -128 38.5t-113 53.5q-83 48 -130.5 121t-48.5 186q-2 93 27.5 167t87.5 132
q115 114 317 114q90 0 164 -31q37 -16 62 -23t39 -7q42 0 55 61h44l4 -371h-44q-17 49 -40.5 96t-54.5 92q-37 55 -106 93q-68 38 -136 38q-129 0 -205 -73q-78 -74 -78 -176q0 -51 22 -92.5t53 -68.5q15 -13 36 -26t48 -26q26 -12 49.5 -21t43.5 -16q20 -6 45.5 -13.5
t56.5 -15.5q110 -30 187.5 -66.5t136.5 -90.5q60 -54 89 -130t29 -179q0 -199 -138 -322q-135 -120 -339 -120q-117 0 -251 61q-57 27 -79 27q-23 0 -39 -4.5t-29 -15t-24 -27t-23 -41.5z" />
    <glyph glyph-name="scircumflex" unicode="&#x15d;" horiz-adv-x="840" 
d="M396 1351l-182 -291h-44l233 374h100l237 -374h-160zM159 -14h-33v346h36q11 -35 21.5 -63t22 -52.5t24 -47t27.5 -45.5q62 -92 167 -92q103 0 157.5 38.5t54.5 111.5q0 72 -53 114q-53 44 -191 87q-65 20 -108 41t-81 53q-75 63 -75 187q0 107 70 171q71 65 166 65
q75 0 155 -31q40 -15 56 -15q50 0 75 46h35v-281h-40q-31 85 -72 139q-36 49 -85.5 71.5t-129.5 22.5q-29 0 -52 -10t-39.5 -26.5t-25.5 -39t-9 -46.5q0 -32 10 -56.5t27 -42.5t48 -34q17 -8 32.5 -15.5t29.5 -13.5q15 -6 36 -13.5t47 -16.5q161 -56 227 -117
q67 -61 67 -169q0 -121 -81 -194q-78 -72 -247 -72q-34 0 -69 5.5t-73 15.5q-25 8 -45.5 11t-37.5 3q-30 0 -44 -35z" />
    <glyph glyph-name="Scedilla" unicode="&#x15e;" horiz-adv-x="1272" 
d="M440 -418q0 27 8 49t22.5 37.5t33.5 24.5t40 9q31 0 49 -18t18 -43q0 -41 -34 -69q-31 -28 -31 -62q0 -56 97 -56q32 0 62 19t48 50q33 55 33 141q0 40 -22.5 64.5t-70.5 38.5q-65 20 -65 56q0 25 32 87l60 -19q-20 -45 -20 -55q0 -13 10.5 -19.5t41.5 -16.5
q63 -20 108 -66q46 -46 46 -119q0 -85 -50 -144q-59 -69 -186 -69q-96 0 -164 47q-66 46 -66 133zM242 -26h-44l-10 502h44q29 -153 113 -268q63 -88 151 -136t194 -48q153 0 239 77q87 76 87 211q0 126 -87.5 208t-276.5 130q-72 18 -128 38.5t-113 53.5q-83 48 -130.5 121
t-48.5 186q-2 93 27.5 167t87.5 132q115 114 317 114q90 0 164 -31q37 -16 62 -23t39 -7q42 0 55 61h44l4 -371h-44q-17 49 -40.5 96t-54.5 92q-37 55 -106 93q-68 38 -136 38q-129 0 -205 -73q-78 -74 -78 -176q0 -51 22 -92.5t53 -68.5q15 -13 36 -26t48 -26
q26 -12 49.5 -21t43.5 -16q20 -6 45.5 -13.5t56.5 -15.5q110 -30 187.5 -66.5t136.5 -90.5q60 -54 89 -130t29 -179q0 -199 -138 -322q-135 -120 -339 -120q-117 0 -251 61q-57 27 -79 27q-23 0 -39 -4.5t-29 -15t-24 -27t-23 -41.5z" />
    <glyph glyph-name="scedilla" unicode="&#x15f;" horiz-adv-x="840" 
d="M220 -335q0 43 24.5 70t59.5 27q26 0 40 -14t14 -34q0 -31 -26 -54q-24 -21 -24 -48q0 -44 80 -44q52 0 84 53q30 51 30 109q0 57 -76 79q-54 16 -54 47q0 17 25 66l49 -14q-14 -26 -14 -38q0 -11 8 -16t32 -12q26 -8 49 -21.5t40 -32.5t27 -43t10 -53q0 -73 -40 -116
q-50 -56 -148 -56q-80 0 -136 38q-54 37 -54 107zM159 -14h-33v346h36q11 -35 21.5 -63t22 -52.5t24 -47t27.5 -45.5q62 -92 167 -92q103 0 157.5 38.5t54.5 111.5q0 72 -53 114q-53 44 -191 87q-65 20 -108 41t-81 53q-75 63 -75 187q0 107 70 171q71 65 166 65
q75 0 155 -31q40 -15 56 -15q50 0 75 46h35v-281h-40q-31 85 -72 139q-36 49 -85.5 71.5t-129.5 22.5q-29 0 -52 -10t-39.5 -26.5t-25.5 -39t-9 -46.5q0 -32 10 -56.5t27 -42.5t48 -34q17 -8 32.5 -15.5t29.5 -13.5q15 -6 36 -13.5t47 -16.5q161 -56 227 -117
q67 -61 67 -169q0 -121 -81 -194q-78 -72 -247 -72q-34 0 -69 5.5t-73 15.5q-25 8 -45.5 11t-37.5 3q-30 0 -44 -35z" />
    <glyph glyph-name="Scaron" unicode="&#x160;" horiz-adv-x="1272" 
d="M727 1564h-100l-301 324h181l233 -251l230 251h54zM242 -26h-44l-10 502h44q29 -153 113 -268q63 -88 151 -136t194 -48q153 0 239 77q87 76 87 211q0 126 -87.5 208t-276.5 130q-72 18 -128 38.5t-113 53.5q-83 48 -130.5 121t-48.5 186q-2 93 27.5 167t87.5 132
q115 114 317 114q90 0 164 -31q37 -16 62 -23t39 -7q42 0 55 61h44l4 -371h-44q-17 49 -40.5 96t-54.5 92q-37 55 -106 93q-68 38 -136 38q-129 0 -205 -73q-78 -74 -78 -176q0 -51 22 -92.5t53 -68.5q15 -13 36 -26t48 -26q26 -12 49.5 -21t43.5 -16q20 -6 45.5 -13.5
t56.5 -15.5q110 -30 187.5 -66.5t136.5 -90.5q60 -54 89 -130t29 -179q0 -199 -138 -322q-135 -120 -339 -120q-117 0 -251 61q-57 27 -79 27q-23 0 -39 -4.5t-29 -15t-24 -27t-23 -41.5z" />
    <glyph glyph-name="scaron" unicode="&#x161;" horiz-adv-x="840" 
d="M483 1060h-100l-237 374h160l184 -291l182 291h44zM159 -14h-33v346h36q11 -35 21.5 -63t22 -52.5t24 -47t27.5 -45.5q62 -92 167 -92q103 0 157.5 38.5t54.5 111.5q0 72 -53 114q-53 44 -191 87q-65 20 -108 41t-81 53q-75 63 -75 187q0 107 70 171q71 65 166 65
q75 0 155 -31q40 -15 56 -15q50 0 75 46h35v-281h-40q-31 85 -72 139q-36 49 -85.5 71.5t-129.5 22.5q-29 0 -52 -10t-39.5 -26.5t-25.5 -39t-9 -46.5q0 -32 10 -56.5t27 -42.5t48 -34q17 -8 32.5 -15.5t29.5 -13.5q15 -6 36 -13.5t47 -16.5q161 -56 227 -117
q67 -61 67 -169q0 -121 -81 -194q-78 -72 -247 -72q-34 0 -69 5.5t-73 15.5q-25 8 -45.5 11t-37.5 3q-30 0 -44 -35z" />
    <glyph glyph-name="Tcommaaccent" unicode="&#x162;" horiz-adv-x="1564" 
d="M564 -418q0 27 8 49t22.5 37.5t33.5 24.5t40 9q31 0 49 -18t18 -43q0 -41 -34 -69q-31 -28 -31 -62q0 -56 97 -56q32 0 62 19t48 50q33 55 33 141q0 40 -22.5 64.5t-70.5 38.5q-65 20 -65 56q0 25 32 87l60 -19q-20 -45 -20 -55q0 -13 10.5 -19.5t41.5 -16.5
q63 -20 108 -66q46 -46 46 -119q0 -85 -50 -144q-59 -69 -186 -69q-96 0 -164 47q-66 46 -66 133zM186 846h-52l24 588h1308l24 -588h-52q-22 244 -110 374q-110 162 -284 162h-128v-1330h192v-52h-592v52h192v1330h-128q-175 0 -284 -162q-88 -130 -110 -374z" />
    <glyph glyph-name="tcommaaccent" unicode="&#x163;" horiz-adv-x="770" 
d="M204 -335q0 43 24.5 70t59.5 27q26 0 40 -14t14 -34q0 -31 -26 -54q-24 -21 -24 -48q0 -44 80 -44q52 0 84 53q30 51 30 109q0 57 -76 79q-54 16 -54 47q0 17 25 66l49 -14q-14 -26 -14 -38q0 -11 8 -16t32 -12q26 -8 49 -21.5t40 -32.5t27 -43t10 -53q0 -73 -40 -116
q-50 -56 -148 -56q-80 0 -136 38q-54 37 -54 107zM230 196v640h-174v48h174v196q60 0 84.5 8.5t32.5 32.5q11 28 21 35q11 8 47 8q-11 -73 -17 -142t-6 -138h228v-48h-228v-646q0 -69 28 -95.5t86 -26.5q61 0 96 62t40 142h48q-4 -54 -19.5 -105.5t-44.5 -91.5t-73.5 -64.5
t-105.5 -24.5q-41 0 -80 10.5t-69.5 35t-49 65t-18.5 99.5z" />
    <glyph glyph-name="Tcaron" unicode="&#x164;" horiz-adv-x="1564" 
d="M863 1564h-100l-301 324h181l233 -251l230 251h54zM186 846h-52l24 588h1308l24 -588h-52q-22 244 -110 374q-110 162 -284 162h-128v-1330h192v-52h-592v52h192v1330h-128q-175 0 -284 -162q-88 -130 -110 -374z" />
    <glyph glyph-name="tcaron" unicode="&#x165;" horiz-adv-x="770" 
d="M487 971l-27 35q194 137 194 286q0 44 -26 44q-6 0 -24 -8q-14 -8 -28 -8q-40 0 -68 24t-28 67q0 45 27 73t69 28q64 0 99 -47t35 -115q0 -46 -8 -85.5t-30 -89.5q-21 -49 -68 -101t-117 -103zM230 196v640h-174v48h174v196q60 0 84.5 8.5t32.5 32.5q11 28 21 35
q11 8 47 8q-11 -73 -17 -142t-6 -138h228v-48h-228v-646q0 -69 28 -95.5t86 -26.5q61 0 96 62t40 142h48q-4 -54 -19.5 -105.5t-44.5 -91.5t-73.5 -64.5t-105.5 -24.5q-41 0 -80 10.5t-69.5 35t-49 65t-18.5 99.5z" />
    <glyph glyph-name="Tbar" unicode="&#x166;" horiz-adv-x="1574" 
d="M186 846h-52l24 588h1308l24 -588h-52q-22 244 -110 374q-110 162 -284 162h-128v-604h276v-64h-276v-662h192v-52h-592v52h192v662h-276v64h276v604h-128q-175 0 -284 -162q-88 -130 -110 -374z" />
    <glyph glyph-name="tbar" unicode="&#x167;" horiz-adv-x="770" 
d="M230 196v390h-174v54h174v196h-174v48h174v196q60 0 84.5 8.5t32.5 32.5q11 28 21 35q11 8 47 8q-11 -73 -17 -142t-6 -138h228v-48h-228v-196h228v-54h-228v-396q0 -69 28 -95.5t86 -26.5q61 0 96 62t40 142h48q-4 -54 -19.5 -105.5t-44.5 -91.5t-73.5 -64.5
t-105.5 -24.5q-41 0 -80 10.5t-69.5 35t-49 65t-18.5 99.5z" />
    <glyph glyph-name="Utilde" unicode="&#x168;" horiz-adv-x="1540" 
d="M506 1617l-46 18q73 183 224 183q34 0 74 -8q19 -4 32.5 -8t23.5 -8q19 -8 54 -24q16 -8 29 -13.5t24 -10.5q21 -8 57 -16t73 -8q44 0 70 32q13 17 20 30t17 35l46 -18q-74 -183 -224 -183q-32 0 -75 8q-18 4 -32 8t-24 8t-23 10t-30 14q-33 16 -54 24q-20 8 -56 16
t-73 8q-45 0 -70 -33q-12 -16 -19.5 -29t-17.5 -35zM280 436v946h-192v52h592v-52h-192v-1058q0 -88 24.5 -148t69.5 -92q46 -33 100 -46.5t124 -13.5q192 0 304 100q114 100 114 290v968h-204v52h472v-52h-204v-976q0 -211 -130 -323q-127 -109 -352 -109q-526 0 -526 462z
" />
    <glyph glyph-name="utilde" unicode="&#x169;" horiz-adv-x="1156" 
d="M270 1068l-44 8q30 208 176 208q63 0 170 -49q100 -45 156 -45q38 0 55 33q9 17 13.5 31.5t9.5 39.5l44 -8q-30 -208 -176 -208q-63 0 -170 49q-101 45 -156 45q-40 0 -56 -33q-8 -17 -12.5 -31.5t-9.5 -39.5zM202 276v560h-142v48h306v-644q0 -184 164 -184
q31 0 60 11.5t53.5 31.5t45.5 47.5t37 60.5q34 69 44 124q12 58 12 141v364h-142v48h306v-836h142v-48h-306v210l-12 3q-48 -112 -128.5 -169.5t-183.5 -57.5q-126 0 -193 83q-63 78 -63 207z" />
    <glyph glyph-name="Umacron" unicode="&#x16a;" horiz-adv-x="1540" 
d="M1134 1766v-88h-604v88h604zM280 436v946h-192v52h592v-52h-192v-1058q0 -88 24.5 -148t69.5 -92q46 -33 100 -46.5t124 -13.5q192 0 304 100q114 100 114 290v968h-204v52h472v-52h-204v-976q0 -211 -130 -323q-127 -109 -352 -109q-526 0 -526 462z" />
    <glyph glyph-name="umacron" unicode="&#x16b;" horiz-adv-x="1156" 
d="M826 1222v-88h-576v88h576zM202 276v560h-142v48h306v-644q0 -184 164 -184q31 0 60 11.5t53.5 31.5t45.5 47.5t37 60.5q34 69 44 124q12 58 12 141v364h-142v48h306v-836h142v-48h-306v210l-12 3q-48 -112 -128.5 -169.5t-183.5 -57.5q-126 0 -193 83q-63 78 -63 207z
" />
    <glyph glyph-name="Ubreve" unicode="&#x16c;" horiz-adv-x="1540" 
d="M494 1886h48q33 -109 102.5 -163.5t187.5 -54.5q224 0 292 218h48q-32 -157 -119.5 -235.5t-220.5 -78.5q-134 0 -219.5 77.5t-118.5 236.5zM280 436v946h-192v52h592v-52h-192v-1058q0 -88 24.5 -148t69.5 -92q46 -33 100 -46.5t124 -13.5q192 0 304 100
q114 100 114 290v968h-204v52h472v-52h-204v-976q0 -211 -130 -323q-127 -109 -352 -109q-526 0 -526 462z" />
    <glyph glyph-name="ubreve" unicode="&#x16d;" horiz-adv-x="1156" 
d="M242 1394h48q20 -104 78.5 -157t169.5 -53t169.5 53t78.5 157h48q-15 -142 -95 -225q-80 -81 -201 -81q-123 0 -202 81q-79 82 -94 225zM202 276v560h-142v48h306v-644q0 -184 164 -184q31 0 60 11.5t53.5 31.5t45.5 47.5t37 60.5q34 69 44 124q12 58 12 141v364h-142v48
h306v-836h142v-48h-306v210l-12 3q-48 -112 -128.5 -169.5t-183.5 -57.5q-126 0 -193 83q-63 78 -63 207z" />
    <glyph glyph-name="Uring" unicode="&#x16e;" horiz-adv-x="1540" 
d="M641 1592q-75 55 -75 146q0 90 75 146q77 56 191 56t191 -56q75 -56 75 -146q0 -91 -75 -146q-77 -56 -191 -56t-191 56zM684 1837q-54 -38 -54 -99q0 -63 54 -100q54 -38 148 -38t148 38q54 37 54 100q0 61 -54 99q-54 39 -148 39t-148 -39zM280 436v946h-192v52h592
v-52h-192v-1058q0 -88 24.5 -148t69.5 -92q46 -33 100 -46.5t124 -13.5q192 0 304 100q114 100 114 290v968h-204v52h472v-52h-204v-976q0 -211 -130 -323q-127 -109 -352 -109q-526 0 -526 462z" />
    <glyph glyph-name="uring" unicode="&#x16f;" horiz-adv-x="1156" 
d="M373 1093q-65 65 -65 165q0 99 65 164q66 66 165 66q98 0 164 -66t66 -164q0 -99 -66 -165q-65 -65 -164 -65q-100 0 -165 65zM364 1258q0 -74 50 -124t124 -50t124 50t50 124t-50 124t-124 50q-72 0 -123 -51q-51 -50 -51 -123zM202 276v560h-142v48h306v-644
q0 -184 164 -184q31 0 60 11.5t53.5 31.5t45.5 47.5t37 60.5q34 69 44 124q12 58 12 141v364h-142v48h306v-836h142v-48h-306v210l-12 3q-48 -112 -128.5 -169.5t-183.5 -57.5q-126 0 -193 83q-63 78 -63 207z" />
    <glyph glyph-name="Uhungarumlaut" unicode="&#x170;" horiz-adv-x="1540" 
d="M906 1736l-237 -180l-27 27l181 241q27 35 47.5 49.5t52.5 14.5q25 0 39 -18.5t14 -39.5q0 -42 -70 -94zM1196 1736l-237 -180l-27 27l181 241q27 35 47.5 49.5t52.5 14.5q25 0 39 -18.5t14 -39.5q0 -42 -70 -94zM280 436v946h-192v52h592v-52h-192v-1058
q0 -88 24.5 -148t69.5 -92q46 -33 100 -46.5t124 -13.5q192 0 304 100q114 100 114 290v968h-204v52h472v-52h-204v-976q0 -211 -130 -323q-127 -109 -352 -109q-526 0 -526 462z" />
    <glyph glyph-name="uhungarumlaut" unicode="&#x171;" horiz-adv-x="1156" 
d="M593 1286l-191 -230l-36 20l120 281q45 105 106 105q31 0 47.5 -19t16.5 -45q0 -36 -63 -112zM867 1286l-191 -230l-36 20l120 281q45 105 106 105q31 0 47.5 -19t16.5 -45q0 -36 -63 -112zM202 276v560h-142v48h306v-644q0 -184 164 -184q31 0 60 11.5t53.5 31.5
t45.5 47.5t37 60.5q34 69 44 124q12 58 12 141v364h-142v48h306v-836h142v-48h-306v210l-12 3q-48 -112 -128.5 -169.5t-183.5 -57.5q-126 0 -193 83q-63 78 -63 207z" />
    <glyph glyph-name="Uogonek" unicode="&#x172;" horiz-adv-x="1540" 
d="M280 436v946h-192v52h592v-52h-192v-1058q0 -88 24.5 -148t69.5 -92q46 -33 100 -46.5t124 -13.5q192 0 304 100q114 100 114 290v968h-204v52h472v-52h-204v-976q0 -323 -309 -413q-83 -25 -152 -100t-69 -165q0 -36 10 -60.5t27 -40t40 -22.5t49 -7q54 0 87 38.5
t45 102.5l36 -8q-36 -255 -222 -255q-45 0 -90 17q-42 16 -73 58t-31 105q0 92 51 163q49 70 155 150l-2 6q-5 -1 -14 -1h-20q-526 0 -526 462z" />
    <glyph glyph-name="uogonek" unicode="&#x173;" horiz-adv-x="1164" 
d="M210 276v560h-142v48h306v-644q0 -184 164 -184q31 0 60 11.5t53.5 31.5t45.5 47.5t37 60.5q34 69 44 124q12 58 12 141v364h-142v48h306v-836h142v-48h-39h-35q-14 -2 -38 -13.5t-49 -33.5q-66 -57 -100.5 -105.5t-34.5 -108.5q0 -54 26 -84.5t77 -30.5q83 0 143 110
l26 -12q-15 -39 -30 -69.5t-40 -64.5t-59.5 -53t-76.5 -19q-70 0 -122 40t-52 119q0 47 15.5 88.5t45.5 80.5t74 76.5t101 76.5l-2 3h-136v210l-12 3q-48 -112 -128.5 -169.5t-183.5 -57.5q-126 0 -193 83q-63 78 -63 207z" />
    <glyph glyph-name="Wcircumflex" unicode="&#x174;" horiz-adv-x="2160" 
d="M1150 1815l-230 -251h-54l297 324h100l301 -324h-181zM706 -26l-480 1408h-158v52h596v-52h-204l363 -1068l299 868l-67 200h-169v52h596v-52h-196l348 -1042l303 1042h-219v52h422v-52h-144l-410 -1408h-60l-374 1117l-386 -1117h-60z" />
    <glyph glyph-name="wcircumflex" unicode="&#x175;" horiz-adv-x="1498" 
d="M750 1351l-182 -291h-44l233 374h100l237 -374h-160zM463 -16l-306 852h-117v48h436v-48h-142l219 -610l197 501l-39 109h-117v48h436v-48h-142l216 -596l205 596h-129v48h282v-48h-102l-295 -852h-44l-247 678l-267 -678h-44z" />
    <glyph glyph-name="Ycircumflex" unicode="&#x176;" horiz-adv-x="1462" 
d="M822 1815l-230 -251h-54l297 324h100l301 -324h-181zM688 592l-429 790h-191v52h672v-52h-240l362 -665l332 665h-212v52h460v-52h-182l-364 -734v-596h192v-52h-592v52h192v540z" />
    <glyph glyph-name="ycircumflex" unicode="&#x177;" horiz-adv-x="1024" 
d="M520 1351l-182 -291h-44l233 374h100l237 -374h-160zM-4 -463q0 49 27.5 80t76.5 31q35 0 55.5 -20.5t20.5 -47.5q0 -14 -8 -51q-8 -34 -8 -52q0 -49 68 -49q51 0 84.5 45.5t60.5 123.5l133 386l-348 853h-118v48h458v-48h-162l252 -620l214 620h-123v48h309v-48h-129
l-432 -1242q-7 -19 -12.5 -34t-11.5 -29t-13 -27.5t-17 -29.5q-19 -32 -43 -53q-23 -20 -59 -34.5t-81 -14.5q-85 0 -140 43q-54 41 -54 122z" />
    <glyph glyph-name="Ydieresis" unicode="&#x178;" horiz-adv-x="1462" 
d="M545 1659q-13 13 -19.5 29.5t-6 33.5t7 32.5t18.5 27.5q13 12 29 18t33 6t33 -6t28 -18q26 -25 26 -60t-26 -63q-26 -27 -61 -27.5t-62 27.5zM1043 1659q-13 13 -19.5 29.5t-6 33.5t7 32.5t18.5 27.5q13 12 29 18t33 6t33 -6t28 -18q26 -25 26 -60t-26 -63
q-26 -27 -61 -27.5t-62 27.5zM688 592l-429 790h-191v52h672v-52h-240l362 -665l332 665h-212v52h460v-52h-182l-364 -734v-596h192v-52h-592v52h192v540z" />
    <glyph glyph-name="Zacute" unicode="&#x179;" horiz-adv-x="1400" 
d="M932 1704l-314 -148l-22 29l256 239q69 64 130 64q27 0 44.5 -22t17.5 -48q0 -62 -112 -114zM212 921h-52l42 513h1022v-44l-793 -1338h391q94 0 176 43q83 43 130 113q53 79 76 138q22 54 46 167h52l-22 -513h-1106v48l793 1334h-353q-94 0 -161 -32.5t-118 -107.5
q-23 -33 -41 -67.5t-32 -70.5q-14 -35 -26 -80.5t-24 -102.5z" />
    <glyph glyph-name="zacute" unicode="&#x17a;" horiz-adv-x="934" 
d="M593 1288l-195 -234l-32 18l106 289q38 101 103 101q32 0 50.5 -19t18.5 -47q0 -47 -51 -108zM128 580h-44l22 304h660v-54l-460 -782h225q137 0 209 124q49 84 70 206h44l-14 -378h-720v56l459 780h-211q-57 0 -96.5 -16t-72.5 -58q-44 -56 -71 -182z" />
    <glyph glyph-name="Zdotaccent" unicode="&#x17b;" horiz-adv-x="1400" 
d="M677 1653q-27 27 -27 69t27 69t69 27t69 -27t27 -69t-27 -69t-69 -27t-69 27zM212 921h-52l42 513h1022v-44l-793 -1338h391q94 0 176 43q83 43 130 113q53 79 76 138q22 54 46 167h52l-22 -513h-1106v48l793 1334h-353q-94 0 -161 -32.5t-118 -107.5q-23 -33 -41 -67.5
t-32 -70.5q-14 -35 -26 -80.5t-24 -102.5z" />
    <glyph glyph-name="zdotaccent" unicode="&#x17c;" horiz-adv-x="934" 
d="M376 1118q-36 36 -36 88t36 88t88 36t88 -36t36 -88t-36 -88t-88 -36t-88 36zM128 580h-44l22 304h660v-54l-460 -782h225q137 0 209 124q49 84 70 206h44l-14 -378h-720v56l459 780h-211q-57 0 -96.5 -16t-72.5 -58q-44 -56 -71 -182z" />
    <glyph glyph-name="Zcaron" unicode="&#x17d;" horiz-adv-x="1400" 
d="M797 1564h-100l-301 324h181l233 -251l230 251h54zM212 921h-52l42 513h1022v-44l-793 -1338h391q94 0 176 43q83 43 130 113q53 79 76 138q22 54 46 167h52l-22 -513h-1106v48l793 1334h-353q-94 0 -161 -32.5t-118 -107.5q-23 -33 -41 -67.5t-32 -70.5
q-14 -35 -26 -80.5t-24 -102.5z" />
    <glyph glyph-name="zcaron" unicode="&#x17e;" horiz-adv-x="934" 
d="M515 1060h-100l-237 374h160l184 -291l182 291h44zM128 580h-44l22 304h660v-54l-460 -782h225q137 0 209 124q49 84 70 206h44l-14 -378h-720v56l459 780h-211q-57 0 -96.5 -16t-72.5 -58q-44 -56 -71 -182z" />
    <glyph glyph-name="longs" unicode="&#x17f;" horiz-adv-x="698" 
d="M536 48v-48h-448v48h142v906q0 219 89 362q54 87 135 141q82 55 166 55q91 0 153 -48q61 -48 61 -132q0 -61 -28.5 -95t-70.5 -34q-76 0 -76 71q0 22 9 60q4 16 6 29t2 24q0 35 -16.5 56t-63.5 21q-86 0 -144 -105q-58 -103 -58 -303v-1008h142z" />
    <glyph glyph-name="florin" unicode="&#x192;" horiz-adv-x="1104" 
d="M-160 -386q0 64 45 112q45 47 109 47q42 0 65 -23.5t23 -57.5q0 -57 -61 -108q-23 -19 -23 -52q0 -16 12.5 -25t27.5 -9q80 0 142 119q31 60 60.5 142t56.5 191l181 730l42 164h-228l8 56h236q13 46 26.5 87.5t28.5 81t32.5 78t38.5 79.5q43 82 90 136q48 55 113 90.5
t140 35.5q54 0 100 -40q47 -41 47 -96q0 -67 -32.5 -109.5t-89.5 -42.5q-43 0 -67.5 22t-24.5 59q0 45 42 77q28 19 28 42q0 32 -55 32q-92 0 -163 -170q-17 -42 -32.5 -82.5t-29.5 -82.5t-27.5 -91t-27.5 -106h222l-8 -56h-228l-8 -34q-81 -346 -145 -579t-112 -357
q-35 -93 -72 -164.5t-83 -134.5q-47 -64 -104 -98.5t-121 -34.5q-74 0 -124 50t-50 122z" />
    <glyph glyph-name="uni01E2" unicode="&#x1e2;" horiz-adv-x="2236" 
d="M1762 1766v-88h-604v88h604zM598 52v-52h-550v52h221l792 1330h-207v52h1224l10 -376h-52q-8 39 -15 65q-3 12 -10 30.5t-16.5 39.5t-22 43t-26.5 42q-74 104 -228 104h-360v-606h186q99 0 170 108q22 34 38 95q16 58 16 89h48v-634h-48q0 31 -16 89q-16 61 -38 95
q-70 106 -170 106h-186v-672h337q223 0 321 135q48 65 67 119q10 27 18.5 61.5t16.5 79.5h52l-6 -447h-1206v52h192v672h-402l-401 -672h251zM1150 1382h-11l-361 -606h372v606z" />
    <glyph glyph-name="uni01E3" unicode="&#x1e3;" horiz-adv-x="1452" 
d="M1046 1222v-88h-576v88h576zM112 199q0 121 69 174q70 53 196 70q177 23 259 77v138q0 33 -8 67.5t-29 62.5t-56.5 46t-89.5 18q-62 0 -105 -28q-43 -27 -43 -69q0 -22 14 -53q7 -16 11 -30.5t4 -27.5q0 -29 -21.5 -50.5t-63.5 -21.5q-48 0 -71.5 25.5t-23.5 68.5
q0 92 91 162q91 72 221 72q175 0 264 -122h8q105 122 287 122q81 0 146 -31.5t104 -82.5t60 -109.5t21 -116.5q0 -43 -15 -61.5t-59 -18.5h-482q0 -80 6 -141t23 -118q25 -81 77 -127t146 -46q108 0 175 70t81 180h52q-8 -116 -86 -211q-39 -46 -104.5 -73.5t-147.5 -27.5
q-120 0 -203 37.5t-141 124.5h-14q-38 -61 -123 -113q-80 -49 -199 -49q-106 0 -168 55.5t-62 157.5zM286 221q0 -48 9 -80t27 -50.5t44.5 -26.5t61.5 -8q27 0 56 10t60 32q60 42 92 100v277q-53 -31 -99 -44q-48 -15 -127 -27q-124 -19 -124 -183zM801 528h316
q41 0 54 22.5t13 64.5q0 40 -9 82.5t-30 76.5t-55.5 56t-85.5 22q-48 0 -84 -20t-57 -50q-11 -16 -19.5 -35t-15.5 -41q-14 -45 -19.5 -86t-7.5 -92z" />
    <glyph glyph-name="Oogonek" unicode="&#x1ea;" horiz-adv-x="1618" 
d="M146 712q0 138 38 256.5t104 209.5q49 67 111 120t132.5 89.5t147.5 56t155 18.5q106 -2 205.5 -33t187.5 -97t153 -154q66 -91 104 -209.5t38 -256.5q0 -151 -43.5 -276t-121.5 -216t-174.5 -148t-208.5 -83q-91 -21 -161 -97q-71 -77 -71 -164q0 -36 10 -60.5t27 -40
t40 -22.5t49 -7q54 0 87 38.5t45 102.5l36 -8q-36 -255 -222 -255q-45 0 -90 17q-42 16 -73 58t-31 105q0 93 53.5 168t151.5 145l-1 5q-132 2 -251.5 52t-216.5 144q-94 90 -153 233q-29 72 -43 148t-14 161zM380 712q0 -340 118 -514t336 -174t336 174t118 514t-119 519
t-335 179q-217 0 -336 -179q-118 -178 -118 -519z" />
    <glyph glyph-name="oogonek" unicode="&#x1eb;" horiz-adv-x="1040" 
d="M96 442q0 197 122 328q123 130 302 130q180 0 301 -130q123 -131 123 -328q0 -164 -84 -279q-83 -116 -220 -163q-92 -29 -162 -105t-70 -156q0 -54 26 -84.5t77 -30.5q83 0 143 110l26 -12q-15 -39 -30 -69.5t-40 -64.5t-59.5 -53t-76.5 -19q-70 0 -122 40t-52 119
q0 92 52 159q52 69 157 145v7q-78 0 -151 30.5t-133 88.5q-60 57 -94.5 145.5t-34.5 191.5zM340 753q-60 -99 -60 -311t60 -311q61 -99 180 -99q117 0 179 99q61 99 61 311t-61 311q-62 99 -179 99q-119 0 -180 -99z" />
    <glyph glyph-name="uni01EC" unicode="&#x1ec;" horiz-adv-x="1618" 
d="M1136 1766v-88h-604v88h604zM146 712q0 138 38 256.5t104 209.5q49 67 111 120t132.5 89.5t147.5 56t155 18.5q106 -2 205.5 -33t187.5 -97t153 -154q66 -91 104 -209.5t38 -256.5q0 -151 -43.5 -276t-121.5 -216t-174.5 -148t-208.5 -83q-91 -21 -161 -97
q-71 -77 -71 -164q0 -36 10 -60.5t27 -40t40 -22.5t49 -7q54 0 87 38.5t45 102.5l36 -8q-36 -255 -222 -255q-45 0 -90 17q-42 16 -73 58t-31 105q0 93 53.5 168t151.5 145l-1 5q-132 2 -251.5 52t-216.5 144q-94 90 -153 233q-29 72 -43 148t-14 161zM380 712
q0 -340 118 -514t336 -174t336 174t118 514t-119 519t-335 179q-217 0 -336 -179q-118 -178 -118 -519z" />
    <glyph glyph-name="uni01ED" unicode="&#x1ed;" horiz-adv-x="1040" 
d="M808 1222v-88h-576v88h576zM96 442q0 197 122 328q123 130 302 130q180 0 301 -130q123 -131 123 -328q0 -164 -84 -279q-83 -116 -220 -163q-92 -29 -162 -105t-70 -156q0 -54 26 -84.5t77 -30.5q83 0 143 110l26 -12q-15 -39 -30 -69.5t-40 -64.5t-59.5 -53t-76.5 -19
q-70 0 -122 40t-52 119q0 92 52 159q52 69 157 145v7q-78 0 -151 30.5t-133 88.5q-60 57 -94.5 145.5t-34.5 191.5zM340 753q-60 -99 -60 -311t60 -311q61 -99 180 -99q117 0 179 99q61 99 61 311t-61 311q-62 99 -179 99q-119 0 -180 -99z" />
    <glyph glyph-name="Aringacute" unicode="&#x1fa;" horiz-adv-x="1534" 
d="M552 52v-52h-496v52h218l462 1340h60l524 -1340h182v-52h-672v52h262l-184 460h-407l-159 -460h210zM888 564l-197 500l-172 -500h369zM620 1467q-52 42 -52 107q0 66 52 106q52 42 146 42q92 0 145 -42q53 -41 53 -106t-53 -107q-53 -41 -145 -41q-93 0 -146 41z
M665 1641q-33 -26 -33 -67q0 -42 33 -67q31 -25 101 -25t101 25q33 25 33 67q0 41 -33 67q-31 25 -101 25t-101 -25zM859 1842l-205 -121l-18 22l167 174q43 45 83 45q17 0 29.5 -13.5t12.5 -30.5q0 -36 -69 -76z" />
    <glyph glyph-name="aringacute" unicode="&#x1fb;" horiz-adv-x="990" 
d="M112 193q0 120 65.5 179t185.5 74q39 5 72 12t60 18q28 11 55.5 25.5t55.5 32.5v106q0 73 -35 138q-19 34 -55.5 54t-88.5 20q-59 0 -106 -26q-46 -25 -46 -67q0 -22 14 -53q7 -16 11 -31.5t4 -30.5q0 -29 -21.5 -50.5t-63.5 -21.5q-48 0 -71.5 25.5t-23.5 68.5
q0 92 91 162q91 72 221 72q174 0 254 -93q80 -92 80 -245v-403q0 -61 28.5 -89t71.5 -28q16 0 32 1.5t32 5.5l8 -49q-51 -14 -85 -14q-48 0 -86.5 7t-68.5 23q-58 31 -86 125h-8q-48 -74 -108.5 -114.5t-153.5 -40.5q-107 0 -170 54q-64 55 -64 153zM286 209
q0 -153 142 -153q52 0 98 39.5t80 102.5v289q-24 -16 -46.5 -27.5t-44.5 -19.5q-45 -16 -124 -36q-105 -27 -105 -195zM279 1041q-65 65 -65 165q0 99 65 164q66 66 165 66q98 0 164 -66t66 -164q0 -99 -66 -165q-65 -65 -164 -65q-100 0 -165 65zM270 1206q0 -74 50 -124
t124 -50t124 50t50 124t-50 124t-124 50q-72 0 -123 -51q-51 -50 -51 -123zM573 1720l-195 -234l-32 18l106 289q38 101 103 101q32 0 50.5 -19t18.5 -47q0 -47 -51 -108z" />
    <glyph glyph-name="AEacute" unicode="&#x1fc;" horiz-adv-x="2236" 
d="M1646 1704l-314 -148l-22 29l256 239q69 64 130 64q27 0 44.5 -22t17.5 -48q0 -62 -112 -114zM598 52v-52h-550v52h221l792 1330h-207v52h1224l10 -376h-52q-8 39 -15 65q-3 12 -10 30.5t-16.5 39.5t-22 43t-26.5 42q-74 104 -228 104h-360v-606h186q99 0 170 108
q22 34 38 95q16 58 16 89h48v-634h-48q0 31 -16 89q-16 61 -38 95q-70 106 -170 106h-186v-672h337q223 0 321 135q48 65 67 119q10 27 18.5 61.5t16.5 79.5h52l-6 -447h-1206v52h192v672h-402l-401 -672h251zM1150 1382h-11l-361 -606h372v606z" />
    <glyph glyph-name="aeacute" unicode="&#x1fd;" horiz-adv-x="1452" 
d="M887 1288l-195 -234l-32 18l106 289q38 101 103 101q32 0 50.5 -19t18.5 -47q0 -47 -51 -108zM112 199q0 121 69 174q70 53 196 70q177 23 259 77v138q0 33 -8 67.5t-29 62.5t-56.5 46t-89.5 18q-62 0 -105 -28q-43 -27 -43 -69q0 -22 14 -53q7 -16 11 -30.5t4 -27.5
q0 -29 -21.5 -50.5t-63.5 -21.5q-48 0 -71.5 25.5t-23.5 68.5q0 92 91 162q91 72 221 72q175 0 264 -122h8q105 122 287 122q81 0 146 -31.5t104 -82.5t60 -109.5t21 -116.5q0 -43 -15 -61.5t-59 -18.5h-482q0 -80 6 -141t23 -118q25 -81 77 -127t146 -46q108 0 175 70
t81 180h52q-8 -116 -86 -211q-39 -46 -104.5 -73.5t-147.5 -27.5q-120 0 -203 37.5t-141 124.5h-14q-38 -61 -123 -113q-80 -49 -199 -49q-106 0 -168 55.5t-62 157.5zM286 221q0 -48 9 -80t27 -50.5t44.5 -26.5t61.5 -8q27 0 56 10t60 32q60 42 92 100v277q-53 -31 -99 -44
q-48 -15 -127 -27q-124 -19 -124 -183zM801 528h316q41 0 54 22.5t13 64.5q0 40 -9 82.5t-30 76.5t-55.5 56t-85.5 22q-48 0 -84 -20t-57 -50q-11 -16 -19.5 -35t-15.5 -41q-14 -45 -19.5 -86t-7.5 -92z" />
    <glyph glyph-name="Oslashacute" unicode="&#x1fe;" horiz-adv-x="1618" 
d="M1020 1704l-314 -148l-22 29l256 239q69 64 130 64q27 0 44.5 -22t17.5 -48q0 -62 -112 -114zM372 155l-168 -181l-58 48l173 189q-173 203 -173 501q0 138 38 256.5t104 209.5q49 67 111 120t132.5 89.5t147.5 56t155 18.5q128 -2 245.5 -48.5t214.5 -137.5l170 186
l58 -50l-175 -192q175 -208 175 -508q0 -166 -59 -311q-59 -143 -155 -235q-97 -94 -218.5 -143t-255.5 -49q-129 0 -247 45t-215 136zM380 712q0 -225 52 -377l770 840q-115 235 -368 235q-217 0 -336 -179q-118 -178 -118 -519zM1234 1097l-770 -840q116 -233 370 -233
q218 0 336 174t118 514q0 226 -54 385z" />
    <glyph glyph-name="oslashacute" unicode="&#x1ff;" horiz-adv-x="1040" 
d="M649 1288l-195 -234l-32 18l106 289q38 101 103 101q32 0 50.5 -19t18.5 -47q0 -47 -51 -108zM238 95l-110 -117l-40 36l112 121q-104 128 -104 307q0 197 122 328q123 130 302 130q165 0 282 -111l110 119l40 -38l-112 -121q104 -128 104 -307q0 -198 -123 -328
q-119 -128 -301 -128q-167 0 -282 109zM280 442q0 -118 18 -200l426 462q-58 148 -204 148q-119 0 -179.5 -99t-60.5 -311zM742 642l-426 -462q58 -148 204 -148q119 0 179.5 99t60.5 311q0 117 -18 200z" />
    <glyph glyph-name="Scommaaccent" unicode="&#x218;" horiz-adv-x="1272" 
d="M580 -222q0 48 31 78t77 30q71 0 112 -54q40 -54 40 -123q0 -99 -45 -174q-44 -75 -137 -155l-30 32q79 70 117 129q37 55 37 131q0 16 -11 25t-25 9q-11 0 -27 -10q-23 -12 -45 -12q-40 0 -67 24.5t-27 69.5zM242 -26h-44l-10 502h44q29 -153 113 -268q63 -88 151 -136
t194 -48q153 0 239 77q87 76 87 211q0 126 -87.5 208t-276.5 130q-72 18 -128 38.5t-113 53.5q-83 48 -130.5 121t-48.5 186q-2 93 27.5 167t87.5 132q115 114 317 114q90 0 164 -31q37 -16 62 -23t39 -7q42 0 55 61h44l4 -371h-44q-17 49 -40.5 96t-54.5 92q-37 55 -106 93
q-68 38 -136 38q-129 0 -205 -73q-78 -74 -78 -176q0 -51 22 -92.5t53 -68.5q15 -13 36 -26t48 -26q26 -12 49.5 -21t43.5 -16q20 -6 45.5 -13.5t56.5 -15.5q110 -30 187.5 -66.5t136.5 -90.5q60 -54 89 -130t29 -179q0 -199 -138 -322q-135 -120 -339 -120q-117 0 -251 61
q-57 27 -79 27q-23 0 -39 -4.5t-29 -15t-24 -27t-23 -41.5z" />
    <glyph glyph-name="scommaaccent" unicode="&#x219;" horiz-adv-x="840" 
d="M324 -222q0 48 31 78t77 30q71 0 112 -54q40 -54 40 -123q0 -99 -45 -174q-44 -75 -137 -155l-30 32q79 70 117 129q37 55 37 131q0 16 -11 25t-25 9q-11 0 -27 -10q-23 -12 -45 -12q-40 0 -67 24.5t-27 69.5zM159 -14h-33v346h36q11 -35 21.5 -63t22 -52.5t24 -47
t27.5 -45.5q62 -92 167 -92q103 0 157.5 38.5t54.5 111.5q0 72 -53 114q-53 44 -191 87q-65 20 -108 41t-81 53q-75 63 -75 187q0 107 70 171q71 65 166 65q75 0 155 -31q40 -15 56 -15q50 0 75 46h35v-281h-40q-31 85 -72 139q-36 49 -85.5 71.5t-129.5 22.5q-29 0 -52 -10
t-39.5 -26.5t-25.5 -39t-9 -46.5q0 -32 10 -56.5t27 -42.5t48 -34q17 -8 32.5 -15.5t29.5 -13.5q15 -6 36 -13.5t47 -16.5q161 -56 227 -117q67 -61 67 -169q0 -121 -81 -194q-78 -72 -247 -72q-34 0 -69 5.5t-73 15.5q-25 8 -45.5 11t-37.5 3q-30 0 -44 -35z" />
    <glyph glyph-name="uni021A" unicode="&#x21a;" horiz-adv-x="1564" 
d="M186 846h-52l24 588h1308l24 -588h-52q-22 244 -110 374q-110 162 -284 162h-128v-1330h192v-52h-592v52h192v1330h-128q-175 0 -284 -162q-88 -130 -110 -374zM704 -222q0 48 31 78t77 30q71 0 112 -54q40 -54 40 -123q0 -99 -45 -174q-44 -75 -137 -155l-30 32
q79 70 117 129q37 55 37 131q0 16 -11 25t-25 9q-11 0 -27 -10q-23 -12 -45 -12q-40 0 -67 24.5t-27 69.5z" />
    <glyph glyph-name="uni021B" unicode="&#x21b;" horiz-adv-x="770" 
d="M230 196v640h-174v48h174v196q60 0 84.5 8.5t32.5 32.5q11 28 21 35q11 8 47 8q-11 -73 -17 -142t-6 -138h228v-48h-228v-646q0 -69 28 -95.5t86 -26.5q61 0 96 62t40 142h48q-4 -54 -19.5 -105.5t-44.5 -91.5t-73.5 -64.5t-105.5 -24.5q-41 0 -80 10.5t-69.5 35t-49 65
t-18.5 99.5zM308 -222q0 48 31 78t77 30q71 0 112 -54q40 -54 40 -123q0 -99 -45 -174q-44 -75 -137 -155l-30 32q79 70 117 129q37 55 37 131q0 16 -11 25t-25 9q-11 0 -27 -10q-23 -12 -45 -12q-40 0 -67 24.5t-27 69.5z" />
    <glyph glyph-name="uni0232" unicode="&#x232;" horiz-adv-x="1462" 
d="M1158 1766v-88h-604v88h604zM688 592l-429 790h-191v52h672v-52h-240l362 -665l332 665h-212v52h460v-52h-182l-364 -734v-596h192v-52h-592v52h192v540z" />
    <glyph glyph-name="uni0233" unicode="&#x233;" horiz-adv-x="1024" 
d="M844 1222v-88h-576v88h576zM-4 -463q0 49 27.5 80t76.5 31q35 0 55.5 -20.5t20.5 -47.5q0 -14 -8 -51q-8 -34 -8 -52q0 -49 68 -49q51 0 84.5 45.5t60.5 123.5l133 386l-348 853h-118v48h458v-48h-162l252 -620l214 620h-123v48h309v-48h-129l-432 -1242
q-7 -19 -12.5 -34t-11.5 -29t-13 -27.5t-17 -29.5q-19 -32 -43 -53q-23 -20 -59 -34.5t-81 -14.5q-85 0 -140 43q-54 41 -54 122z" />
    <glyph glyph-name="uni0237" unicode="&#x237;" horiz-adv-x="580" 
d="M-112 -402q0 61 28.5 93t70.5 32q32 0 53 -18.5t21 -55.5q0 -27 -9 -64q-10 -41 -10 -71q0 -43 20.5 -68.5t65.5 -25.5q63 0 86.5 64t23.5 189v1163h-142v48h306v-1041q0 -220 -79 -344q-78 -125 -212 -125q-89 0 -156 63t-67 161z" />
    <glyph glyph-name="uni02BB" unicode="&#x2bb;" horiz-adv-x="420" 
d="M76 1165q0 192 182 347l30 -32q-73 -65 -113.5 -128.5t-40.5 -144.5q0 -15 9 -23t23 -8q15 0 33 9q25 11 43 11q40 0 68 -25.5t28 -70.5q0 -24 -8.5 -44.5t-23.5 -35.5t-35 -23.5t-43 -8.5q-73 0 -113 54q-39 54 -39 123z" />
    <glyph glyph-name="afii57929" unicode="&#x2bc;" horiz-adv-x="420" 
d="M82 1400q0 24 8.5 44.5t23.5 35.5t35 23.5t43 8.5q71 0 112 -54q40 -54 40 -123q0 -192 -182 -347l-30 32q73 65 113.5 128.5t40.5 144.5q0 15 -9 23t-23 8q-15 0 -33 -9q-25 -11 -43 -11q-40 0 -68 25.5t-28 70.5z" />
    <glyph glyph-name="afii64937" unicode="&#x2bd;" horiz-adv-x="420" 
d="M76 1335q0 69 39 123q40 54 113 54q23 0 43 -8.5t35 -23.5t23.5 -35.5t8.5 -44.5q0 -45 -28 -70.5t-68 -25.5q-18 0 -43 11q-18 9 -33 9q-14 0 -23 -8t-9 -23q0 -81 40.5 -144.5t113.5 -128.5l-30 -32q-182 155 -182 347z" />
    <glyph glyph-name="circumflex" unicode="&#x2c6;" horiz-adv-x="880" 
d="M404 1351l-182 -291h-44l233 374h100l237 -374h-160z" />
    <glyph glyph-name="caron" unicode="&#x2c7;" horiz-adv-x="880" 
d="M491 1060h-100l-237 374h160l184 -291l182 291h44z" />
    <glyph glyph-name="uni02C9" unicode="&#x2c9;" horiz-adv-x="880" 
d="M728 1222v-88h-576v88h576z" />
    <glyph glyph-name="uni02CA" unicode="&#x2ca;" horiz-adv-x="880" 
d="M569 1288l-195 -234l-32 18l106 289q38 101 103 101q32 0 50.5 -19t18.5 -47q0 -47 -51 -108z" />
    <glyph glyph-name="uni02CB" unicode="&#x2cb;" horiz-adv-x="880" 
d="M260 1396q0 28 18.5 47t50.5 19q65 0 103 -101l106 -289l-32 -18l-195 234q-51 61 -51 108z" />
    <glyph glyph-name="breve" unicode="&#x2d8;" horiz-adv-x="880" 
d="M144 1394h48q20 -104 78.5 -157t169.5 -53t169.5 53t78.5 157h48q-15 -142 -95 -225q-80 -81 -201 -81q-123 0 -202 81q-79 82 -94 225z" />
    <glyph glyph-name="dotaccent" unicode="&#x2d9;" horiz-adv-x="880" 
d="M352 1118q-36 36 -36 88t36 88t88 36t88 -36t36 -88t-36 -88t-88 -36t-88 36z" />
    <glyph glyph-name="ring" unicode="&#x2da;" horiz-adv-x="880" 
d="M275 1093q-65 65 -65 165q0 99 65 164q66 66 165 66q98 0 164 -66t66 -164q0 -99 -66 -165q-65 -65 -164 -65q-100 0 -165 65zM266 1258q0 -74 50 -124t124 -50t124 50t50 124t-50 124t-124 50q-72 0 -123 -51q-51 -50 -51 -123z" />
    <glyph glyph-name="ogonek" unicode="&#x2db;" horiz-adv-x="880" 
d="M186 -325q0 110 83 199q21 22 42.5 42t44.5 37t51.5 36t63.5 42l23 -31q-103 -71 -151.5 -132.5t-48.5 -128.5q0 -54 26 -84.5t77 -30.5q83 0 143 110l26 -12q-15 -39 -30 -69.5t-40 -64.5t-59.5 -53t-76.5 -19q-70 0 -122 40t-52 119z" />
    <glyph glyph-name="tilde" unicode="&#x2dc;" horiz-adv-x="880" 
d="M172 1068l-44 8q30 208 176 208q63 0 170 -49q100 -45 156 -45q38 0 55 33q9 17 13.5 31.5t9.5 39.5l44 -8q-30 -208 -176 -208q-63 0 -170 49q-101 45 -156 45q-40 0 -56 -33q-8 -17 -12.5 -31.5t-9.5 -39.5z" />
    <glyph glyph-name="hungarumlaut" unicode="&#x2dd;" horiz-adv-x="880" 
d="M495 1286l-191 -230l-36 20l120 281q45 105 106 105q31 0 47.5 -19t16.5 -45q0 -36 -63 -112zM769 1286l-191 -230l-36 20l120 281q45 105 106 105q31 0 47.5 -19t16.5 -45q0 -36 -63 -112z" />
    <glyph glyph-name="gravecomb" unicode="&#x300;" 
d="M-616 1396q0 28 18.5 47t50.5 19q65 0 103 -101l106 -289l-32 -18l-195 234q-51 61 -51 108z" />
    <glyph glyph-name="acutecomb" unicode="&#x301;" 
d="M-307 1288l-195 -234l-32 18l106 289q38 101 103 101q32 0 50.5 -19t18.5 -47q0 -47 -51 -108z" />
    <glyph glyph-name="circumflexcmb" unicode="&#x302;" 
d="M-472 1351l-182 -291h-44l233 374h100l237 -374h-160z" />
    <glyph glyph-name="tildecomb" unicode="&#x303;" 
d="M-704 1068l-44 8q30 208 176 208q63 0 170 -49q100 -45 156 -45q38 0 55 33q9 17 13.5 31.5t9.5 39.5l44 -8q-30 -208 -176 -208q-63 0 -170 49q-101 45 -156 45q-40 0 -56 -33q-8 -17 -12.5 -31.5t-9.5 -39.5z" />
    <glyph glyph-name="macroncmb" unicode="&#x304;" 
d="M-148 1222v-88h-576v88h576z" />
    <glyph glyph-name="uni0305" unicode="&#x305;" 
d="M150 1766v-88h-1172v88h1172z" />
    <glyph glyph-name="brevecmb" unicode="&#x306;" 
d="M-732 1394h48q20 -104 78.5 -157t169.5 -53t169.5 53t78.5 157h48q-15 -142 -95 -225q-80 -81 -201 -81q-123 0 -202 81q-79 82 -94 225z" />
    <glyph glyph-name="uni0307" unicode="&#x307;" 
d="M-524 1118q-36 36 -36 88t36 88t88 36t88 -36t36 -88t-36 -88t-88 -36t-88 36z" />
    <glyph glyph-name="uni0308" unicode="&#x308;" 
d="M-707 1139q-27 27 -27 69t27 69t69 27t69 -27t27 -69t-27 -69t-69 -27t-69 27zM-303 1139q-27 27 -27 69t27 69t69 27t69 -27t27 -69t-27 -69t-69 -27t-69 27z" />
    <glyph glyph-name="uni030A" unicode="&#x30a;" 
d="M-601 1093q-65 65 -65 165q0 99 65 164q66 66 165 66q98 0 164 -66t66 -164q0 -99 -66 -165q-65 -65 -164 -65q-100 0 -165 65zM-610 1258q0 -74 50 -124t124 -50t124 50t50 124t-50 124t-124 50q-72 0 -123 -51q-51 -50 -51 -123z" />
    <glyph glyph-name="uni030B" unicode="&#x30b;" 
d="M-381 1286l-191 -230l-36 20l120 281q45 105 106 105q31 0 47.5 -19t16.5 -45q0 -36 -63 -112zM-107 1286l-191 -230l-36 20l120 281q45 105 106 105q31 0 47.5 -19t16.5 -45q0 -36 -63 -112z" />
    <glyph glyph-name="uni030C" unicode="&#x30c;" 
d="M-385 1060h-100l-237 374h160l184 -291l182 291h44z" />
    <glyph glyph-name="uni030F" unicode="&#x30f;" 
d="M-828 1398q0 26 16.5 45t47.5 19q61 0 106 -105l120 -281l-36 -20l-191 230q-63 76 -63 112zM-554 1398q0 26 16.5 45t47.5 19q61 0 106 -105l120 -281l-36 -20l-191 230q-63 76 -63 112z" />
    <glyph glyph-name="uni0311" unicode="&#x311;" 
d="M-684 1088h-48q15 145 94 224q81 82 202 82q122 0 201 -82q80 -83 95 -224h-48q-20 104 -78.5 157t-169.5 53t-169.5 -53t-78.5 -157z" />
    <glyph glyph-name="uni0312" unicode="&#x312;" 
d="M-580 1165q0 192 182 347l30 -32q-73 -65 -113.5 -128.5t-40.5 -144.5q0 -15 9 -23t23 -8q15 0 33 9q25 11 43 11q40 0 68 -25.5t28 -70.5q0 -24 -8.5 -44.5t-23.5 -35.5t-35 -23.5t-43 -8.5q-73 0 -113 54q-39 54 -39 123z" />
    <glyph glyph-name="uni0313" unicode="&#x313;" 
d="M-574 1400q0 24 8.5 44.5t23.5 35.5t35 23.5t43 8.5q71 0 112 -54q40 -54 40 -123q0 -192 -182 -347l-30 32q73 65 113.5 128.5t40.5 144.5q0 15 -9 23t-23 8q-15 0 -33 -9q-25 -11 -43 -11q-40 0 -68 25.5t-28 70.5z" />
    <glyph glyph-name="uni0314" unicode="&#x314;" horiz-adv-x="420" 
d="M-580 1335q0 69 39 123q40 54 113 54q23 0 43 -8.5t35 -23.5t23.5 -35.5t8.5 -44.5q0 -45 -28 -70.5t-68 -25.5q-18 0 -43 11q-18 9 -33 9q-14 0 -23 -8t-9 -23q0 -81 40.5 -144.5t113.5 -128.5l-30 -32q-182 155 -182 347z" />
    <glyph glyph-name="uni0316" unicode="&#x316;" 
d="M-616 -158q0 28 18.5 47t50.5 19q65 0 103 -101l106 -289l-32 -18l-195 234q-51 61 -51 108z" />
    <glyph glyph-name="uni0317" unicode="&#x317;" 
d="M-307 -266l-195 -234l-32 18l106 289q38 101 103 101q32 0 50.5 -19t18.5 -47q0 -47 -51 -108z" />
    <glyph glyph-name="dotbelowcomb" unicode="&#x323;" 
d="M-524 -380q-36 36 -36 88t36 88t88 36t88 -36t36 -88t-36 -88t-88 -36t-88 36z" />
    <glyph glyph-name="uni0324" unicode="&#x324;" 
d="M-707 -359q-27 27 -27 69t27 69t69 27t69 -27t27 -69t-27 -69t-69 -27t-69 27zM-303 -359q-27 27 -27 69t27 69t69 27t69 -27t27 -69t-27 -69t-69 -27t-69 27z" />
    <glyph glyph-name="uni0325" unicode="&#x325;" 
d="M-601 -489q-65 65 -65 165q0 99 65 164q66 66 165 66q98 0 164 -66t66 -164q0 -99 -66 -165q-65 -65 -164 -65q-100 0 -165 65zM-610 -324q0 -74 50 -124t124 -50t124 50t50 124t-50 124t-124 50q-72 0 -123 -51q-51 -50 -51 -123z" />
    <glyph glyph-name="uni0326" unicode="&#x326;" 
d="M-544 -222q0 48 31 78t77 30q71 0 112 -54q40 -54 40 -123q0 -99 -45 -174q-44 -75 -137 -155l-30 32q79 70 117 129q37 55 37 131q0 16 -11 25t-25 9q-11 0 -27 -10q-23 -12 -45 -12q-40 0 -67 24.5t-27 69.5z" />
    <glyph glyph-name="uni0327" unicode="&#x327;" 
d="M-648 -335q0 43 24.5 70t59.5 27q26 0 40 -14t14 -34q0 -31 -26 -54q-24 -21 -24 -48q0 -44 80 -44q52 0 84 53q30 51 30 109q0 57 -76 79q-54 16 -54 47q0 17 25 66l49 -14q-14 -26 -14 -38q0 -11 8 -16t32 -12q26 -8 49 -21.5t40 -32.5t27 -43t10 -53q0 -73 -40 -116
q-50 -56 -148 -56q-80 0 -136 38q-54 37 -54 107z" />
    <glyph glyph-name="uni0328" unicode="&#x328;" 
d="M-690 -325q0 110 83 199q21 22 42.5 42t44.5 37t51.5 36t63.5 42l23 -31q-103 -71 -151.5 -132.5t-48.5 -128.5q0 -54 26 -84.5t77 -30.5q83 0 143 110l26 -12q-15 -39 -30 -69.5t-40 -64.5t-59.5 -53t-76.5 -19q-70 0 -122 40t-52 119z" />
    <glyph glyph-name="uni032C" unicode="&#x32c;" 
d="M-385 -494h-100l-237 374h160l184 -291l182 291h44z" />
    <glyph glyph-name="uni032D" unicode="&#x32d;" 
d="M-472 -203l-182 -291h-44l233 374h100l237 -374h-160z" />
    <glyph glyph-name="uni032E" unicode="&#x32e;" 
d="M-718 -130l48 16q32 -93 90.5 -149.5t141.5 -56.5t141.5 56.5t90.5 149.5l48 -16q-18 -76 -53 -144q-17 -32 -40.5 -60.5t-54.5 -51.5q-58 -46 -132 -46q-72 0 -132 46q-60 47 -95 112t-53 144z" />
    <glyph glyph-name="uni032F" unicode="&#x32f;" 
d="M-670 -432l-48 16q17 77 53 145q35 66 95 111q58 46 132 46q72 0 132 -46q60 -47 95 -112t53 -144l-48 -16q-32 93 -90.5 149.5t-141.5 56.5t-141.5 -56.5t-90.5 -149.5z" />
    <glyph glyph-name="uni0330" unicode="&#x330;" 
d="M-704 -392l-44 8q30 208 176 208q63 0 170 -49q100 -45 156 -45q38 0 55 33q9 17 13.5 31.5t9.5 39.5l44 -8q-30 -208 -176 -208q-63 0 -170 49q-101 45 -156 45q-40 0 -56 -33q-8 -17 -12.5 -31.5t-9.5 -39.5z" />
    <glyph glyph-name="uni0331" unicode="&#x331;" 
d="M-148 -242v-88h-576v88h576z" />
    <glyph glyph-name="uni0342" unicode="&#x342;" 
d="M-798 1197q0 65 63 112q65 47 143 47q47 0 93 -26.5t106 -77.5q131 -110 184 -110q55 0 55 37q0 23 -35 43q-39 21 -39 58q0 29 21.5 48.5t48.5 19.5q19 0 35 -8.5t27.5 -22t17.5 -31.5t6 -37q0 -66 -64 -112q-65 -47 -142 -47q-47 0 -93 26.5t-106 77.5
q-131 110 -184 110q-55 0 -55 -37q0 -23 35 -43q39 -21 39 -58q0 -29 -21.5 -48.5t-48.5 -19.5q-20 0 -35.5 8.5t-27 22t-17.5 31.5t-6 37z" />
    <glyph glyph-name="uni0343" unicode="&#x343;" 
d="M-628 1368q0 21 10 37t26.5 27t39 16.5t46.5 5.5q78 0 132 -54q54 -53 54 -136q0 -90 -55 -154.5t-173 -117.5l-23 40q80 39 119.5 74.5t39.5 88.5q0 52 -27.5 75.5t-84.5 23.5q-104 0 -104 74z" />
    <glyph glyph-name="uni0344" unicode="&#x344;" 
d="M-747 1049q-13 13 -19.5 29.5t-6 33.5t7 32.5t18.5 27.5q13 12 29 18t33 6t33 -6t28 -18q26 -25 26 -60t-26 -63q-26 -27 -61 -27.5t-62 27.5zM-226 1373l-242 -381l-38 16l142 430q20 60 46 91t68 31q30 0 50 -21.5t20 -53.5q0 -19 -11 -46.5t-35 -65.5zM-249 1049
q-13 13 -19.5 29.5t-6 33.5t7 32.5t18.5 27.5q13 12 29 18t33 6t33 -6t28 -18q26 -25 26 -60t-26 -63q-26 -27 -61 -27.5t-62 27.5z" />
    <glyph glyph-name="uni0345" unicode="&#x345;" 
d="M-530 -440q0 14 5 37.5t14 58.5l41 154q6 21 15 31.5t19 10.5t19 -10.5t15 -31.5l41 -154q9 -35 14 -58.5t5 -37.5q0 -39 -26 -65.5t-68 -26.5t-68 26.5t-26 65.5z" />
    <glyph glyph-name="uni0359" unicode="&#x359;" 
d="M-630 -241q0 18 12 28.5t31 10.5q30 0 67 -43q8 -10 16.5 -19.5t18.5 -17.5q19 -17 25 -17t6 6q0 38 -16 77q-12 33 -12 51q0 19 13 35t31 16t31 -16t13 -35q0 -18 -12 -51q-16 -39 -16 -77q0 -6 6 -6q3 0 9.5 5t15 12.5t18 17t17.5 19.5q18 23 35 33t32 10
q19 0 31 -10.5t12 -28.5q0 -28 -20.5 -41t-62.5 -20q-72 -12 -72 -28t72 -28q42 -7 62.5 -20t20.5 -41q0 -18 -12 -28.5t-31 -10.5q-30 0 -67 43q-8 10 -16.5 19.5t-18.5 17.5q-19 17 -25 17t-6 -6q0 -38 16 -77q12 -33 12 -51q0 -19 -13 -35t-31 -16t-31 16t-13 35
q0 18 12 51q16 39 16 77q0 6 -6 6q-3 0 -9.5 -5t-15 -12.5t-18 -17t-17.5 -19.5q-18 -23 -35 -33t-32 -10q-19 0 -31 10.5t-12 28.5q0 28 20.5 41t62.5 20q72 12 72 28t-72 28q-42 7 -62.5 20t-20.5 41z" />
    <glyph glyph-name="uni0374" unicode="&#x374;" horiz-adv-x="420" 
d="M350 1392l-220 -400l-42 14l116 446q12 45 37.5 76.5t67.5 31.5q32 0 51.5 -21t19.5 -48q0 -44 -30 -99z" />
    <glyph glyph-name="uni0375" unicode="&#x375;" horiz-adv-x="420" 
d="M40 -489q0 43 30 99l220 398l42 -12l-116 -446q-12 -45 -37.5 -76.5t-67.5 -31.5q-32 0 -51.5 21t-19.5 48z" />
    <glyph glyph-name="uni037A" unicode="&#x37a;" horiz-adv-x="880" 
d="M346 -440q0 14 5 37.5t14 58.5l41 154q6 21 15 31.5t19 10.5t19 -10.5t15 -31.5l41 -154q9 -35 14 -58.5t5 -37.5q0 -39 -26 -65.5t-68 -26.5t-68 26.5t-26 65.5z" />
    <glyph glyph-name="uni037E" unicode="&#x37e;" horiz-adv-x="528" 
d="M133 -422l-31 34q34 30 65.5 64t58.5 68.5t47.5 68.5t34.5 65q20 44 20 97q0 51 -84 51q-45 0 -78 23.5t-33 76.5q0 27 9 49t25 37.5t36.5 24.5t44.5 9q84 0 121 -52q39 -53 39 -127q0 -108 -73 -239q-37 -66 -86.5 -128t-115.5 -122zM173 681q-37 37 -37 91t37 91t91 37
t91 -37t37 -91t-37 -91q-38 -35 -91 -35t-91 35z" />
    <glyph glyph-name="tonos" unicode="&#x384;" horiz-adv-x="432" 
d="M362 1373l-242 -381l-38 16l142 430q20 60 46 91t68 31q30 0 50 -21.5t20 -53.5q0 -19 -11 -46.5t-35 -65.5z" />
    <glyph glyph-name="dieresistonos" unicode="&#x385;" horiz-adv-x="880" 
d="M129 1049q-13 13 -19.5 29.5t-6 33.5t7 32.5t18.5 27.5q13 12 29 18t33 6t33 -6t28 -18q26 -25 26 -60t-26 -63q-26 -27 -61 -27.5t-62 27.5zM650 1373l-242 -381l-38 16l142 430q20 60 46 91t68 31q30 0 50 -21.5t20 -53.5q0 -19 -11 -46.5t-35 -65.5zM627 1049
q-13 13 -19.5 29.5t-6 33.5t7 32.5t18.5 27.5q13 12 29 18t33 6t33 -6t28 -18q26 -25 26 -60t-26 -63q-26 -27 -61 -27.5t-62 27.5z" />
    <glyph glyph-name="Alphatonos" unicode="&#x386;" horiz-adv-x="1554" 
d="M572 52v-52h-496v52h218l462 1410h60l524 -1410h182v-52h-672v52h250l-170 460h-418l-150 -460h210zM910 564l-202 545l-180 -545h382zM382 1373l-242 -381l-38 16l142 430q20 60 46 91t68 31q30 0 50 -21.5t20 -53.5q0 -19 -11 -46.5t-35 -65.5z" />
    <glyph glyph-name="anoteleia" unicode="&#x387;" horiz-adv-x="528" 
d="M170 770q-38 38 -38 94q0 55 38 93q39 39 94 39q54 0 93 -39t39 -93q0 -55 -39 -94q-38 -38 -93 -38q-56 0 -94 38z" />
    <glyph glyph-name="Epsilontonos" unicode="&#x388;" horiz-adv-x="1858" 
d="M1766 447l-6 -447h-1206v52h192v1330h-192v52h1120l10 -376h-52q-8 39 -15 65q-3 12 -10 30.5t-16.5 39.5t-22 43t-26.5 42q-74 104 -228 104h-360v-606h186q99 0 170 108q22 34 38 95q16 58 16 89h48v-634h-48q0 31 -16 89q-16 61 -38 95q-70 106 -170 106h-186v-672
h337q223 0 321 135q48 65 67 119q10 27 18.5 61.5t16.5 79.5h52zM362 1373l-242 -381l-38 16l142 430q20 60 46 91t68 31q30 0 50 -21.5t20 -53.5q0 -19 -11 -46.5t-35 -65.5z" />
    <glyph glyph-name="Etatonos" unicode="&#x389;" horiz-adv-x="2012" 
d="M1146 52v-52h-592v52h192v1330h-192v52h592v-52h-192v-604h576v604h-192v52h592v-52h-192v-1330h192v-52h-592v52h192v674h-576v-674h192zM362 1373l-242 -381l-38 16l142 430q20 60 46 91t68 31q30 0 50 -21.5t20 -53.5q0 -19 -11 -46.5t-35 -65.5z" />
    <glyph glyph-name="Iotatonos" unicode="&#x38a;" horiz-adv-x="1228" 
d="M1146 52v-52h-592v52h192v1330h-192v52h592v-52h-192v-1330h192zM362 1373l-242 -381l-38 16l142 430q20 60 46 91t68 31q30 0 50 -21.5t20 -53.5q0 -19 -11 -46.5t-35 -65.5z" />
    <glyph glyph-name="Omicrontonos" unicode="&#x38c;" horiz-adv-x="1858" 
d="M386 712q0 138 38 256.5t104 209.5q49 67 111 120t132.5 89.5t147.5 56t155 18.5q106 -2 205.5 -33t187.5 -97t153 -154q66 -91 104 -209.5t38 -256.5q0 -166 -59 -311q-59 -143 -155 -235q-97 -94 -218.5 -143t-255.5 -49t-255.5 49t-218.5 143q-98 93 -156 235
q-58 140 -58 311zM620 712q0 -340 118 -514t336 -174t336 174t118 514t-119 519t-335 179q-217 0 -336 -179q-118 -178 -118 -519zM362 1373l-242 -381l-38 16l142 430q20 60 46 91t68 31q30 0 50 -21.5t20 -53.5q0 -19 -11 -46.5t-35 -65.5z" />
    <glyph glyph-name="Upsilontonos" unicode="&#x38e;" horiz-adv-x="1806" 
d="M362 1373l-242 -381l-38 16l142 430q20 60 46 91t68 31q30 0 50 -21.5t20 -53.5q0 -19 -11 -46.5t-35 -65.5zM562 1282l-32 32q58 63 117 98.5t131 35.5q211 0 314 -235q73 -167 104 -373h12q15 59 29 110t29 97t31 88t34 83q54 120 123 181t166 63q88 1 130 -47
q42 -47 42 -113q0 -63 -39 -100q-39 -38 -95 -38q-51 0 -81 13q27 54 27 101q0 64 -64 64q-120 0 -216 -280q-100 -291 -100 -484v-526h192v-52h-592v52h192v542q0 78 -6 154.5t-19 154.5q-13 79 -32 143.5t-45 116.5q-46 92 -96.5 143.5t-118.5 51.5q-61 0 -137 -76z" />
    <glyph glyph-name="Omegatonos" unicode="&#x38f;" horiz-adv-x="1772" 
d="M362 1373l-242 -381l-38 16l142 430q20 60 46 91t68 31q30 0 50 -21.5t20 -53.5q0 -19 -11 -46.5t-35 -65.5zM960 161v-161h-580v407h52q0 -137 16 -172q16 -36 42 -47.5t76 -11.5h308v10q-34 30 -63 56.5t-54 49.5t-53.5 54t-61.5 69q-32 38 -59 74t-47 71t-38 75
t-32 86q-15 47 -22 92.5t-7 90.5q0 112 42 211.5t117 177.5t186 123.5t240 45.5t240 -45.5t186 -123.5q76 -78 117.5 -177.5t41.5 -211.5q0 -92 -30 -183q-14 -46 -32 -86t-38 -75t-47 -71t-59 -74q-65 -77 -114 -123q-25 -23 -54 -49.5t-63 -56.5v-10h308q50 0 76 11.5
t42 47.5q16 35 16 172h52v-407h-580v161q35 30 60 53t40 40q29 32 76 100q113 164 113 530q0 258 -98 392t-253 134q-156 0 -254 -134q-97 -133 -97 -392q0 -366 113 -530q23 -34 42 -59t33 -41q14 -15 39 -38t62 -55z" />
    <glyph glyph-name="iotadieresistonos" unicode="&#x390;" horiz-adv-x="542" 
d="M-39 1049q-13 13 -19.5 29.5t-6 33.5t7 32.5t18.5 27.5q13 12 29 18t33 6t33 -6t28 -18q26 -25 26 -60t-26 -63q-26 -27 -61 -27.5t-62 27.5zM482 1373l-242 -381l-38 16l142 430q20 60 46 91t68 31q30 0 50 -21.5t20 -53.5q0 -19 -11 -46.5t-35 -65.5zM459 1049
q-13 13 -19.5 29.5t-6 33.5t7 32.5t18.5 27.5q13 12 29 18t33 6t33 -6t28 -18q26 -25 26 -60t-26 -63q-26 -27 -61 -27.5t-62 27.5zM140 775q0 55 34 89q34 36 83 36q51 0 79 -27.5t28 -72.5q0 -92 -76 -292q-78 -207 -78 -330q0 -23 14.5 -39.5t38.5 -16.5q18 0 33.5 11
t28 30.5t22 45t15.5 54.5q47 -10 79.5 -39t32.5 -65q0 -37 -11 -67.5t-35 -55.5q-46 -46 -122 -46q-69 0 -109.5 51t-40.5 145q0 78 -1.5 148t-5.5 136q-9 166 -9 305z" />
    <glyph glyph-name="Alpha" unicode="&#x391;" horiz-adv-x="1534" 
d="M552 52v-52h-496v52h218l462 1410h60l524 -1410h182v-52h-672v52h250l-170 460h-418l-150 -460h210zM890 564l-202 545l-180 -545h382z" />
    <glyph glyph-name="Beta" unicode="&#x392;" horiz-adv-x="1340" 
d="M758 0h-636v52h192v1330h-192v52h628q230 0 341.5 -91.5t111.5 -254.5q0 -119 -85 -201t-217 -107v-12q170 -21 267 -121q98 -101 98 -253q0 -185 -137 -290q-137 -104 -371 -104zM782 748h-260v-696h216q294 0 294 352q0 81 -15 144.5t-46 108t-78 68t-111 23.5z
M734 1382h-212v-582h260q107 0 159 76q54 76 54 200q0 61 -12 111.5t-40 96.5q-27 46 -80.5 72t-128.5 26z" />
    <glyph glyph-name="Gamma" unicode="&#x393;" horiz-adv-x="1294" 
d="M714 52v-52h-592v52h192v1330h-192v52h1090l30 -513h-52q-24 157 -98 295q-90 166 -286 166h-284v-1330h192z" />
    <glyph glyph-name="Deltagreek" unicode="&#x394;" horiz-adv-x="1424" 
d="M788 1462l538 -1462h-1182l588 1462h56zM1043 184l-359 976l-393 -976h752z" />
    <glyph glyph-name="Epsilon" unicode="&#x395;" horiz-adv-x="1426" 
d="M1334 447l-6 -447h-1206v52h192v1330h-192v52h1120l10 -376h-52q-8 39 -15 65q-3 12 -10 30.5t-16.5 39.5t-22 43t-26.5 42q-74 104 -228 104h-360v-606h186q99 0 170 108q22 34 38 95q16 58 16 89h48v-634h-48q0 31 -16 89q-16 61 -38 95q-70 106 -170 106h-186v-672
h337q223 0 321 135q48 65 67 119q10 27 18.5 61.5t16.5 79.5h52z" />
    <glyph glyph-name="Zeta" unicode="&#x396;" horiz-adv-x="1400" 
d="M212 921h-52l42 513h1022v-44l-793 -1338h391q94 0 176 43q83 43 130 113q53 79 76 138q22 54 46 167h52l-22 -513h-1106v48l793 1334h-353q-94 0 -161 -32.5t-118 -107.5q-23 -33 -41 -67.5t-32 -70.5q-14 -35 -26 -80.5t-24 -102.5z" />
    <glyph glyph-name="Eta" unicode="&#x397;" horiz-adv-x="1580" 
d="M714 52v-52h-592v52h192v1330h-192v52h592v-52h-192v-604h576v604h-192v52h592v-52h-192v-1330h192v-52h-592v52h192v674h-576v-674h192z" />
    <glyph glyph-name="Theta" unicode="&#x398;" horiz-adv-x="1618" 
d="M146 712q0 138 38 256.5t104 209.5q49 67 111 120t132.5 89.5t147.5 56t155 18.5q106 -2 205.5 -33t187.5 -97t153 -154q66 -91 104 -209.5t38 -256.5q0 -166 -59 -311q-59 -143 -155 -235q-97 -94 -218.5 -143t-255.5 -49t-255.5 49t-218.5 143q-98 93 -156 235
q-58 140 -58 311zM380 712q0 -340 118 -514t336 -174t336 174t118 514t-119 519t-335 179q-217 0 -336 -179q-118 -178 -118 -519zM642 680v-128h-52v420h52v-128h384v128h52v-420h-52v128h-384z" />
    <glyph glyph-name="Iota" unicode="&#x399;" horiz-adv-x="796" 
d="M714 52v-52h-592v52h192v1330h-192v52h592v-52h-192v-1330h192z" />
    <glyph glyph-name="Kappa" unicode="&#x39a;" horiz-adv-x="1598" 
d="M714 52v-52h-592v52h192v1330h-192v52h592v-52h-192v-625l102 47l471 578h-232v52h505v-52h-203l-383 -470l617 -860h175v-52h-681v52h240l-498 694l-113 -52v-642h192z" />
    <glyph glyph-name="Lambda" unicode="&#x39b;" horiz-adv-x="1534" 
d="M552 52v-52h-496v52h218l462 1410h60l524 -1410h182v-52h-672v52h250l-392 1057l-346 -1057h210z" />
    <glyph glyph-name="Mu" unicode="&#x39c;" horiz-adv-x="1814" 
d="M574 52v-52h-472v52h204v1330h-204v52h483l348 -1100l365 1100h434v-52h-192v-1330h192v-52h-592v52h192v1280h-4l-453 -1358h-60l-425 1341q-12 36 -12 67h-8v-1330h204z" />
    <glyph glyph-name="Nu" unicode="&#x39d;" horiz-adv-x="1526" 
d="M574 52v-52h-472v52h204v1330h-204v52h498l610 -1003v951h-204v52h472v-52h-204v-1408h-60l-821 1348q-17 29 -17 60h-6v-1330h204z" />
    <glyph glyph-name="Xi" unicode="&#x39e;" horiz-adv-x="1378" 
d="M1290 439v-439h-1162v439h52q0 -137 16 -172q16 -36 42 -47.5t76 -11.5h790q50 0 76 11.5t42 47.5q16 35 16 172h52zM304 1138v-172h-52v552h52v-172h810v172h52v-552h-52v172h-810zM514 596v-128h-52v420h52v-128h390v128h52v-420h-52v128h-390z" />
    <glyph glyph-name="Omicron" unicode="&#x39f;" horiz-adv-x="1618" 
d="M146 712q0 138 38 256.5t104 209.5q49 67 111 120t132.5 89.5t147.5 56t155 18.5q106 -2 205.5 -33t187.5 -97t153 -154q66 -91 104 -209.5t38 -256.5q0 -166 -59 -311q-59 -143 -155 -235q-97 -94 -218.5 -143t-255.5 -49t-255.5 49t-218.5 143q-98 93 -156 235
q-58 140 -58 311zM380 712q0 -340 118 -514t336 -174t336 174t118 514t-119 519t-335 179q-217 0 -336 -179q-118 -178 -118 -519z" />
    <glyph glyph-name="Pi" unicode="&#x3a0;" horiz-adv-x="1572" 
d="M714 52v-52h-592v52h192v1330h-192v52h1388v-52h-192v-1330h192v-52h-592v52h192v1330h-588v-1330h192z" />
    <glyph glyph-name="Rho" unicode="&#x3a1;" horiz-adv-x="1362" 
d="M714 52v-52h-592v52h192v1330h-192v52h626q96 0 187 -28q94 -28 157 -76q190 -145 190 -364q0 -172 -120 -275q-118 -103 -304 -103h-336v-536h192zM710 1382h-188v-742h316q66 0 108.5 25.5t67.5 70.5t34.5 108t9.5 138q0 54 -8 103t-27 101q-19 54 -56 97.5t-91 70.5
q-55 28 -166 28z" />
    <glyph glyph-name="Sigma" unicode="&#x3a3;" horiz-adv-x="1320" 
d="M178 35l708 671l-722 664v64h996l10 -339h-52q-22 108 -75 194q-33 54 -82 73.5t-127 19.5h-374l628 -577l-630 -597h584q50 0 76 11.5t42 47.5q16 35 16 172h52v-439h-1050v35z" />
    <glyph glyph-name="Tau" unicode="&#x3a4;" horiz-adv-x="1564" 
d="M186 846h-52l24 588h1308l24 -588h-52q-22 244 -110 374q-110 162 -284 162h-128v-1330h192v-52h-592v52h192v1330h-128q-175 0 -284 -162q-88 -130 -110 -374z" />
    <glyph glyph-name="Upsilon" unicode="&#x3a5;" horiz-adv-x="1392" 
d="M130 1282l-32 32q58 63 117 98.5t131 35.5q211 0 314 -235q73 -167 104 -373h12q15 59 29 110t29 97t31 88t34 83q54 120 123 181t166 63q88 1 130 -47q42 -47 42 -113q0 -63 -39 -100q-39 -38 -95 -38q-51 0 -81 13q27 54 27 101q0 64 -64 64q-120 0 -216 -280
q-100 -291 -100 -484v-526h192v-52h-592v52h192v542q0 78 -6 154.5t-19 154.5q-13 79 -32 143.5t-45 116.5q-46 92 -96.5 143.5t-118.5 51.5q-61 0 -137 -76z" />
    <glyph glyph-name="Phi" unicode="&#x3a6;" horiz-adv-x="1536" 
d="M615 1132h69v250h-192v52h592v-52h-192v-250h69q135 0 249 -47q111 -47 178 -141q68 -95 68 -222q0 -128 -68 -223q-67 -94 -177 -140.5t-250 -46.5h-69v-260h192v-52h-592v52h192v260h-69q-141 0 -249 46q-111 46 -179 141q-67 94 -67 223q0 128 67 222q69 96 179 142
t249 46zM627 364h57v716h-57q-130 0 -206 -93q-77 -92 -77 -265q0 -171 77 -266q77 -92 206 -92zM949 1080h-57v-716h57q129 0 206 92q77 95 77 266q0 173 -77 265q-77 93 -206 93z" />
    <glyph glyph-name="Chi" unicode="&#x3a7;" horiz-adv-x="1566" 
d="M622 52v-52h-550v52h216l419 660l-424 670h-211v52h716v-52h-252l298 -470l299 470h-205v52h488v-52h-217l-332 -523l512 -807h155v-52h-720v52h312l-385 608l-387 -608h268z" />
    <glyph glyph-name="Psi" unicode="&#x3a8;" horiz-adv-x="1818" 
d="M114 1250l-38 21q46 87 104.5 131t144.5 44q133 0 185 -103q14 -28 23.5 -59t13.5 -66q4 -34 6.5 -83t3.5 -115v-37.5t1 -31.5t2 -32t3 -40q4 -43 10 -75.5t18 -72.5t27 -68.5t40 -58.5q35 -42 89 -66.5t129 -27.5v872h-192v52h592v-52h-192v-872q49 2 90.5 14.5
t71.5 30.5q30 19 54.5 49.5t39.5 57.5q8 14 15 32t13 37.5t10.5 38t7.5 33.5t5.5 34t4.5 42t3 41t2 31t1 30t1 39q1 42 3 77t4 64q3 29 7.5 58.5t12.5 60.5q22 88 70 133.5t138 48.5q67 1 106 -44q38 -44 38 -104q0 -62 -40 -105q-39 -42 -94 -42q-51 0 -81 13q24 48 24 90
q0 22 -11.5 36.5t-30.5 14.5q-43 0 -59 -72t-23 -228q-2 -35 -3.5 -66.5t-4.5 -58.5t-7 -56t-10 -57.5t-13 -55t-16 -48.5q-18 -45 -46.5 -86.5t-67.5 -69.5q-38 -27 -92 -45.5t-123 -23.5v-402h192v-52h-592v52h192v402q-151 8 -248 42t-166 114q-36 42 -59.5 97.5
t-35.5 131.5q-6 38 -10.5 73t-6.5 67q-4 61 -9 167q-1 21 -2 37.5t-2.5 30.5t-3.5 26.5t-5 27.5q-9 42 -29.5 59.5t-60.5 21.5q-37 0 -65 -23.5t-59 -75.5z" />
    <glyph glyph-name="Omegagreek" unicode="&#x3a9;" horiz-adv-x="1524" 
d="M712 161v-161h-580v407h52q0 -137 16 -172q16 -36 42 -47.5t76 -11.5h308v10q-34 30 -63 56.5t-54 49.5t-53.5 54t-61.5 69q-32 38 -59 74t-47 71t-38 75t-32 86q-15 47 -22 92.5t-7 90.5q0 112 42 211.5t117 177.5t186 123.5t240 45.5t240 -45.5t186 -123.5
q76 -78 117.5 -177.5t41.5 -211.5q0 -92 -30 -183q-14 -46 -32 -86t-38 -75t-47 -71t-59 -74q-65 -77 -114 -123q-25 -23 -54 -49.5t-63 -56.5v-10h308q50 0 76 11.5t42 47.5q16 35 16 172h52v-407h-580v161q35 30 60 53t40 40q29 32 76 100q113 164 113 530q0 258 -98 392
t-253 134q-156 0 -254 -134q-97 -133 -97 -392q0 -366 113 -530q23 -34 42 -59t33 -41q14 -15 39 -38t62 -55z" />
    <glyph glyph-name="Iotadieresis" unicode="&#x3aa;" horiz-adv-x="796" 
d="M111 1659q-13 13 -19.5 29.5t-6 33.5t7 32.5t18.5 27.5q13 12 29 18t33 6t33 -6t28 -18q26 -25 26 -60t-26 -63q-26 -27 -61 -27.5t-62 27.5zM609 1659q-13 13 -19.5 29.5t-6 33.5t7 32.5t18.5 27.5q13 12 29 18t33 6t33 -6t28 -18q26 -25 26 -60t-26 -63
q-26 -27 -61 -27.5t-62 27.5zM714 52v-52h-592v52h192v1330h-192v52h592v-52h-192v-1330h192z" />
    <glyph glyph-name="Upsilondieresis" unicode="&#x3ab;" horiz-adv-x="1392" 
d="M453 1659q-13 13 -19.5 29.5t-6 33.5t7 32.5t18.5 27.5q13 12 29 18t33 6t33 -6t28 -18q26 -25 26 -60t-26 -63q-26 -27 -61 -27.5t-62 27.5zM951 1659q-13 13 -19.5 29.5t-6 33.5t7 32.5t18.5 27.5q13 12 29 18t33 6t33 -6t28 -18q26 -25 26 -60t-26 -63
q-26 -27 -61 -27.5t-62 27.5zM130 1282l-32 32q58 63 117 98.5t131 35.5q211 0 314 -235q73 -167 104 -373h12q15 59 29 110t29 97t31 88t34 83q54 120 123 181t166 63q88 1 130 -47q42 -47 42 -113q0 -63 -39 -100q-39 -38 -95 -38q-51 0 -81 13q27 54 27 101q0 64 -64 64
q-120 0 -216 -280q-100 -291 -100 -484v-526h192v-52h-592v52h192v542q0 78 -6 154.5t-19 154.5q-13 79 -32 143.5t-45 116.5q-46 92 -96.5 143.5t-118.5 51.5q-61 0 -137 -76z" />
    <glyph glyph-name="alphatonos" unicode="&#x3ac;" horiz-adv-x="1038" 
d="M836 1373l-242 -381l-38 16l142 430q20 60 46 91t68 31q30 0 50 -21.5t20 -53.5q0 -19 -11 -46.5t-35 -65.5zM92 330q0 134 42 265q43 133 121 217q79 88 175 88q37 0 67 -22t52 -54q21 -33 38 -83q9 -26 15.5 -49t12.5 -47t11.5 -50t11.5 -56h6q29 73 55.5 159.5
t50.5 186.5h102q47 0 47 -33q0 -63 -70 -239q-35 -91 -70.5 -166.5t-70.5 -141.5q55 -145 171 -145q38 0 65 16.5t62 51.5q20 -43 20 -70q0 -69 -39 -121q-20 -26 -44 -38t-53 -13q-26 -1 -47 6t-38.5 20t-31 30.5t-23.5 36.5q-7 12 -13.5 27.5t-11.5 34.5l-17 64l-13 67
h-11q-75 -124 -164 -205q-84 -77 -168 -77q-81 0 -135 51q-57 54 -81 129t-24 160zM140 272q0 -33 5.5 -65t19 -57t36 -40.5t57.5 -15.5q155 -3 310 288q14 27 28 55.5t27 58.5q-24 92 -67.5 144t-120.5 52q-72 0 -130 -36.5t-93 -97.5q-35 -60 -53 -133.5t-19 -152.5z" />
    <glyph glyph-name="epsilontonos" unicode="&#x3ad;" horiz-adv-x="812" 
d="M718 1373l-242 -381l-38 16l142 430q20 60 46 91t68 31q30 0 50 -21.5t20 -53.5q0 -19 -11 -46.5t-35 -65.5zM122 250q0 60 33 117.5t87 99.5v6q-18 10 -33.5 27t-26 38.5t-16.5 45.5t-6 48q0 116 94 192t218 76q82 0 147 -31q65 -32 65 -81q0 -84 -76 -84q-33 0 -92 28
q-45 22 -116 22q-70 0 -131 -45t-61 -109q0 -62 64 -102q85 58 148 58q60 0 101 -19q43 -19 43 -61q0 -23 -10.5 -40t-28.5 -28.5t-42 -17.5t-51 -6q-82 0 -158 49q-17 -6 -32 -18t-26 -28t-17.5 -34.5t-6.5 -36.5q0 -78 73 -126t173 -48q94 0 145 22q26 11 58.5 31.5
t70.5 51.5q16 -25 16 -55q0 -91 -89 -147q-45 -28 -94.5 -40.5t-106.5 -12.5q-66 0 -120.5 16.5t-102.5 51.5q-93 70 -93 190z" />
    <glyph glyph-name="etatonos" unicode="&#x3ae;" horiz-adv-x="1112" 
d="M838 1373l-242 -381l-38 16l142 430q20 60 46 91t68 31q30 0 50 -21.5t20 -53.5q0 -19 -11 -46.5t-35 -65.5zM48 769q0 50 38 91q39 40 91 40q45 0 81 -20.5t60 -50.5q13 -16 23 -36t21 -45q11 -26 18.5 -49.5t14.5 -46.5q6 -22 13 -49.5t14 -60.5h7q31 78 61.5 136
t70.5 111q40 54 89 82.5t106 28.5q60 0 105 -31.5t70 -85.5q50 -106 50 -227q0 -32 -2 -84t-6 -124q-12 -209 -12 -296q0 -47 3 -95t8 -99q12 -108 12 -207q0 -77 -24 -134t-76 -57q-54 0 -83 35.5t-29 92.5q0 51 22 165t65 294q41 170 60.5 293t19.5 204q0 82 -42 151
t-111 69q-46 0 -91.5 -40t-83.5 -110q-38 -69 -69.5 -153t-57.5 -184v-103q0 -90 -20 -139t-76 -49q-48 0 -79 27t-31 81q0 49 61 192q15 35 30 80t29 100q-5 49 -15.5 97.5t-25.5 98.5q-39 125 -114 125q-25 0 -45 -41q-28 -61 -79 -61q-31 0 -51 25t-20 59z" />
    <glyph glyph-name="iotatonos" unicode="&#x3af;" horiz-adv-x="542" 
d="M516 1373l-242 -381l-38 16l142 430q20 60 46 91t68 31q30 0 50 -21.5t20 -53.5q0 -19 -11 -46.5t-35 -65.5zM140 775q0 55 34 89q34 36 83 36q51 0 79 -27.5t28 -72.5q0 -92 -76 -292q-78 -207 -78 -330q0 -23 14.5 -39.5t38.5 -16.5q18 0 33.5 11t28 30.5t22 45
t15.5 54.5q47 -10 79.5 -39t32.5 -65q0 -37 -11 -67.5t-35 -55.5q-46 -46 -122 -46q-69 0 -109.5 51t-40.5 145q0 78 -1.5 148t-5.5 136q-9 166 -9 305z" />
    <glyph glyph-name="upsilondieresistonos" unicode="&#x3b0;" horiz-adv-x="954" 
d="M135 1049q-13 13 -19.5 29.5t-6 33.5t7 32.5t18.5 27.5q13 12 29 18t33 6t33 -6t28 -18q26 -25 26 -60t-26 -63q-26 -27 -61 -27.5t-62 27.5zM656 1373l-242 -381l-38 16l142 430q20 60 46 91t68 31q30 0 50 -21.5t20 -53.5q0 -19 -11 -46.5t-35 -65.5zM633 1049
q-13 13 -19.5 29.5t-6 33.5t7 32.5t18.5 27.5q13 12 29 18t33 6t33 -6t28 -18q26 -25 26 -60t-26 -63q-26 -27 -61 -27.5t-62 27.5zM96 786q0 21 6 40t18 33.5t29.5 23.5t40.5 9q43 0 69 -41q25 -40 25 -94q0 -11 -3 -30.5t-8 -46.5q-5 -26 -11.5 -48.5t-13.5 -40.5
q-46 -116 -46 -247q0 -106 44.5 -165.5t125.5 -59.5q75 0 129.5 33t108.5 100q51 63 80 152q28 85 28 144q0 129 -26 198q-32 84 -32 111q0 43 43 43q10 0 22.5 -12.5t26 -35t27 -54t25.5 -68.5q46 -136 46 -250q0 -131 -47 -246q-46 -112 -138 -181q-89 -67 -212 -67
q-138 0 -218 96q-81 97 -81 263q0 67 6 111q4 31 6 54t2 38q0 64 -31 116q-41 68 -41 122z" />
    <glyph glyph-name="alpha" unicode="&#x3b1;" horiz-adv-x="1038" 
d="M92 330q0 134 42 265q43 133 121 217q79 88 175 88q37 0 67 -22t52 -54q21 -33 38 -83q9 -26 15.5 -49t12.5 -47t11.5 -50t11.5 -56h6q29 73 55.5 159.5t50.5 186.5h102q47 0 47 -33q0 -63 -70 -239q-35 -91 -70.5 -166.5t-70.5 -141.5q55 -145 171 -145q38 0 65 16.5
t62 51.5q20 -43 20 -70q0 -69 -39 -121q-20 -26 -44 -38t-53 -13q-26 -1 -47 6t-38.5 20t-31 30.5t-23.5 36.5q-7 12 -13.5 27.5t-11.5 34.5l-17 64l-13 67h-11q-75 -124 -164 -205q-84 -77 -168 -77q-81 0 -135 51q-57 54 -81 129t-24 160zM140 272q0 -33 5.5 -65t19 -57
t36 -40.5t57.5 -15.5q155 -3 310 288q14 27 28 55.5t27 58.5q-24 92 -67.5 144t-120.5 52q-72 0 -130 -36.5t-93 -97.5q-35 -60 -53 -133.5t-19 -152.5z" />
    <glyph glyph-name="beta" unicode="&#x3b2;" horiz-adv-x="1080" 
d="M168 -514q0 241 9 544q9 301 9 549q0 258 14 435.5t56 289.5q42 110 124 177t172 67q81 0 149 -38.5t113 -98.5t69.5 -130t24.5 -136q0 -105 -46 -203q-47 -101 -121 -175q96 -70 158 -187q61 -112 61 -241q0 -166 -94 -260q-93 -93 -240 -93q-62 0 -113.5 10.5t-96.5 34
t-84.5 61t-76.5 91.5l-8 -4q6 -217 58 -474q33 -167 33 -221q0 -43 -22 -74.5t-64 -31.5q-19 0 -34.5 9t-26.5 24t-17 34.5t-6 40.5zM242 602q0 -158 9 -308q39 -112 109.5 -169t161.5 -57q67 0 124 38.5t93 101.5q37 63 57 138.5t20 153.5q0 162 -96 242q-107 -90 -183 -90
q-45 0 -72.5 23.5t-27.5 69.5q0 42 33 74q31 31 74 31q42 0 81 -12q96 62 140 173q45 112 45 247q0 67 -48 120q-48 54 -124 54q-82 0 -149 -58q-70 -61 -113 -148q-22 -45 -41 -95.5t-35 -107.5q-31 -115 -44.5 -221t-13.5 -200z" />
    <glyph glyph-name="gamma" unicode="&#x3b3;" horiz-adv-x="1058" 
d="M48 725q0 70 45 123q45 51 112 52q44 1 82.5 -16t71.5 -48t60.5 -73t49.5 -91q15 -33 29 -69.5t25 -79.5q23 -84 39 -162.5t30 -170.5l11 -1q7 33 13 60t11 49l27 114q16 69 33 121l36 111q20 62 41 103t45 78q24 38 51 56.5t55 18.5q24 0 56 -35q31 -34 31 -65
q0 -83 -85 -134q-40 -24 -81 -67t-86 -112t-79 -170.5t-47 -222.5q7 -61 17 -131.5t24 -152.5q18 -109 26.5 -176.5t8.5 -97.5q0 -61 -24 -112q-24 -52 -73 -52q-55 0 -80 49q-25 46 -25 111q0 38 8.5 102.5t23.5 157.5q17 103 27 179t15 130q-10 78 -23.5 140.5
t-30.5 110.5t-44 100t-66 110q-45 66 -91 94q-43 28 -118 28q-64 0 -112 -62q-39 40 -39 103z" />
    <glyph glyph-name="delta" unicode="&#x3b4;" horiz-adv-x="888" 
d="M440 900q40 0 84 -6l10 8q-29 38 -54.5 73t-47.5 66q-22 32 -46.5 70.5t-52.5 84.5q-57 94 -88 180t-31 156q0 88 51 136q52 48 116 48q70 0 115 -19q49 -19 102 -74l246 -253v-170q0 -59 -25 -59q-23 0 -55 38l-309 369q-69 81 -128 81q-26 0 -43.5 -20t-17.5 -47
q0 -207 188 -458q96 -127 159 -221.5t95 -161.5q66 -135 66 -279q0 -192 -96 -325q-92 -131 -238 -131q-145 0 -239 131q-95 134 -95 325t95 325q96 133 239 133zM182 338q0 -87 51 -142q51 -56 137 -56q88 0 165 62t120 155q43 92 43 189q0 86 -51 142t-137 56
q-88 0 -165 -62t-120 -156q-43 -90 -43 -188z" />
    <glyph glyph-name="epsilon" unicode="&#x3b5;" horiz-adv-x="812" 
d="M122 250q0 60 33 117.5t87 99.5v6q-18 10 -33.5 27t-26 38.5t-16.5 45.5t-6 48q0 116 94 192t218 76q82 0 147 -31q65 -32 65 -81q0 -84 -76 -84q-33 0 -92 28q-45 22 -116 22q-70 0 -131 -45t-61 -109q0 -62 64 -102q85 58 148 58q60 0 101 -19q43 -19 43 -61
q0 -23 -10.5 -40t-28.5 -28.5t-42 -17.5t-51 -6q-82 0 -158 49q-17 -6 -32 -18t-26 -28t-17.5 -34.5t-6.5 -36.5q0 -78 73 -126t173 -48q94 0 145 22q26 11 58.5 31.5t70.5 51.5q16 -25 16 -55q0 -91 -89 -147q-45 -28 -94.5 -40.5t-106.5 -12.5q-66 0 -120.5 16.5
t-102.5 51.5q-93 70 -93 190z" />
    <glyph glyph-name="zeta" unicode="&#x3b6;" horiz-adv-x="892" 
d="M88 1396q0 80 57 125q58 46 127 46q29 0 47 -15q-53 -74 -53 -151q0 -66 43 -112q43 -45 107 -45q43 0 63 7q21 35 39 62.5t32 49.5t31.5 44.5t37.5 46.5q42 49 82 71q44 23 85 23q43 0 66.5 -25t23.5 -61q0 -72 -80 -128t-203 -90q-80 -84 -142.5 -168t-117.5 -185
q-57 -103 -87 -217.5t-30 -238.5q0 -70 21 -134t71 -111q49 -46 122 -46q21 0 48 2.5t60 7.5q26 4 52 6t54 2q85 0 147 -68q63 -68 63 -157q0 -106 -68 -186t-169 -80q-24 0 -46 6t-38.5 17t-26 28t-9.5 39q0 34 22.5 55t57.5 21q10 0 28.5 -4t44.5 -13q18 -6 35 -9.5
t34 -3.5q79 0 79 85q0 49 -36 78.5t-106 29.5q-27 0 -55.5 -1t-58.5 -6q-31 -5 -61.5 -7t-60.5 -2q-66 0 -117 40.5t-82 109.5q-61 140 -61 322q0 100 21.5 194t66.5 194q23 51 45 94.5t45 83.5t52 87t64 104l-2 3q-32 -4 -59 -6t-49 -2q-104 0 -180 46t-76 142z" />
    <glyph glyph-name="eta" unicode="&#x3b7;" horiz-adv-x="1112" 
d="M48 769q0 50 38 91q39 40 91 40q45 0 81 -20.5t60 -50.5q13 -16 23 -36t21 -45q11 -26 18.5 -49.5t14.5 -46.5q6 -22 13 -49.5t14 -60.5h7q31 78 61.5 136t70.5 111q40 54 89 82.5t106 28.5q60 0 105 -31.5t70 -85.5q50 -106 50 -227q0 -32 -2 -84t-6 -124
q-12 -209 -12 -296q0 -47 3 -95t8 -99q12 -108 12 -207q0 -77 -24 -134t-76 -57q-54 0 -83 35.5t-29 92.5q0 51 22 165t65 294q41 170 60.5 293t19.5 204q0 82 -42 151t-111 69q-46 0 -91.5 -40t-83.5 -110q-38 -69 -69.5 -153t-57.5 -184v-103q0 -90 -20 -139t-76 -49
q-48 0 -79 27t-31 81q0 49 61 192q15 35 30 80t29 100q-5 49 -15.5 97.5t-25.5 98.5q-39 125 -114 125q-25 0 -45 -41q-28 -61 -79 -61q-31 0 -51 25t-20 59z" />
    <glyph glyph-name="theta" unicode="&#x3b8;" horiz-adv-x="888" 
d="M102 766q0 126 22 257q11 67 26.5 129.5t35.5 122.5q41 119 106 196q66 77 144 77q83 0 166 -120q83 -119 133 -292q51 -173 51 -330q0 -85 -10 -185t-33 -215q-24 -119 -58 -208q-35 -92 -90 -153q-53 -59 -125 -59q-80 0 -142 52q-64 55 -105 140t-69 192
q-28 109 -40 207t-12 189zM230 440q0 -54 7.5 -105t24.5 -105t51.5 -86t82.5 -32q55 0 99.5 56.5t73.5 156.5t47 214.5t27 250.5h-397q-8 -90 -12 -176t-4 -174zM251 838h394q2 40 3.5 85t1.5 99q0 37 -5 76.5t-15 84.5q-10 44 -25.5 82t-35.5 71q-42 68 -93 68
q-46 0 -97 -95q-50 -95 -87 -231q-12 -45 -22.5 -104.5t-18.5 -135.5z" />
    <glyph glyph-name="iota" unicode="&#x3b9;" horiz-adv-x="542" 
d="M140 775q0 55 34 89q34 36 83 36q51 0 79 -27.5t28 -72.5q0 -92 -76 -292q-78 -207 -78 -330q0 -23 14.5 -39.5t38.5 -16.5q18 0 33.5 11t28 30.5t22 45t15.5 54.5q47 -10 79.5 -39t32.5 -65q0 -37 -11 -67.5t-35 -55.5q-46 -46 -122 -46q-69 0 -109.5 51t-40.5 145
q0 78 -1.5 148t-5.5 136q-9 166 -9 305z" />
    <glyph glyph-name="kappa" unicode="&#x3ba;" horiz-adv-x="1026" 
d="M62 804q0 46 31.5 72t85.5 24q63 -2 101 -34.5t58 -95.5q7 -22 12.5 -41.5t9.5 -39t7 -42t5 -50.5t3 -50t1 -39q1 -17 1 -39v-48l13 -3q95 107 187 279q39 207 153 207q55 0 82 -32t27 -83q0 -80 -112 -162q-46 -34 -69 -79q-22 -43 -22 -131q0 -108 59 -176
q60 -67 146 -67q75 0 108 84q45 -41 45 -98q0 -38 -10.5 -69.5t-30 -54t-48.5 -35.5t-65 -13q-61 0 -106 39t-75 102t-44.5 143.5t-14.5 163.5l-13 3q-83 -99 -123 -162q-20 -31 -39 -66.5t-37 -75.5q-8 -17 -14 -29.5t-12 -23.5t-13 -22.5t-17 -26.5q-37 -55 -88 -55
q-22 0 -42 5.5t-35 17.5t-24 32t-9 50q0 44 29 82q14 19 38.5 44t59.5 55q18 15 31 29.5t22.5 30t17 33t13.5 39.5q0 65 -6 114.5t-18 86t-29.5 63t-39.5 44.5q-40 32 -123 40q-67 6 -67 60z" />
    <glyph glyph-name="lambda" unicode="&#x3bb;" horiz-adv-x="1052" 
d="M160 1512q91 0 168 -40.5t132 -104.5q55 -65 99 -150q45 -88 71 -171.5t42 -171.5q27 -155 47 -256t33 -155q13 -51 31 -103t43 -106q48 -106 138 -127q76 -18 76 -78q0 -66 -78 -63q-60 2 -105 51.5t-80 140.5q-12 31 -22.5 61.5t-20 62t-18.5 66t-18 74.5t-16 75
t-12 66l-24 139l-16 3l-330 -725h-198l480 1000q-24 90 -61 155t-102 117q-56 44 -141 44q-37 0 -72 -11q-36 -12 -61 -12q-51 0 -82 28t-31 79q0 49 39 81q39 31 89 31z" />
    <glyph glyph-name="mugreek" unicode="&#x3bc;" horiz-adv-x="1220" 
d="M126 -350q0 88 11.5 250t34.5 406q-18 139 -18 335q0 255 130 255q39 0 58.5 -30.5t19.5 -84.5q0 -72 -23 -172q-11 -48 -24 -91t-29 -81q-35 -86 -54 -193q43 -72 101.5 -102.5t140.5 -30.5q61 0 108 38.5t73 98.5q13 29 24 64.5t19 78.5q17 84 22.5 159t5.5 159
q0 75 29 131q30 56 87 56q52 0 77 -43t25 -101q0 -56 -42 -222q-38 -150 -51 -233q45 -128 177 -128q42 0 72.5 23.5t44.5 62.5q43 -42 43 -104q0 -65 -34 -114q-32 -47 -90 -47q-150 0 -226 246l-9 2q-37 -109 -107 -181q-67 -67 -158 -67q-55 0 -101.5 10.5t-86.5 33.5
q-79 46 -151 156l-7 -2q-10 -54 -15 -100t-5 -84q0 -218 87 -389q47 -92 47 -141q0 -101 -80 -101q-66 0 -96 66.5t-30 210.5z" />
    <glyph glyph-name="nu" unicode="&#x3bd;" horiz-adv-x="880" 
d="M48 815q0 33 21 57.5t55 24.5q42 0 77.5 -26.5t63.5 -74.5q26 -46 46 -96t35 -110q21 -84 39.5 -178.5t34.5 -203.5l13 -4q35 38 61 69t42 54q17 25 35 56.5t36 69.5q71 148 71 264q0 32 -7 61.5t-23 57.5q-15 27 -18.5 44.5t2 28t18 15t28.5 6.5q33 0 74 -98
q40 -98 40 -188q0 -106 -29.5 -204t-83.5 -183q-27 -42 -54 -78.5t-56 -70.5t-60.5 -65.5t-67.5 -64.5l-42 6q-15 251 -73 410q-20 54 -39 98t-40 79.5t-45.5 62.5t-54.5 48q-52 35 -75.5 65t-23.5 68z" />
    <glyph glyph-name="xi" unicode="&#x3be;" horiz-adv-x="908" 
d="M96 1492q0 60 47 95t99 35q50 0 73 -20q-41 -62 -41 -124q0 -46 32 -66t69 -20q175 174 308 174q43 0 69 -22t26 -62q0 -129 -250 -142q-244 -160 -244 -350q0 -78 32 -131.5t104 -96.5q165 129 255 129q54 0 81.5 -24.5t27.5 -66.5q0 -60 -42 -91q-40 -31 -96 -31
q-87 0 -134 10q-48 -17 -100.5 -51.5t-100.5 -82.5t-78.5 -108.5t-30.5 -121.5q0 -91 53.5 -135.5t156.5 -44.5q21 0 48 2.5t60 7.5q26 4 52 6t54 2q85 0 147 -68q63 -68 63 -157q0 -112 -53 -189t-151 -77q-43 0 -71 26.5t-28 74.5q0 35 23 64t57 29q11 0 27.5 -1.5
t36.5 -5.5q19 -4 34.5 -5.5t26.5 -1.5q45 0 45 67q0 36 -37.5 59t-107.5 23q-27 0 -55.5 -1t-58.5 -6q-31 -5 -61.5 -7t-60.5 -2q-124 0 -189 98q-67 100 -67 244q0 191 242 404v7q-88 48 -140 117.5t-52 157.5q0 84 37 163t101 166l-1 9q-64 0 -115 12t-86.5 45t-35.5 85z
" />
    <glyph glyph-name="omicron" unicode="&#x3bf;" horiz-adv-x="852" 
d="M187 117q-95 134 -95 325t95 325q96 133 239 133q144 0 238 -133q96 -134 96 -325q0 -192 -96 -325q-92 -131 -238 -131q-145 0 -239 131zM168 338q0 -87 51 -142q51 -56 137 -56q132 0 240 164q88 133 88 242q0 86 -51 142t-137 56q-132 0 -240 -164q-88 -133 -88 -242z
" />
    <glyph glyph-name="pi" unicode="&#x3c0;" horiz-adv-x="1142" 
d="M12 606q0 48 25.5 103t67.5 100q72 75 199 75h782v-188h-346q0 -116 4 -205.5t11 -155.5q3 -32 14 -59t27.5 -47t39 -31.5t49.5 -11.5q90 0 131 92q29 -44 29 -94q0 -85 -39 -143q-37 -55 -123 -55q-56 0 -92.5 24t-58.5 63.5t-31 91.5t-9 109v422h-268
q0 -160 1.5 -262.5t5.5 -153.5q6 -90 6 -173q0 -51 -20.5 -86t-66.5 -35t-73.5 25.5t-27.5 68.5q0 29 9 68q5 20 9.5 36.5t9.5 30.5l31 84q39 106 60 203t23 194h-168q-106 0 -141 -86q-20 -50 -42 -50q-28 0 -28 46z" />
    <glyph glyph-name="rho" unicode="&#x3c1;" horiz-adv-x="892" 
d="M120 -478q0 189 9 444q2 63 3.5 166.5t1.5 251.5q0 91 23 181t65 165q21 37 48.5 68.5t60.5 54t70.5 35t78.5 12.5q152 0 236 -120q42 -60 62 -137.5t22 -177.5q1 -93 -24.5 -180.5t-71 -154t-107 -106.5t-131.5 -38q-94 2 -160 37.5t-108 113.5l-15 -6q-6 -50 -6 -77
q0 -74 19 -163q10 -46 22 -87t28 -78q90 -215 90 -260q0 -42 -27.5 -68t-66.5 -26q-60 0 -91 39t-31 111zM186 354q0 -86 61 -150t149 -64q132 0 240 164q88 133 88 242q0 86 -51 142t-137 56q-89 0 -171 -58q-81 -55 -131 -148q-48 -90 -48 -184z" />
    <glyph glyph-name="sigma1" unicode="&#x3c2;" horiz-adv-x="866" 
d="M92 308q0 114 49 221q25 55 55 102t68 87q38 41 79.5 72.5t86.5 56.5q92 50 172 50q75 0 127 -37q53 -36 53 -103q0 -49 -27.5 -73t-72.5 -24q-12 0 -29.5 2t-40.5 6q-47 9 -98 9q-100 0 -182.5 -37t-133.5 -112q-48 -71 -48 -165q0 -57 18 -95t46.5 -61t62.5 -33t66 -10
q47 0 101 6q46 6 86 6q79 0 134 -61q56 -62 56 -149q0 -111 -61 -187q-62 -78 -161 -78q-24 0 -46 5t-38.5 16t-26 27.5t-9.5 39.5q0 33 21 51q22 18 52 18t84 -13q48 -12 78 -12q24 0 37.5 19t13.5 49q0 95 -215 95q-57 0 -101.5 5t-79.5 17q-75 25 -125 109
q-51 85 -51 181z" />
    <glyph glyph-name="sigma" unicode="&#x3c3;" horiz-adv-x="1004" 
d="M92 414q0 116 44 225q44 105 131 175q88 70 200 70h515v-188h-397l-5 -7q224 -155 224 -379q0 -139 -89 -234q-86 -92 -231 -92q-177 0 -284 120q-108 123 -108 310zM180 322q0 -115 58 -179q59 -65 145 -65q110 0 196 108q95 122 95 234q0 121 -72 201q-74 81 -152 81
q-105 0 -177 -89q-45 -54 -69 -130t-24 -161z" />
    <glyph glyph-name="tau" unicode="&#x3c4;" horiz-adv-x="922" 
d="M12 606q0 48 25.5 103t67.5 100q72 75 199 75h574v-188h-401q0 -116 4 -205.5t11 -155.5q3 -32 13.5 -59t28 -47t41 -31.5t53.5 -11.5q48 0 82 22t51 56q2 -23 3 -40t1 -29q0 -58 -13 -100q-13 -45 -50 -77t-94 -32q-54 0 -90.5 22.5t-55.5 65.5q-18 43 -25.5 90
t-7.5 110v422h-206q-106 0 -141 -86q-20 -50 -42 -50q-28 0 -28 46z" />
    <glyph glyph-name="upsilon" unicode="&#x3c5;" horiz-adv-x="942" 
d="M96 786q0 21 6 40t18 33.5t29.5 23.5t40.5 9q43 0 69 -41q25 -40 25 -94q0 -11 -3 -30.5t-8 -46.5q-5 -26 -11.5 -48.5t-13.5 -40.5q-46 -116 -46 -247q0 -106 44.5 -165.5t125.5 -59.5q75 0 129.5 33t108.5 100q51 63 80 152q28 85 28 144q0 129 -26 198q-32 84 -32 111
q0 43 43 43q10 0 22.5 -12.5t26 -35t27 -54t25.5 -68.5q46 -136 46 -250q0 -131 -47 -246q-46 -112 -138 -181q-89 -67 -212 -67q-138 0 -218 96q-81 97 -81 263q0 67 6 111q4 31 6 54t2 38q0 64 -31 116q-41 68 -41 122z" />
    <glyph glyph-name="phi" unicode="&#x3c6;" horiz-adv-x="1110" 
d="M92 432q0 196 104 336t252 140q11 0 21.5 -8.5t10.5 -25.5q0 -14 -23 -75q-22 -57 -35 -70q-15 -18 -80 -45q-39 -17 -73.5 -45.5t-63.5 -71.5q-57 -83 -57 -189q0 -140 96 -191q48 -26 109 -36t146 -10q-1 32 -2.5 79.5t-4.5 111.5q-4 73 -6 148t-2 154q0 105 57 189
q58 85 157 85q48 0 89.5 -14.5t78.5 -41.5q75 -57 113.5 -142t38.5 -182q0 -103 -35 -214q-35 -110 -107 -182q-62 -62 -150 -105q-90 -41 -175 -41q0 -208 49 -324q63 -152 63 -191q0 -43 -31 -71t-80 -28q-20 0 -39 5.5t-33.5 16t-23.5 26.5t-9 37q0 26 5.5 68.5
t16.5 100.5q33 178 33 361q-106 9 -187 49.5t-129 103.5t-71 136.5t-23 155.5zM542 278q0 -23 0.5 -55.5t1.5 -75.5q166 22 279 153q113 134 113 302q0 74 -50 130t-141 56q-96 0 -161 -128q-42 -81 -42 -382z" />
    <glyph glyph-name="chi" unicode="&#x3c7;" horiz-adv-x="1106" 
d="M54 760q0 57 45 98q45 42 99 42q52 0 96.5 -31t78.5 -80q17 -24 32 -54.5t31 -68.5q15 -37 28 -73t23 -71q19 -69 42 -159h6l226 453q42 84 101 84q36 0 58 -22.5t22 -49.5q0 -38 -26 -88l-324 -643q31 -125 66.5 -228t78.5 -191t93 -137t102 -49q46 0 63 53
q32 98 101 98q32 0 53 -28t21 -67q0 -72 -46 -124q-45 -52 -114 -52q-78 0 -148 55.5t-125 152.5t-97.5 209.5t-75.5 245.5h-6l-282 -563q-49 -100 -112 -100q-39 0 -68.5 21.5t-29.5 58.5q0 46 42 96q17 20 31 40.5t25 43.5l337 668q-31 123 -66 226q-34 100 -81 173
q-46 73 -88 73q-30 0 -50 -38q-17 -34 -33.5 -52t-44.5 -18q-38 0 -61 25t-23 71z" />
    <glyph glyph-name="psi" unicode="&#x3c8;" horiz-adv-x="1250" 
d="M84 715q0 40 7.5 74t22.5 59t36.5 38.5t48.5 13.5q85 0 85 -113q0 -28 -15 -67q-14 -38 -32 -64q-18 -27 -32 -74q-13 -43 -13 -85q0 -88 33 -150.5t89.5 -103t132 -60t159.5 -21.5q-5 606 -87 1056q-14 78 -21 133t-7 87q0 69 32 122q31 54 89 54q43 0 72 -29
q29 -28 39.5 -65t10.5 -82q0 -29 -4.5 -84t-12.5 -136l-27 -278q-5 -57 -9.5 -136t-9.5 -184q-5 -104 -6.5 -218t-2.5 -240q99 9 172 56.5t135 133.5q58 81 84 170q27 90 27 154q0 45 -11 84q-14 50 -14 71q0 57 47 57q56 0 56 -279q0 -183 -77 -345q-28 -58 -68 -107.5
t-92 -86.5t-116 -59t-140 -25q5 -124 16.5 -215t30.5 -154q22 -70 22 -119q0 -26 -7 -49t-19.5 -40t-31 -27t-42.5 -10t-42.5 10t-31 27t-19.5 40t-7 49q0 49 22 119q19 63 30.5 154t16.5 215q-126 9 -224 76q-101 71 -164 174q-63 106 -97 228.5t-34 250.5z" />
    <glyph glyph-name="omega" unicode="&#x3c9;" horiz-adv-x="1340" 
d="M92 424q0 46 6 91.5t20 90.5t30.5 82.5t35.5 68.5q40 63 86.5 100.5t88.5 37.5q32 0 61 -38q30 -38 30 -69q0 -22 -43 -56q-141 -113 -141 -342q0 -132 62 -224t154 -92q77 0 149 108q-67 124 -67 272q0 50 10 91q5 22 14.5 43.5t22.5 37.5t29 26t34 10q31 0 51 -18.5
t32 -47.5t16.5 -64t4.5 -69q0 -57 -26 -137q-13 -38 -29 -73t-35 -66q24 -51 64 -76t86 -27q55 -2 104.5 31.5t86.5 88t58.5 124.5t20.5 142q-1 45 -11.5 90t-33.5 93q-45 94 -117 153q-38 32 -38 58q0 36 38 36q39 0 93 -47.5t111 -132.5q24 -35 42 -76t30.5 -85.5t19 -91
t6.5 -91.5q1 -79 -21.5 -150.5t-62.5 -125.5t-95 -85.5t-119 -30.5q-94 2 -165 42t-125 125h-5q-24 -36 -52.5 -66.5t-59.5 -52t-64.5 -34t-66.5 -12.5q-99 0 -171 60q-75 63 -112 161.5t-37 216.5z" />
    <glyph glyph-name="iotadieresis" unicode="&#x3ca;" horiz-adv-x="542" 
d="M1 1139q-27 27 -27 69t27 69t69 27t69 -27t27 -69t-27 -69t-69 -27t-69 27zM405 1139q-27 27 -27 69t27 69t69 27t69 -27t27 -69t-27 -69t-69 -27t-69 27zM140 775q0 55 34 89q34 36 83 36q51 0 79 -27.5t28 -72.5q0 -92 -76 -292q-78 -207 -78 -330q0 -23 14.5 -39.5
t38.5 -16.5q18 0 33.5 11t28 30.5t22 45t15.5 54.5q47 -10 79.5 -39t32.5 -65q0 -37 -11 -67.5t-35 -55.5q-46 -46 -122 -46q-69 0 -109.5 51t-40.5 145q0 78 -1.5 148t-5.5 136q-9 166 -9 305z" />
    <glyph glyph-name="upsilondieresis" unicode="&#x3cb;" horiz-adv-x="942" 
d="M175 1139q-27 27 -27 69t27 69t69 27t69 -27t27 -69t-27 -69t-69 -27t-69 27zM579 1139q-27 27 -27 69t27 69t69 27t69 -27t27 -69t-27 -69t-69 -27t-69 27zM96 786q0 21 6 40t18 33.5t29.5 23.5t40.5 9q43 0 69 -41q25 -40 25 -94q0 -11 -3 -30.5t-8 -46.5
q-5 -26 -11.5 -48.5t-13.5 -40.5q-46 -116 -46 -247q0 -106 44.5 -165.5t125.5 -59.5q75 0 129.5 33t108.5 100q51 63 80 152q28 85 28 144q0 129 -26 198q-32 84 -32 111q0 43 43 43q10 0 22.5 -12.5t26 -35t27 -54t25.5 -68.5q46 -136 46 -250q0 -131 -47 -246
q-46 -112 -138 -181q-89 -67 -212 -67q-138 0 -218 96q-81 97 -81 263q0 67 6 111q4 31 6 54t2 38q0 64 -31 116q-41 68 -41 122z" />
    </font>
</defs>
</svg>
